<svg xmlns="http://www.w3.org/2000/svg" width="611.052" height="722" viewBox="0 0 611.052 722">
    <defs>
        <linearGradient id="linear-gradient" x1="1" x2="0" y1=".5" y2=".5" gradientUnits="objectBoundingBox">
            <stop offset="0" stop-color="#21a048"/>
            <stop offset="1" stop-color="#2196a0"/>
        </linearGradient>
        <linearGradient id="linear-gradient-2" x2="1" y1=".5" y2=".5" gradientUnits="objectBoundingBox">
            <stop offset="0" stop-color="#e59148"/>
            <stop offset="1" stop-color="#f1cc52"/>
        </linearGradient>
        <style>
            .cls-2{fill:url(#linear-gradient-2)}.cls-3{fill:#e0e0e0}.cls-4{fill:#ebebeb}.cls-5{fill:#f5f5f5}.cls-6{fill:#fff}.cls-7{fill:#263238}.cls-8{opacity:.3}.cls-10{fill:#ef9d78}.cls-11{fill:#d37a57}.cls-12{fill:#455a64}
        </style>
    </defs>
    <g id="Group_4243" transform="translate(-1043 -3301.095)">
        <rect id="_7720fde9d8a09a506bea451e56d4fcdb" width="560" height="722" fill="url(#linear-gradient)" opacity="0.5" rx="15" transform="translate(1068.996 3301.095)"/>
        <g id="Group_4129" transform="translate(1089.93 3391.321)">
            <g id="Background_Complete" transform="translate(-38.123 44.221)">
                <g id="Group_3844">
                    <g id="Group_3730">
                        <g id="Group_3725" transform="translate(.592 .592)">
                            <g id="Group_3724">
                                <g id="Group_3723">
                                    <path id="Rectangle_1834" d="M0 0H221.637V198.289H0z" class="cls-2"/>
                                </g>
                            </g>
                        </g>
                        <g id="Group_3729">
                            <g id="Group_3728">
                                <g id="Group_3727">
                                    <g id="Group_3726">
                                        <path id="Path_10262" d="M261.673 242.1s-.037-1.271-.057-3.68l-.058-10.625-.13-40.25-.259-143.734.5.5-221.614.089h-.019l.592-.592-.071 198.289-.521-.521 160.3.264 45.214.137 11.969.061 3.086.03c.7.011 1.065.03 1.065.03s-.329.02-1.005.03l-3.03.03-11.868.061-45.1.138-160.638.263h-.521v-.52l-.072-198.289v-.592h.612l221.617.09h.5v.5c-.107 59.715-.2 109.33-.258 144.053-.057 17.283-.1 30.853-.13 40.138l-.058 10.528c-.01 2.378-.046 3.572-.046 3.572z" class="cls-3" transform="translate(-39.443 -43.221)"/>
                                    </g>
                                </g>
                            </g>
                        </g>
                    </g>
                    <g id="Group_3734" transform="translate(33.466 35.231)">
                        <g id="Group_3733">
                            <g id="Group_3732">
                                <g id="Group_3731">
                                    <path id="Path_10263" d="M122.881 76.794c0 .327-11.666.593-26.053.593s-26.057-.266-26.057-.593 11.663-.594 26.057-.594 26.053.267 26.053.594z" class="cls-3" transform="translate(-70.771 -76.201)"/>
                                </g>
                            </g>
                        </g>
                    </g>
                    <g id="Group_3738" transform="translate(36.329 50.121)">
                        <g id="Group_3737">
                            <g id="Group_3736">
                                <g id="Group_3735">
                                    <path id="Path_10264" d="M216.608 90.731c0 .327-32.049.592-71.574.592s-71.583-.265-71.583-.592 32.042-.592 71.583-.592 71.574.261 71.574.592z" class="cls-3" transform="translate(-73.451 -90.139)"/>
                                </g>
                            </g>
                        </g>
                    </g>
                    <g id="Group_3741" transform="translate(33.848 75.932)">
                        <g id="Group_3740">
                            <g id="Group_3739">
                                <path id="Rectangle_1835" d="M0 0H9.338V9.338H0z" class="cls-3"/>
                            </g>
                        </g>
                    </g>
                    <g id="Group_3744" transform="translate(56.833 75.932)">
                        <g id="Group_3743">
                            <g id="Group_3742">
                                <path id="Rectangle_1836" d="M0 0H9.337V9.338H0z" class="cls-3"/>
                            </g>
                        </g>
                    </g>
                    <g id="Group_3747" transform="translate(80.242 75.508)">
                        <g id="Group_3746">
                            <g id="Group_3745">
                                <path id="Rectangle_1837" d="M0 0H9.337V9.337H0z" class="cls-3"/>
                            </g>
                        </g>
                    </g>
                    <g id="Group_3750" transform="translate(102.803 75.932)">
                        <g id="Group_3749">
                            <g id="Group_3748">
                                <path id="Rectangle_1838" d="M0 0H9.337V9.338H0z" class="cls-3"/>
                            </g>
                        </g>
                    </g>
                    <g id="Group_3753" transform="translate(125.787 75.932)">
                        <g id="Group_3752">
                            <g id="Group_3751">
                                <path id="Rectangle_1839" d="M0 0H9.338V9.338H0z" class="cls-3"/>
                            </g>
                        </g>
                    </g>
                    <g id="Group_3756" transform="translate(148.772 75.932)">
                        <g id="Group_3755">
                            <g id="Group_3754">
                                <path id="Rectangle_1840" d="M0 0H9.337V9.338H0z" class="cls-3"/>
                            </g>
                        </g>
                    </g>
                    <g id="Group_3759" transform="translate(171.757 75.932)">
                        <g id="Group_3758">
                            <g id="Group_3757">
                                <path id="Rectangle_1841" d="M0 0H9.337V9.338H0z" class="cls-4"/>
                            </g>
                        </g>
                    </g>
                    <g id="Group_3762" transform="translate(33.848 95.783)">
                        <g id="Group_3761">
                            <g id="Group_3760">
                                <path id="Rectangle_1842" d="M0 0H9.338V9.337H0z" class="cls-4"/>
                            </g>
                        </g>
                    </g>
                    <g id="Group_3765" transform="translate(56.833 95.783)">
                        <g id="Group_3764">
                            <g id="Group_3763">
                                <path id="Rectangle_1843" d="M0 0H9.337V9.337H0z" class="cls-3"/>
                            </g>
                        </g>
                    </g>
                    <g id="Group_3768" transform="translate(79.818 95.783)">
                        <g id="Group_3767">
                            <g id="Group_3766">
                                <path id="Rectangle_1844" d="M0 0H9.338V9.337H0z" class="cls-4"/>
                            </g>
                        </g>
                    </g>
                    <g id="Group_3771" transform="translate(102.803 95.783)">
                        <g id="Group_3770">
                            <g id="Group_3769">
                                <path id="Rectangle_1845" d="M0 0H9.337V9.337H0z" class="cls-3"/>
                            </g>
                        </g>
                    </g>
                    <g id="Group_3774" transform="translate(125.787 95.783)">
                        <g id="Group_3773">
                            <g id="Group_3772">
                                <path id="Rectangle_1846" d="M0 0H9.338V9.337H0z" class="cls-3"/>
                            </g>
                        </g>
                    </g>
                    <g id="Group_3777" transform="translate(149.196 95.359)">
                        <g id="Group_3776">
                            <g id="Group_3775">
                                <path id="Rectangle_1847" d="M0 0H9.337V9.338H0z" class="cls-3"/>
                            </g>
                        </g>
                    </g>
                    <g id="Group_3780" transform="translate(171.757 95.783)">
                        <g id="Group_3779">
                            <g id="Group_3778">
                                <path id="Rectangle_1848" d="M0 0H9.337V9.337H0z" class="cls-3"/>
                            </g>
                        </g>
                    </g>
                    <g id="Group_3783" transform="translate(33.848 115.634)">
                        <g id="Group_3782">
                            <g id="Group_3781">
                                <path id="Rectangle_1849" d="M0 0H9.338V9.338H0z" class="cls-3"/>
                            </g>
                        </g>
                    </g>
                    <g id="Group_3786" transform="translate(57.257 115.21)">
                        <g id="Group_3785">
                            <g id="Group_3784">
                                <path id="Rectangle_1850" d="M0 0H9.338V9.338H0z" class="cls-3"/>
                            </g>
                        </g>
                    </g>
                    <g id="Group_3789" transform="translate(79.818 115.634)">
                        <g id="Group_3788">
                            <g id="Group_3787">
                                <path id="Rectangle_1851" d="M0 0H9.338V9.338H0z" class="cls-3"/>
                            </g>
                        </g>
                    </g>
                    <g id="Group_3792" transform="translate(102.803 115.634)">
                        <g id="Group_3791">
                            <g id="Group_3790">
                                <path id="Rectangle_1852" d="M0 0H9.337V9.338H0z" class="cls-4"/>
                            </g>
                        </g>
                    </g>
                    <g id="Group_3795" transform="translate(125.787 115.634)">
                        <g id="Group_3794">
                            <g id="Group_3793">
                                <path id="Rectangle_1853" d="M0 0H9.338V9.338H0z" class="cls-3"/>
                            </g>
                        </g>
                    </g>
                    <g id="Group_3798" transform="translate(148.772 115.634)">
                        <g id="Group_3797">
                            <g id="Group_3796">
                                <path id="Rectangle_1854" d="M0 0H9.337V9.338H0z" class="cls-3"/>
                            </g>
                        </g>
                    </g>
                    <g id="Group_3801" transform="translate(171.757 115.634)">
                        <g id="Group_3800">
                            <g id="Group_3799">
                                <path id="Rectangle_1855" d="M0 0H9.337V9.338H0z" class="cls-3"/>
                            </g>
                        </g>
                    </g>
                    <g id="Group_3804" transform="translate(33.848 135.485)">
                        <g id="Group_3803">
                            <g id="Group_3802">
                                <path id="Rectangle_1856" d="M0 0H9.338V9.338H0z" class="cls-3"/>
                            </g>
                        </g>
                    </g>
                    <g id="Group_3807" transform="translate(56.833 135.485)">
                        <g id="Group_3806">
                            <g id="Group_3805">
                                <path id="Rectangle_1857" d="M0 0H9.337V9.338H0z" class="cls-3"/>
                            </g>
                        </g>
                    </g>
                    <g id="Group_3810" transform="translate(79.818 135.485)">
                        <g id="Group_3809">
                            <g id="Group_3808">
                                <path id="Rectangle_1858" d="M0 0H9.338V9.338H0z" class="cls-3"/>
                            </g>
                        </g>
                    </g>
                    <g id="Group_3813" transform="translate(103.226 135.061)">
                        <g id="Group_3812">
                            <g id="Group_3811">
                                <path id="Rectangle_1859" d="M0 0H9.338V9.337H0z" class="cls-3"/>
                            </g>
                        </g>
                    </g>
                    <g id="Group_3816" transform="translate(125.787 135.485)">
                        <g id="Group_3815">
                            <g id="Group_3814">
                                <path id="Rectangle_1860" d="M0 0H9.338V9.338H0z" class="cls-3"/>
                            </g>
                        </g>
                    </g>
                    <g id="Group_3819" transform="translate(148.772 135.485)">
                        <g id="Group_3818">
                            <g id="Group_3817">
                                <path id="Rectangle_1861" d="M0 0H9.337V9.338H0z" class="cls-4"/>
                            </g>
                        </g>
                    </g>
                    <g id="Group_3822" transform="translate(171.757 135.485)">
                        <g id="Group_3821">
                            <g id="Group_3820">
                                <path id="Rectangle_1862" d="M0 0H9.337V9.338H0z" class="cls-3"/>
                            </g>
                        </g>
                    </g>
                    <g id="Group_3825" transform="translate(33.848 155.336)">
                        <g id="Group_3824">
                            <g id="Group_3823">
                                <path id="Rectangle_1863" d="M0 0H9.338V9.338H0z" class="cls-3"/>
                            </g>
                        </g>
                    </g>
                    <g id="Group_3828" transform="translate(56.833 155.336)">
                        <g id="Group_3827">
                            <g id="Group_3826">
                                <path id="Rectangle_1864" d="M0 0H9.337V9.338H0z" class="cls-4"/>
                            </g>
                        </g>
                    </g>
                    <g id="Group_3831" transform="translate(79.818 155.336)">
                        <g id="Group_3830">
                            <g id="Group_3829">
                                <path id="Rectangle_1865" d="M0 0H9.338V9.338H0z" class="cls-3"/>
                            </g>
                        </g>
                    </g>
                    <g id="Group_3834" transform="translate(102.803 155.336)">
                        <g id="Group_3833">
                            <g id="Group_3832">
                                <path id="Rectangle_1866" d="M0 0H9.337V9.338H0z" class="cls-3"/>
                            </g>
                        </g>
                    </g>
                    <g id="Group_3837" transform="translate(125.787 155.336)">
                        <g id="Group_3836">
                            <g id="Group_3835">
                                <path id="Rectangle_1867" d="M0 0H9.338V9.338H0z" class="cls-3"/>
                            </g>
                        </g>
                    </g>
                    <g id="Group_3840" transform="translate(149.196 154.912)">
                        <g id="Group_3839">
                            <g id="Group_3838">
                                <path id="Rectangle_1868" d="M0 0H9.337V9.337H0z" class="cls-3"/>
                            </g>
                        </g>
                    </g>
                    <g id="Group_3843" transform="translate(171.757 155.336)">
                        <g id="Group_3842">
                            <g id="Group_3841">
                                <path id="Rectangle_1869" d="M0 0H9.337V9.338H0z" class="cls-3"/>
                            </g>
                        </g>
                    </g>
                </g>
                <g id="Group_3891" transform="translate(441.658 132.963)">
                    <g id="Group_3866">
                        <g id="Group_3847" transform="translate(96.916 128.392)">
                            <g id="Group_3846">
                                <g id="Group_3845">
                                    <path id="Path_10265" d="M430.939 293.591c9.875-5.1 21.5-5.758 32.469-3.946 5.89.974 12.031 2.737 16.039 7.161s4.768 12.211.166 16.013c-2.739 2.263-6.56 2.607-10.113 2.566-8.582-.1-18.106-1.612-24.963 3.553-3.912 2.946-6.516 7.844-11.194 9.293-4.575 1.418-9.739-1.283-12.166-5.413s-2.507-9.293-1.376-13.947a21.294 21.294 0 0 1 11.138-15.28z" class="cls-2" transform="translate(-419.096 -288.729)"/>
                                </g>
                            </g>
                        </g>
                        <g id="Group_3850" transform="translate(80.43)">
                            <g id="Group_3849">
                                <g id="Group_3848">
                                    <path id="Path_10266" d="M409.365 258.117c6.039 8.625 17.776 5.769 23.219.5s7.742-12.895 9.835-20.171c4.784-16.625 9.607-34.066 6.051-51-1.064-5.061-2.956-10.109-6.513-13.864s-9.026-5.989-14.026-4.667c-5.918 1.563-9.6 7.359-12.254 12.874a121.55 121.55 0 0 0-12.013 52.167c-.029 8.4.961 17.215 5.7 24.152" class="cls-2" transform="translate(-403.663 -168.541)"/>
                                </g>
                            </g>
                        </g>
                        <g id="Group_3853" transform="translate(0 27.752)">
                            <g id="Group_3852">
                                <g id="Group_3851">
                                    <path id="Path_10267" d="M397.921 268.719c6.557-7.782 7.8-19.133 4.884-28.88S393.3 221.8 385.7 215.025a92.1 92.1 0 0 0-30.63-18.073c-4.429-1.558-9.1-2.786-13.775-2.341s-9.381 2.836-11.561 6.995c-3.224 6.148-.134 13.605 3.209 19.689a233.562 233.562 0 0 0 20.12 30.637c6.029 7.774 12.937 15.443 22.128 18.956s18.736 3.1 23.607-3.274" class="cls-2" transform="translate(-328.372 -194.52)"/>
                                </g>
                            </g>
                        </g>
                        <g id="Group_3857" transform="translate(85.612 140.37)">
                            <g id="Group_3856">
                                <g id="Group_3855">
                                    <g id="Group_3854">
                                        <path id="Path_10268" d="M408.625 379.254a18.77 18.77 0 0 0 .547-3.919l1.04-10.7a154.467 154.467 0 0 1 2.407-15.688 120.907 120.907 0 0 1 5.7-18.516 68.226 68.226 0 0 1 9.455-16.755 35.309 35.309 0 0 1 11.954-9.938 33.4 33.4 0 0 1 10.066-3.134 18.88 18.88 0 0 0 3.9-.565 18.35 18.35 0 0 0-3.971-.061 30.487 30.487 0 0 0-10.5 2.732 35.224 35.224 0 0 0-12.61 10.025 66.647 66.647 0 0 0-9.8 17.091 113.223 113.223 0 0 0-5.662 18.818 132.49 132.49 0 0 0-2.085 15.887c-.34 4.542-.469 8.22-.531 10.762a18.407 18.407 0 0 0 .09 3.961z" class="cls-3" transform="translate(-408.515 -299.941)"/>
                                    </g>
                                </g>
                            </g>
                        </g>
                        <g id="Group_3861" transform="translate(85.613 34.655)">
                            <g id="Group_3860">
                                <g id="Group_3859">
                                    <g id="Group_3858">
                                        <path id="Path_10269" d="M409.363 377.779a7.8 7.8 0 0 0 .1-1.819c0-1.366-.009-3.087-.014-5.2-.013-4.512-.01-11.044.232-19.108.4-16.13 1.788-33.489 4.471-57.963 2.539-23.014 5.949-49.795 9.547-67.207.771-3.96 1.549-7.525 2.281-10.644.7-3.128 1.293-5.825 1.867-8.007l1.216-5.055a7.77 7.77 0 0 0 .318-1.794 7.575 7.575 0 0 0-.632 1.7l-1.509 4.982c-.67 2.162-1.357 4.841-2.14 7.956-.816 3.108-1.674 6.663-2.519 10.617a590.229 590.229 0 0 0-10.033 62.363c-2.688 24.525-3.9 46.855-4 63.025-.1 8.086.075 14.631.282 19.146l.317 5.2a7.622 7.622 0 0 0 .216 1.808z" class="cls-3" transform="translate(-408.515 -200.982)"/>
                                    </g>
                                </g>
                            </g>
                        </g>
                        <g id="Group_3865" transform="translate(28.955 47.823)">
                            <g id="Group_3864">
                                <g id="Group_3863">
                                    <g id="Group_3862">
                                        <path id="Path_10270" d="M413.09 333.868a34.6 34.6 0 0 0-.037-5.432c-.2-3.491-.68-8.538-1.663-14.718a194.429 194.429 0 0 0-4.787-21.443 175.771 175.771 0 0 0-8.967-25.373c-7.438-17.643-17.543-32.069-26.334-41a66.839 66.839 0 0 0-6.195-5.758c-.951-.8-1.79-1.606-2.646-2.24l-2.4-1.657a34.641 34.641 0 0 0-4.573-2.928c-.26.353 6.48 4.319 14.991 13.374 8.476 9.035 18.3 23.361 25.676 40.857a200.508 200.508 0 0 1 9.018 25.139c2.351 7.879 3.913 15.127 5.093 21.231 1.121 6.118 1.771 11.114 2.162 14.573a35.189 35.189 0 0 0 .662 5.375z" class="cls-3" transform="translate(-355.477 -213.309)"/>
                                    </g>
                                </g>
                            </g>
                        </g>
                    </g>
                    <g id="Group_3869" transform="translate(44.94 244.357)">
                        <g id="Group_3868">
                            <g id="Group_3867">
                                <path id="Path_10271" d="M370.441 397.284l4.316 59.125h75.956l4.316-59.125z" class="cls-2" transform="translate(-370.441 -397.284)"/>
                            </g>
                        </g>
                    </g>
                    <g id="Group_3872" transform="translate(37.604 221.053)">
                        <g id="Group_3871">
                            <g id="Group_3870">
                                <path id="Rectangle_1870" d="M0 0H100.987V23.304H0z" class="cls-2"/>
                            </g>
                        </g>
                    </g>
                    <g id="Group_3875" transform="translate(37.604 301.219)">
                        <g id="Group_3874">
                            <g id="Group_3873">
                                <path id="Path_10272" d="M363.573 450.513v6.46h99.318v-6.46z" class="cls-2" transform="translate(-363.573 -450.513)"/>
                            </g>
                        </g>
                    </g>
                    <g id="Group_3878" transform="translate(42.349 307.679)">
                        <g id="Group_3877">
                            <g id="Group_3876">
                                <path id="Path_10273" d="M372.666 467.929l-4.651-11.369h90.955l-5.426 11.369z" class="cls-2" transform="translate(-368.015 -456.56)"/>
                            </g>
                        </g>
                    </g>
                    <g id="Group_3882" transform="translate(46.221 255.375)">
                        <g id="Group_3881">
                            <g id="Group_3880">
                                <g id="Group_3879">
                                    <path id="Path_10274" d="M453.536 415.9a2.473 2.473 0 0 1-.355.543l-1.134 1.505-4.425 5.663-.2.252-.19-.264-10.872-15.035h.626l-10.7 15.154-.335.475-.375-.447-12.693-15.1.732-.01-.7.878-11.349 14.228-.378.474-.349-.495-10.708-15.15.623.03-13.188 15.024-.234.267-.178-.3-4.13-6.937-1.059-1.847a2.93 2.93 0 0 1-.324-.659 3 3 0 0 1 .442.586l1.172 1.778 4.335 6.81-.412-.033 12.975-15.208.328-.385.3.413 10.8 15.083-.726-.019 11.322-14.251c.238-.3.478-.6.7-.877l.36-.453.372.443 12.658 15.132-.711.028 10.81-15.078.317-.441.309.441 10.641 15.2-.387-.012 4.6-5.518 1.233-1.427c.285-.314.44-.471.457-.461z" class="cls-5" transform="translate(-371.64 -407.598)"/>
                                </g>
                            </g>
                        </g>
                    </g>
                    <g id="Group_3886" transform="translate(45.572 243.494)">
                        <g id="Group_3885">
                            <g id="Group_3884">
                                <g id="Group_3883">
                                    <path id="Path_10275" d="M456.044 396.949c0 .261-19.031.473-42.5.473s-42.508-.213-42.508-.473 19.028-.473 42.508-.473 42.5.213 42.5.473z" class="cls-5" transform="translate(-371.033 -396.476)"/>
                                </g>
                            </g>
                        </g>
                    </g>
                    <g id="Group_3890" transform="translate(42.03 307.844)">
                        <g id="Group_3889">
                            <g id="Group_3888">
                                <g id="Group_3887">
                                    <path id="Path_10276" d="M460.109 457.186c0 .262-20.685.473-46.194.473s-46.2-.212-46.2-.473 20.679-.472 46.2-.472 46.194.212 46.194.472z" class="cls-5" transform="translate(-367.717 -456.714)"/>
                                </g>
                            </g>
                        </g>
                    </g>
                </g>
            </g>
            <g id="Character" transform="translate(55.567 119.247)">
                <g id="Group_3920" transform="translate(13.849 141.9)">
                    <g id="Group_3892">
                        <path id="Path_10277" d="M206.354 247.138l-8.543 4.585-18.911 14.56s-57.932 7.693-60.157 9.361-31.036 15.35-34.93 33.706-11.9 138.128-11.9 138.128l10.507 35.388 210.99.329 49.482-.7s19.014-44.406 19.014-56.644-5.562-104.018-5.562-104.018l-59.336-41.841z" class="cls-6" transform="translate(-71.907 -247.138)"/>
                    </g>
                    <g id="Group_3894" transform="translate(88.573 18.279)">
                        <g id="Group_3893">
                            <path id="Path_10278" d="M172.693 264.25a2.25 2.25 0 0 1-.295.5l-.928 1.352c-.833 1.154-1.958 2.881-3.278 5.053-.636 1.1-1.367 2.285-2.037 3.622-.72 1.31-1.4 2.754-2.106 4.277a88.5 88.5 0 0 0-3.835 10.223 140.216 140.216 0 0 0-4.159 19.423l-.858 5.972c-.1.654-.177 1.191-.242 1.624a2.229 2.229 0 0 1-.122.563 2.227 2.227 0 0 1 .011-.575l.139-1.637c.127-1.421.356-3.472.683-6a124.38 124.38 0 0 1 4.017-19.529 83.491 83.491 0 0 1 3.9-10.276c.724-1.528 1.424-2.974 2.166-4.283.691-1.335 1.447-2.516 2.108-3.61 1.371-2.156 2.55-3.855 3.439-4.974l1.015-1.294a2.169 2.169 0 0 1 .382-.431z" class="cls-7" transform="translate(-154.821 -264.249)"/>
                        </g>
                    </g>
                    <g id="Group_3896" class="cls-8" transform="translate(89.212 50.537)">
                        <g id="Group_3895">
                            <path id="Path_10279" d="M173.968 297.4c-.351-1.127-.807-2.4-1.9-2.842-.861-.346-.515.209-1.374.564-8.013 3.3-11.881 10.714-15.274 19.059l.193-.2a3.338 3.338 0 0 0 1.312 3.872c1.806 1.052 4.129.484 5.985-.476s3.556-2.3 5.582-2.815c4.388-1.124 8.75 1.88 11.846 5.186s5.885 7.244 10.108 8.882a97.418 97.418 0 0 1-16.478-31.23z" transform="translate(-155.419 -294.446)"/>
                        </g>
                    </g>
                    <g id="Group_3898" transform="translate(88.585 44.996)">
                        <g id="Group_3897">
                            <path id="Path_10280" d="M154.832 315.148a56.88 56.88 0 0 1 8.48-14.107 29.788 29.788 0 0 1 3.99-3.9 13.378 13.378 0 0 1 5.64-2.706l.166-.031.061.16c1.344 3.5 2.752 7.312 4.378 11.329a90.789 90.789 0 0 0 5.973 12.369 59.757 59.757 0 0 0 9.187 11.875 74.774 74.774 0 0 0 12.582 9.976c1.544.915 3.043 1.882 4.588 2.736l4.63 2.467-.277.018 7.712-5.323q1.891-1.3 3.737-2.578c1.239-.841 2.447-1.687 3.588-2.585a93.9 93.9 0 0 0 11.969-11.25l.018-.019.017-.014a44.989 44.989 0 0 0 10.974-11.975 40.886 40.886 0 0 0 4.947-11.5 42.118 42.118 0 0 0 1.258-7.972c.065-.93.047-1.647.073-2.128s.042-.732.042-.732.023.248.032.731.04 1.2 0 2.135a39.881 39.881 0 0 1-1.138 8.033 40.558 40.558 0 0 1-4.885 11.637 45.1 45.1 0 0 1-11.015 12.149l.035-.033a93.443 93.443 0 0 1-12 11.355c-1.149.91-2.364 1.764-3.6 2.606l-3.736 2.587-7.715 5.338-.135.094-.143-.076-4.654-2.476c-1.553-.859-3.063-1.83-4.615-2.752a74.742 74.742 0 0 1-12.672-10.061 60.035 60.035 0 0 1-9.246-12 90.441 90.441 0 0 1-5.964-12.455c-1.614-4.035-3-7.858-4.324-11.359l.226.129a13.037 13.037 0 0 0-5.481 2.595 29.741 29.741 0 0 0-3.97 3.815 52.914 52.914 0 0 0-5.139 7.215c-1.251 2.094-2.124 3.777-2.7 4.926l-.648 1.312a3.138 3.138 0 0 1-.246.445z" class="cls-7" transform="translate(-154.832 -289.259)"/>
                        </g>
                    </g>
                    <g id="Group_3900" transform="translate(164.843 44.583)">
                        <g id="Group_3899">
                            <path id="Path_10281" d="M269.362 288.872a107.17 107.17 0 0 1-.771 16.292 126.9 126.9 0 0 1-3.258 17.484 149.635 149.635 0 0 1-7.071 20.7l-.408.966-.125-1.047c-.075-.625-.135-1.3-.236-1.975a58.132 58.132 0 0 0-2.692-11.285c-.615-1.773-1.305-3.486-2.057-5.129-.373-.822-.767-1.624-1.17-2.41a14.943 14.943 0 0 0-1.308-2.228 4.369 4.369 0 0 0-1.834-1.531 2.1 2.1 0 0 0-2.1.4 15.641 15.641 0 0 0-1.631 1.731q-.785.9-1.548 1.769l-5.651 6.448-8.214 9.311-2.254 2.514-.6.644a1.155 1.155 0 0 1-.218.206 1.256 1.256 0 0 1 .175-.244l.556-.68 2.175-2.582 8.08-9.427 5.6-6.493 1.536-1.778a15.709 15.709 0 0 1 1.687-1.8 2.608 2.608 0 0 1 2.577-.484 4.851 4.851 0 0 1 2.071 1.692 15.421 15.421 0 0 1 1.362 2.3c.409.793.81 1.6 1.189 2.429.764 1.655 1.465 3.381 2.09 5.17a58.1 58.1 0 0 1 2.728 11.391c.1.68.162 1.363.238 1.994l-.533-.081a153.049 153.049 0 0 0 7.093-20.612 131.687 131.687 0 0 0 3.364-17.4c.62-5 .867-9.073.979-11.883.074-1.4.074-2.5.109-3.236l.037-.841a1.1 1.1 0 0 1 .033-.295z" class="cls-7" transform="translate(-226.217 -288.872)"/>
                        </g>
                    </g>
                    <g id="Group_3902" transform="translate(115.866 15.069)">
                        <g id="Group_3901">
                            <path id="Path_10282" d="M192.816 261.245a.982.982 0 0 1-.161.21l-.511.578c-.476.483-1.089 1.273-1.877 2.286a42.038 42.038 0 0 0-5.12 9.563 61.834 61.834 0 0 0-3.835 15.62 62.48 62.48 0 0 0 .855 19.638 52.625 52.625 0 0 0 2.987 9.753 51.547 51.547 0 0 0 4.389 8.424 53.946 53.946 0 0 0 10.686 11.983c1.724 1.523 3.476 2.654 4.94 3.745 1.555.957 2.865 1.833 3.984 2.469l2.6 1.429.67.385a.919.919 0 0 1 .22.148.943.943 0 0 1-.246-.1c-.186-.091-.414-.2-.7-.335l-2.652-1.341c-1.138-.609-2.471-1.461-4.049-2.4-1.489-1.073-3.267-2.188-5.019-3.7a53.308 53.308 0 0 1-10.865-12.01 51.436 51.436 0 0 1-4.464-8.5 52.543 52.543 0 0 1-3.027-9.847 62.1 62.1 0 0 1-.818-19.81 60.838 60.838 0 0 1 3.978-15.708 40.246 40.246 0 0 1 5.312-9.547 23.977 23.977 0 0 1 1.969-2.233c.222-.219.4-.4.552-.542.128-.103.196-.165.202-.158z" class="cls-7" transform="translate(-180.37 -261.244)"/>
                        </g>
                    </g>
                    <g id="Group_3904" transform="translate(27.853 62.261)">
                        <g id="Group_3903">
                            <path id="Path_10283" d="M107.549 360.868c.013-.006.082.093.212.307l.573.989-.157.054c-.764-3.585-2.838-14.6-5.193-27.611-1.418-8.018-2.7-15.273-3.647-20.618l-1.043-6.259c-.1-.691-.188-1.255-.255-1.707a2.424 2.424 0 0 1-.051-.6 2.5 2.5 0 0 1 .161.581l.359 1.689c.3 1.547.714 3.656 1.217 6.228l3.807 20.589c2.354 13.017 4.269 24.055 4.81 27.681l.081.546-.238-.491-.5-1.028a1.182 1.182 0 0 1-.136-.35z" class="cls-7" transform="translate(-97.98 -305.421)"/>
                        </g>
                    </g>
                    <g id="Group_3906" transform="translate(23.329 91.098)">
                        <g id="Group_3905">
                            <path id="Path_10284" d="M105.265 356.833c-.139.065-2.83-5.348-6.008-12.089s-5.645-12.262-5.506-12.328 2.829 5.347 6.009 12.091 5.64 12.26 5.505 12.326z" class="cls-7" transform="translate(-93.746 -332.415)"/>
                        </g>
                    </g>
                    <g id="Group_3907" transform="translate(30.734 123.188)"/>
                    <g id="Group_3909" class="cls-8" transform="translate(33.755 106.468)">
                        <g id="Group_3908">
                            <path id="Path_10286" d="M103.5 473.3c6.7 3.367 22.22-2.574 27.864-9.979s7.278-17.03 8.5-26.259q2.769-20.865 3.948-41.9a63.662 63.662 0 0 0 40.118 12.116c9.062-.411 19.39-4.011 22.193-12.639 2.773-8.534-3.2-17.308-9.4-23.793a145.962 145.962 0 0 0-19.243-16.876c-4.525-3.315-9.478-6.456-15.054-7.064-6.014-.657-12.1 1.807-16.67 5.77s-7.767 9.3-10.108 14.881c-7.146 17.031-6.76 36.105-8.218 54.518s-3.412 37.486-19.725 49.472" transform="translate(-103.505 -346.803)"/>
                        </g>
                    </g>
                    <g id="Group_3911" transform="translate(34.187 136.856)">
                        <g id="Group_3910">
                            <path id="Path_10287" d="M103.91 471.43a2.541 2.541 0 0 1 .458-.222l1.348-.581a24.493 24.493 0 0 0 4.572-3.143 64.018 64.018 0 0 0 12.343-15.384l-.031.09 3.33-24.943c1.958-14.4 3.694-27.438 5.089-36.855l2.061-11.087.589-3.009.167-.78a.981.981 0 0 1 .076-.263 1.069 1.069 0 0 1-.02.272l-.112.79-.485 3.026-1.885 11.112-4.928 36.873c-1.237 9.079-2.4 17.612-3.4 24.929l-.007.05-.023.04c-4.282 7.038-8.846 12.295-12.581 15.363a22.859 22.859 0 0 1-4.691 3.059c-.6.241-1.074.4-1.388.517a2.436 2.436 0 0 1-.482.146z" class="cls-7" transform="translate(-103.91 -375.249)"/>
                        </g>
                    </g>
                    <g id="Group_3913" transform="translate(134.332 101.305)">
                        <g id="Group_3912">
                            <path id="Path_10288" d="M200.336 476.019a1.637 1.637 0 0 1-.1-.336l-.239-1c-.185-.886-.541-2.177-.824-3.873a96.169 96.169 0 0 1-1.471-14.482 140.281 140.281 0 0 1 1.152-21.561c.983-8.074 2.619-16.868 4.518-26.047 1.822-9.2 4.118-17.853 5.976-25.75a122.059 122.059 0 0 0 3.427-21.238 77.928 77.928 0 0 0-.531-14.487c-.184-1.706-.476-3.009-.6-3.906l-.155-1.017a1.629 1.629 0 0 1-.034-.35 1.6 1.6 0 0 1 .09.339l.209 1.007c.154.891.483 2.191.7 3.9a74.183 74.183 0 0 1 .708 14.538 119.3 119.3 0 0 1-3.319 21.332c-1.835 7.922-4.11 16.553-5.931 25.747-1.9 9.174-3.546 17.949-4.553 26a144.136 144.136 0 0 0-1.268 21.486 102.916 102.916 0 0 0 1.29 14.457c.251 1.7.572 2.993.72 3.885l.185 1.013a1.58 1.58 0 0 1 .05.343z" class="cls-7" transform="translate(-197.656 -341.97)"/>
                        </g>
                    </g>
                    <g id="Group_3915" transform="translate(154.982 101.304)">
                        <g id="Group_3914">
                            <path id="Path_10289" d="M216.993 355.564c-.135-.09 1.709-3.03 3.756-6.778s3.54-6.882 3.689-6.815a8.654 8.654 0 0 1-.773 2.147c-.557 1.293-1.4 3.05-2.428 4.935s-2.06 3.537-2.85 4.7a8.63 8.63 0 0 1-1.394 1.811z" class="cls-7" transform="translate(-216.986 -341.969)"/>
                        </g>
                    </g>
                    <g id="Group_3917" class="cls-8" transform="translate(157.83 73.068)">
                        <g id="Group_3916">
                            <path id="Path_10290" d="M220.255 352.931a179.59 179.59 0 0 1 18.045-18.284c1.763-1.546 3.678-3.117 5.991-3.5 2.824-.468 5.693.986 7.65 3.076a26.283 26.283 0 0 1 4.355 7.355c2.8-6.887-.107-14.638-2.989-21.489-.938-2.229-2.567-4.876-4.958-4.518a5.525 5.525 0 0 0-3.079 2.2 332.39 332.39 0 0 0-25.622 33.912" transform="translate(-219.652 -315.537)"/>
                        </g>
                    </g>
                    <g id="Group_3919" class="cls-8" transform="translate(233.252 56.193)">
                        <g id="Group_3918">
                            <path id="Path_10291" d="M309.36 303.125l.4-3.385c-4.068.389-9.072.867-12.321 3.345-3.792 2.89-5.286 7.815-6.561 12.409-2.9 10.454 5.335 64.241 4.915 75.083 3.608-1.532 6.141-24.615 6.789-28.48 1.579-9.413-1.615-15.291-.648-17.911s.942-5.486 1.021-8.279c.353-12.478 1.592-21.263 6.406-32.781" transform="translate(-290.255 -299.74)"/>
                        </g>
                    </g>
                </g>
                <g id="Group_3923" transform="translate(161.342)">
                    <g id="Group_3922">
                        <g id="Group_3921">
                            <path id="Path_10292" d="M261.742 143.15c-5.171-6.412-3.478-16.651 2.441-22.38s14.921-7.378 23.044-6.012a37.914 37.914 0 0 1 27.473 20.728c2.77 5.818 4.279 12.694 9.364 16.652 4.47 3.479 10.614 3.785 15.7 6.276 6.819 3.339 11.215 10.479 12.775 17.909s.624 15.163-.949 22.59c-1.444 6.818-3.368 14.184-.441 20.507 2.855 6.166 9.526 9.527 13.917 14.712 8.261 9.757 6.387 26.361-3.84 34.032-3.261 2.445-7.384 4.305-8.941 8.072-1.423 3.439-.209 7.341-.283 11.062-.188 9.58-10.751 17.461-19.987 14.913-4.664-1.286-8.961-4.729-13.753-4.072-4.761.653-7.94 5.052-11.809 7.9a20.682 20.682 0 0 1-25.97-1.919c-2.806-2.789-5.061-6.589-8.886-7.6s-7.832 1.18-11.743.647c-5.121-.7-8.487-5.784-10-10.726s-1.919-10.3-4.475-14.791c-3.347-5.882-9.719-9.213-15.073-13.352a52.352 52.352 0 0 1-4.482-78.945" class="cls-7" transform="translate(-209.976 -114.305)"/>
                        </g>
                    </g>
                </g>
                <g id="Group_4071" transform="translate(100.105 13.203)">
                    <g id="Group_3924" transform="translate(29.496 143.79)">
                        <path id="Path_10293" d="M192.118 261.267a49.226 49.226 0 0 0-10.444 43.633c3.8 15.077 16.416 37.111 30.973 42.581 9.441-6.92 21.576-16.587 30.379-24.3 5.7-4.993 8.719-12.29 11.543-19.321 1.628-4.055 3.282-8.439 2.259-12.688-.753-3.129-2.871-5.738-5.1-8.058a65.3 65.3 0 0 0-56.549-18.862" class="cls-10" transform="translate(-180.264 -261.267)"/>
                    </g>
                    <g id="Group_4070">
                        <g id="Group_4003" transform="translate(39.284 20.81)">
                            <g id="Group_4002">
                                <g id="Group_4001">
                                    <g id="Group_4000">
                                        <g id="Group_3999">
                                            <g id="Group_3998">
                                                <g id="Group_3997">
                                                    <g id="Group_3996">
                                                        <g id="Group_3975">
                                                            <g id="Group_3974">
                                                                <g id="Group_3973">
                                                                    <g id="Group_3927">
                                                                        <g id="Group_3926">
                                                                            <g id="Group_3925">
                                                                                <path id="Path_10294" d="M234.728 160.6a25.907 25.907 0 0 1 29.637-13.648l36.448 9.291c18.213 5.871 32.473 34.055 21.736 58.746-8.479 19.5-17.166 44-25.879 57.45-17.521 27.056-41.47 20.874-41.47 20.874l-12.927 28.838-52.847-49.558z" class="cls-10" transform="translate(-189.426 -146.146)"/>
                                                                            </g>
                                                                        </g>
                                                                    </g>
                                                                    <g id="Group_3939" transform="translate(106.618 76.454)">
                                                                        <g id="Group_3938">
                                                                            <g id="Group_3937">
                                                                                <g id="Group_3936">
                                                                                    <g id="Group_3935">
                                                                                        <g id="Group_3934">
                                                                                            <g id="Group_3933">
                                                                                                <g id="Group_3932">
                                                                                                    <g id="Group_3931">
                                                                                                        <g id="Group_3930">
                                                                                                            <g id="Group_3929">
                                                                                                                <g id="Group_3928">
                                                                                                                    <path id="Path_10295" d="M289.444 217.728c.687-.257 2.474 3.15 6.433 5.055 3.927 1.958 7.814 1.329 8.009 2.021.107.316-.776.957-2.485 1.265a11.2 11.2 0 0 1-6.7-1.026 10.758 10.758 0 0 1-4.831-4.621c-.763-1.522-.755-2.587-.426-2.694z" class="cls-7" transform="translate(-289.232 -217.714)"/>
                                                                                                                </g>
                                                                                                            </g>
                                                                                                        </g>
                                                                                                    </g>
                                                                                                </g>
                                                                                            </g>
                                                                                        </g>
                                                                                    </g>
                                                                                </g>
                                                                            </g>
                                                                        </g>
                                                                    </g>
                                                                    <g id="Group_3951" transform="translate(65.291 57.674)">
                                                                        <g id="Group_3950">
                                                                            <g id="Group_3949">
                                                                                <g id="Group_3948">
                                                                                    <g id="Group_3947">
                                                                                        <g id="Group_3946">
                                                                                            <g id="Group_3945">
                                                                                                <g id="Group_3944">
                                                                                                    <g id="Group_3943">
                                                                                                        <g id="Group_3942">
                                                                                                            <g id="Group_3941">
                                                                                                                <g id="Group_3940">
                                                                                                                    <path id="Path_10296" d="M250.814 200.138c.778-.144 2.544 3.648 6.8 6.278 4.219 2.682 8.555 2.717 8.727 3.458.1.341-.913.844-2.827.858a14.123 14.123 0 0 1-7.34-2.21 13.3 13.3 0 0 1-5.052-5.558c-.748-1.685-.675-2.774-.308-2.826z" class="cls-7" transform="translate(-250.545 -200.134)"/>
                                                                                                                </g>
                                                                                                            </g>
                                                                                                        </g>
                                                                                                    </g>
                                                                                                </g>
                                                                                            </g>
                                                                                        </g>
                                                                                    </g>
                                                                                </g>
                                                                            </g>
                                                                        </g>
                                                                    </g>
                                                                    <g id="Group_3962" transform="translate(83.049 63.698)">
                                                                        <g id="Group_3961">
                                                                            <g id="Group_3960">
                                                                                <g id="Group_3959">
                                                                                    <g id="Group_3958">
                                                                                        <g id="Group_3957">
                                                                                            <g id="Group_3956">
                                                                                                <g id="Group_3955">
                                                                                                    <g id="Group_3954">
                                                                                                        <g id="Group_3953">
                                                                                                            <g id="Group_3952">
                                                                                                                <path id="Path_10297" d="M267.17 240.053c.082-.237 2.77.439 7.045 1.715 1.071.348 2.133.575 2.616-.049.57-.633.631-1.929.662-3.343l.428-9.155c.716-12.986 1.72-23.48 2.241-23.447s.367 10.586-.348 23.573q-.3 4.786-.577 9.144c-.128 1.337-.047 2.955-1.252 4.261a2.815 2.815 0 0 1-2.351.752 7.616 7.616 0 0 1-1.849-.531c-4.167-1.583-6.701-2.685-6.615-2.92z" class="cls-7" transform="translate(-267.168 -205.774)"/>
                                                                                                            </g>
                                                                                                        </g>
                                                                                                    </g>
                                                                                                </g>
                                                                                            </g>
                                                                                        </g>
                                                                                    </g>
                                                                                </g>
                                                                            </g>
                                                                        </g>
                                                                    </g>
                                                                    <g id="Group_3972" transform="translate(30.39 119.065)">
                                                                        <g id="Group_3971">
                                                                            <g id="Group_3970">
                                                                                <g id="Group_3969">
                                                                                    <g id="Group_3968">
                                                                                        <g id="Group_3967">
                                                                                            <g id="Group_3966">
                                                                                                <g id="Group_3965">
                                                                                                    <g id="Group_3964">
                                                                                                        <g id="Group_3963">
                                                                                                            <path id="Path_10298" d="M253.212 285.775S232.1 277.86 217.874 257.6c0 0 .8 24.736 32.1 35.42z" class="cls-11" transform="translate(-217.874 -257.603)"/>
                                                                                                        </g>
                                                                                                    </g>
                                                                                                </g>
                                                                                            </g>
                                                                                        </g>
                                                                                    </g>
                                                                                </g>
                                                                            </g>
                                                                        </g>
                                                                    </g>
                                                                </g>
                                                            </g>
                                                        </g>
                                                        <g id="Group_3985" transform="translate(68.805 43.593)">
                                                            <g id="Group_3984">
                                                                <g id="Group_3983">
                                                                    <g id="Group_3982">
                                                                        <g id="Group_3981">
                                                                            <g id="Group_3980">
                                                                                <g id="Group_3979">
                                                                                    <g id="Group_3978">
                                                                                        <g id="Group_3977">
                                                                                            <g id="Group_3976">
                                                                                                <path id="Path_10299" d="M253.9 187.342c.671-1.079 4.845.384 10.016.842 5.163.562 9.541-.053 9.988 1.137.192.564-.749 1.514-2.632 2.3a17.471 17.471 0 0 1-15.241-1.507c-1.693-1.14-2.431-2.255-2.131-2.772z" class="cls-7" transform="translate(-253.835 -186.953)"/>
                                                                                            </g>
                                                                                        </g>
                                                                                    </g>
                                                                                </g>
                                                                            </g>
                                                                        </g>
                                                                    </g>
                                                                </g>
                                                            </g>
                                                        </g>
                                                        <g id="Group_3995" transform="translate(114.583 55.741)">
                                                            <g id="Group_3994">
                                                                <g id="Group_3993">
                                                                    <g id="Group_3992">
                                                                        <g id="Group_3991">
                                                                            <g id="Group_3990">
                                                                                <g id="Group_3989">
                                                                                    <g id="Group_3988">
                                                                                        <g id="Group_3987">
                                                                                            <g id="Group_3986">
                                                                                                <path id="Path_10300" d="M297.545 198.325c1.351-.009 3.014 3.313 5.892 6.494 2.783 3.267 5.872 5.359 5.675 6.683-.124.612-1.246.872-3.017.348a13.772 13.772 0 0 1-6.041-4.122 13.571 13.571 0 0 1-3.279-6.494c-.275-1.81.14-2.874.77-2.909z" class="cls-7" transform="translate(-296.688 -198.325)"/>
                                                                                            </g>
                                                                                        </g>
                                                                                    </g>
                                                                                </g>
                                                                            </g>
                                                                        </g>
                                                                    </g>
                                                                </g>
                                                            </g>
                                                        </g>
                                                    </g>
                                                </g>
                                            </g>
                                        </g>
                                    </g>
                                </g>
                            </g>
                        </g>
                        <g id="Group_4004" transform="translate(100.661 117.213)">
                            <path id="Path_10301" d="M259.292 249.127s2.481-1.3 1.33-6.055-7.205-9.074-11.037-5.159c0 0-3.872.3-2.349 4.76s10.343 10.765 11.987 7.178" class="cls-11" transform="translate(-246.881 -236.389)"/>
                        </g>
                        <g id="Group_4015" transform="translate(100.636 118.655)">
                            <g id="Group_4014">
                                <g id="Group_4013">
                                    <g id="Group_4012">
                                        <g id="Group_4011">
                                            <g id="Group_4010">
                                                <g id="Group_4009">
                                                    <g id="Group_4008">
                                                        <g id="Group_4007">
                                                            <g id="Group_4006">
                                                                <g id="Group_4005">
                                                                    <path id="Path_10302" d="M257.851 252.67c-.706-.122.369-4.768-2.838-8.992s-8.269-4.864-8.154-5.522c0-.307 1.312-.645 3.415-.215a11.878 11.878 0 0 1 6.868 4.347 10.346 10.346 0 0 1 2.082 7.47c-.275 1.984-1.062 3.013-1.373 2.912z" class="cls-7" transform="translate(-246.857 -237.738)"/>
                                                                </g>
                                                            </g>
                                                        </g>
                                                    </g>
                                                </g>
                                            </g>
                                        </g>
                                    </g>
                                </g>
                            </g>
                        </g>
                        <g id="Group_4043">
                            <g id="Group_4018" transform="translate(0 20.085)">
                                <g id="Group_4017">
                                    <g id="Group_4016">
                                        <path id="Path_10303" d="M206.071 145.467a22.8 22.8 0 0 0-8.754 18.667c.158 3.994 1.133 8.71-1.81 11.414-3 2.753-7.711 1.276-11.779 1.3a15.147 15.147 0 0 0-14.463 12.963c-.291 2.524.038 5.254-1.249 7.444-1.34 2.279-4.026 3.3-6.287 4.67a18.852 18.852 0 0 0 .63 32.606c2.614 1.449 5.674 2.354 7.581 4.654 2.189 2.638 2.272 6.372 3.344 9.627a15.829 15.829 0 0 0 30 .219" class="cls-7" transform="translate(-152.652 -145.467)"/>
                                    </g>
                                </g>
                            </g>
                            <g id="Group_4023" transform="translate(109.712 5.99)">
                                <g id="Group_4022">
                                    <g id="Group_4021">
                                        <g id="Group_4020">
                                            <g id="Group_4019">
                                                <path id="Path_10304" d="M258.136 136.145a22.557 22.557 0 0 0 18.064 29.632c5.067.742 11.111.1 14.381 4.041 3.438 4.145 1.4 10.753 4.12 15.4 3.886 6.641 10.513 11.942 16.8 16.381 4.855 3.428-.7 12.973 1.417 18.527s10.826 18.228 16.764 18.453c1.3-4.968 8.693-26.784 8.823-31.917s-1.028-10.467-4.2-14.5c-1.741-2.211-4.035-3.977-5.542-6.353-3.255-5.134-2.162-11.78-3.218-17.765a24.718 24.718 0 0 0-13.832-17.873c-5.93-2.708-12.883-3.008-18.36-6.545-4.049-2.615-6.942-6.8-11.138-9.168-8.171-4.617-18.411-1.1-26.855 3" class="cls-7" transform="translate(-255.354 -132.272)"/>
                                            </g>
                                        </g>
                                    </g>
                                </g>
                            </g>
                            <g id="Group_4026" transform="translate(28.675 .269)">
                                <g id="Group_4025">
                                    <g id="Group_4024">
                                        <path id="Path_10305" d="M223.969 198.607c-.845-.563-6.446 3.679-.915 7.061 9.687 5.926 18.01-14.095 17.653-20.748 4.935-2.084 9.931-4.2 14.276-7.5s10.847-14.111 12.009-19.575c3.707 1.5 21.616 1.637 20.063.563-3.535-2.446-10.687-7.694-11.637-11.8-2.064-8.92-8.4-16.678-16.766-19.01a20.85 20.85 0 0 0-23.067 9.59c-9.965-3.291-21.778-.331-29.729 7.448a34.756 34.756 0 0 0-9.483 30.916c.586 2.843 1.546 5.81.635 8.627-1.128 3.491-4.631 5.374-7.418 7.634-7.6 6.162-10.875 17.05-9.939 26.881s2.613 13.741 7.479 17.294c9.52 6.951-10.265 24.707 7.458 30.707" class="cls-7" transform="translate(-179.495 -126.917)"/>
                                    </g>
                                </g>
                            </g>
                            <g id="Group_4030" transform="translate(111.894)">
                                <g id="Group_4029">
                                    <g id="Group_4028">
                                        <g id="Group_4027">
                                            <path id="Path_10306" d="M350.94 266.488c-.048-.073.625-.44 1.668-1.415a14.894 14.894 0 0 0 3.569-5.025 15.192 15.192 0 0 0 1-9.528c-.833-3.722-3.642-7.27-7.405-10.293-3.652-3.143-8.453-5.943-11.849-10.882-3.437-4.965-4-11.723-2.917-18.132 1.071-6.507 3.781-12.827 5.519-19.565a36.714 36.714 0 0 0 1.308-10.418 20.583 20.583 0 0 0-2.792-10.188 18.864 18.864 0 0 0-7.948-6.886 37.079 37.079 0 0 0-10.043-3.058 71.272 71.272 0 0 1-10.258-1.968 12.84 12.84 0 0 1-7.977-6.285c-1.553-3.053-1.89-6.3-2.569-9.231a18.514 18.514 0 0 0-3.454-7.848 21.427 21.427 0 0 0-13.085-7.829 22.552 22.552 0 0 0-12.67 1.525 28.845 28.845 0 0 0-8.214 5.34 42.965 42.965 0 0 0-5.423 6.457 1.716 1.716 0 0 1 .232-.512 16.022 16.022 0 0 1 .827-1.422 27.324 27.324 0 0 1 3.988-4.917 28.548 28.548 0 0 1 8.28-5.666 23.2 23.2 0 0 1 13.149-1.782 22.367 22.367 0 0 1 13.835 8.1 19.663 19.663 0 0 1 3.736 8.284c.706 3 1.085 6.165 2.513 8.907a11.53 11.53 0 0 0 7.242 5.607 71.474 71.474 0 0 0 10.077 1.888A38.222 38.222 0 0 1 331.7 162.9a20.222 20.222 0 0 1 8.528 7.4 21.931 21.931 0 0 1 2.993 10.88 37.939 37.939 0 0 1-1.371 10.8c-1.8 6.875-4.512 13.142-5.575 19.437-1.084 6.22-.56 12.62 2.611 17.274 3.131 4.675 7.839 7.54 11.521 10.769 3.785 3.118 6.724 6.9 7.531 10.881a15.605 15.605 0 0 1-1.27 9.925 14.305 14.305 0 0 1-3.88 5.01 7.571 7.571 0 0 1-1.848 1.212z" class="cls-12" transform="translate(-257.396 -126.665)"/>
                                        </g>
                                    </g>
                                </g>
                            </g>
                            <g id="Group_4034" transform="translate(169.848 75.318)">
                                <g id="Group_4033">
                                    <g id="Group_4032">
                                        <g id="Group_4031">
                                            <path id="Path_10307" d="M314.469 197.171c.124.05-.522 1.529-1.172 4.326a31.49 31.49 0 0 0-.379 12.034 29.882 29.882 0 0 0 2.42 7.937 39.074 39.074 0 0 0 5.233 8.012 23.723 23.723 0 0 1 2.851 4.584 11.429 11.429 0 0 1 1.007 5.668c-.313 3.971-2.265 7.5-3.72 11.092-1.524 3.557-2.379 7.368-.986 10.673 1.3 3.3 3.946 5.811 6.348 8.212a32.558 32.558 0 0 1 6.276 7.622 13.009 13.009 0 0 1 1.346 4.391 12.848 12.848 0 0 1-.316 4.207 14.316 14.316 0 0 1-7.643 9.527 11.048 11.048 0 0 1-3.265.9 3.618 3.618 0 0 1-1.177 0 20.6 20.6 0 0 0 4.2-1.39 14.031 14.031 0 0 0 6.917-9.257 11.113 11.113 0 0 0-1.091-7.835 32.147 32.147 0 0 0-6.153-7.243c-2.412-2.381-5.224-4.941-6.723-8.637a11.78 11.78 0 0 1-.714-5.919 23.145 23.145 0 0 1 1.681-5.781c1.508-3.681 3.368-7.111 3.649-10.663.376-3.571-1.51-6.7-3.525-9.378a39.217 39.217 0 0 1-5.257-8.3 30.675 30.675 0 0 1-1.511-20.584 21.119 21.119 0 0 1 1.144-3.16 3.7 3.7 0 0 1 .56-1.038z" class="cls-12" transform="translate(-311.648 -197.17)"/>
                                        </g>
                                    </g>
                                </g>
                            </g>
                            <g id="Group_4038" transform="translate(6.348 11.328)">
                                <g id="Group_4037">
                                    <g id="Group_4036">
                                        <g id="Group_4035">
                                            <path id="Path_10308" d="M164.632 234.8c-.02.022-.226-.129-.61-.45a12.154 12.154 0 0 1-1.55-1.575 16.767 16.767 0 0 1-3.549-7.589 16.321 16.321 0 0 1 2.618-12.686 17.617 17.617 0 0 1 15.029-7.356l-.592.783a27.056 27.056 0 0 1-1.8-11.114 14.235 14.235 0 0 1 5.714-10.727 10.694 10.694 0 0 1 6.25-2.138 15.691 15.691 0 0 1 6.454 1.826 24.908 24.908 0 0 0 5.981 2.3 6.451 6.451 0 0 0 5.649-1.673 12.49 12.49 0 0 0 3.5-8.4c.251-3.143-.056-6.342.272-9.537a26.648 26.648 0 0 1 7.87-16.191 25.523 25.523 0 0 1 14.461-7.023 26.3 26.3 0 0 1 13.583 1.707l-.6.239a13.982 13.982 0 0 1 7.353-6.748 15.383 15.383 0 0 1 7.4-1.1 13.117 13.117 0 0 1 4.5 1.308 6.329 6.329 0 0 1 1.351.9 16.174 16.174 0 0 0-5.9-1.692 15.2 15.2 0 0 0-7.068 1.272 13.294 13.294 0 0 0-6.789 6.461l-.188.406-.418-.167a25.538 25.538 0 0 0-13.067-1.458 24.471 24.471 0 0 0-13.725 6.813 25.465 25.465 0 0 0-7.4 15.414c-.308 3.022 0 6.206-.247 9.514a13.831 13.831 0 0 1-3.939 9.322 7.871 7.871 0 0 1-6.828 2.023 25.867 25.867 0 0 1-6.339-2.426 14.45 14.45 0 0 0-5.872-1.715 9.358 9.358 0 0 0-5.462 1.858 12.957 12.957 0 0 0-5.232 9.745 26.063 26.063 0 0 0 1.641 10.615l.288.835-.88-.052a16.664 16.664 0 0 0-14.179 6.742 15.707 15.707 0 0 0-2.725 12.006 17.213 17.213 0 0 0 3.161 7.489c1.152 1.507 1.947 2.166 1.884 2.239z" class="cls-12" transform="translate(-158.594 -137.27)"/>
                                        </g>
                                    </g>
                                </g>
                            </g>
                            <g id="Group_4042" transform="translate(39.939 17.868)">
                                <g id="Group_4041">
                                    <g id="Group_4040">
                                        <g id="Group_4039">
                                            <path id="Path_10309" d="M262.156 143.43c.07.247-2.079-.1-4.817 1.872-2.729 1.931-5.093 6.606-5.788 12.539l-.06.51-.5-.042a19.2 19.2 0 0 0-15.733 6.573 14.932 14.932 0 0 0-2.528 4.259 29.221 29.221 0 0 0-1.095 5.169 39.343 39.343 0 0 1-1.1 5.594 9.349 9.349 0 0 1-3.369 5.046c-3.546 2.768-7.9 3.246-11.706 3.852-3.882.525-7.526 1.169-10.671 2.763a24.818 24.818 0 0 0-12.362 13.383 25.9 25.9 0 0 0-1.457 12.463c.379 2.991 1.014 4.571.881 4.614a4.051 4.051 0 0 1-.517-1.118 21 21 0 0 1-.9-3.412 25.215 25.215 0 0 1 1.066-12.89 25.55 25.55 0 0 1 12.723-14.2c3.293-1.715 7.194-2.427 11.039-2.962 3.806-.6 7.937-1.141 11.037-3.593 3.05-2.15 3.38-6.195 3.974-9.749a29.975 29.975 0 0 1 1.189-5.417 16.074 16.074 0 0 1 2.8-4.647 20.129 20.129 0 0 1 16.82-6.764l-.562.467c.85-6.176 3.454-10.964 6.486-12.911a8.36 8.36 0 0 1 3.756-1.4 4.776 4.776 0 0 1 1.394.001z" class="cls-12" transform="translate(-190.039 -143.392)"/>
                                        </g>
                                    </g>
                                </g>
                            </g>
                        </g>
                        <g id="Group_4069" transform="translate(54.201 61.54)">
                            <g id="Group_4055">
                                <g id="Group_4054">
                                    <g id="Group_4053">
                                        <g id="Group_4052">
                                            <g id="Group_4051">
                                                <g id="Group_4050">
                                                    <g id="Group_4049">
                                                        <g id="Group_4048">
                                                            <g id="Group_4047">
                                                                <g id="Group_4046">
                                                                    <g id="Group_4045">
                                                                        <g id="Group_4044">
                                                                            <path id="Path_10310" d="M224.4 197.734c3.047-5.969-1.046-13.476-7.747-13.461-3.679.009-7.636 2-10.925 8.309-8.769 16.815 9.922 22.151 10.2 21.685.178-.29 4.906-9.544 8.472-16.533z" class="cls-10" transform="translate(-203.389 -184.273)"/>
                                                                        </g>
                                                                    </g>
                                                                </g>
                                                            </g>
                                                        </g>
                                                    </g>
                                                </g>
                                            </g>
                                        </g>
                                    </g>
                                </g>
                            </g>
                            <g id="Group_4068" transform="translate(5.189 5.633)">
                                <g id="Group_4067">
                                    <g id="Group_4066">
                                        <g id="Group_4065">
                                            <g id="Group_4064">
                                                <g id="Group_4063">
                                                    <g id="Group_4062">
                                                        <g id="Group_4061">
                                                            <g id="Group_4060">
                                                                <g id="Group_4059">
                                                                    <g id="Group_4058">
                                                                        <g id="Group_4057">
                                                                            <g id="Group_4056">
                                                                                <path id="Path_10311" d="M213.786 204.856c-.047-.092-.4.052-1.014.021a3.3 3.3 0 0 1-2.213-1.1c-1.437-1.579-1.461-5.18.037-8.253a10.926 10.926 0 0 1 3.007-3.767 3.817 3.817 0 0 1 3.377-1.1 1.683 1.683 0 0 1 1.31 1.7c-.02.588-.3.867-.228.943.026.066.507-.094.735-.859a2.111 2.111 0 0 0-.112-1.4 2.5 2.5 0 0 0-1.4-1.272c-1.343-.586-3.132 0-4.419 1.011a11.226 11.226 0 0 0-3.46 4.158c-1.659 3.445-1.579 7.521.486 9.49a3.539 3.539 0 0 0 2.911.952c.74-.133 1.025-.463.983-.524z" class="cls-11" transform="translate(-208.247 -189.546)"/>
                                                                            </g>
                                                                        </g>
                                                                    </g>
                                                                </g>
                                                            </g>
                                                        </g>
                                                    </g>
                                                </g>
                                            </g>
                                        </g>
                                    </g>
                                </g>
                            </g>
                        </g>
                    </g>
                </g>
                <g id="Group_4092" transform="translate(0 203.235)">
                    <g id="Group_4074" transform="translate(126.886 72.45)">
                        <g id="Group_4072">
                            <path id="Path_10312" d="M209.4 418.432c-1.485-2.759-5.306-4.457-5.306-4.457l-3.183-7.853a8.554 8.554 0 0 0 0-6.155c-1.273-3.4-10.612-23.135-10.4-23.772l-2.417-.142S196.7 396.942 197.55 398s2.087 7.277-.035 8.125-6.633-1.45-8.543-3.36-7.994-16.281-9.056-19.253.83-7.108.83-7.108l1.7-4.033h-2.336a77.5 77.5 0 0 0-2.335 8.278c-.848 4.033 8.7 21.648 10.188 23.558s6.579 3.4 9.339 5.307 2.335 7.853 2.335 7.853a14.726 14.726 0 0 0-2.547 7c-.213 3.821 8.277 21.862 14.008 25.682s12.522 1.061 13.159 1.273 2.123-2.971 2.123-2.971-15.495-27.16-16.98-29.919zm7.824 31.548a11.971 11.971 0 0 1-7.884-4.557c-.7-.92-8.126-13.851-9.084-16.26-1.673-4.2-.516-6.529.093-8.992.883-3.572 6.405-1.477 6.405-1.477s16.257 28.09 15.889 28.947-2.362 2.583-5.42 2.339z" class="cls-7" transform="translate(-177.721 -372.375)"/>
                        </g>
                        <g id="Group_4073" transform="translate(46.535 42.156)">
                            <path id="Path_10313" d="M223.406 445.666s47.337-18.016 49.547-20.057 10.2-13.772 10.2-13.772 3.911.68 3.4 1.7-7.991 12.752-15.982 16.152-49.289 18.947-49.289 18.947z" class="cls-7" transform="translate(-221.283 -411.837)"/>
                        </g>
                    </g>
                    <g id="Group_4091">
                        <g id="Group_4075">
                            <path id="Path_10314" d="M84.7 304.554L65.2 416.991s-7.179 21.877-6.153 26.663 4.651 25.431 15.59 31.926 32.608 2.257 37.052-2.187 13.2-12.589 14.226-16.349 8.218-60.933 8.218-60.933l2.851-16.037s-10.6 3.418-17.092-1.026-15.04-23.586-15.04-23.586l-9.572 14.7z" class="cls-6" transform="translate(-58.943 -304.554)"/>
                        </g>
                        <g id="Group_4077" transform="translate(7.98 50.908)">
                            <g id="Group_4076">
                                <path id="Path_10315" d="M104.338 352.21a3.633 3.633 0 0 1-.373.635l-1.157 1.756c-1.006 1.522-2.456 3.73-4.2 6.49C95.1 366.6 90.42 374.306 85.3 382.855s-9.733 16.307-13.164 21.866c-1.712 2.782-3.125 5.017-4.121 6.548l-1.164 1.752a3.612 3.612 0 0 1-.438.591 3.644 3.644 0 0 1 .344-.651l1.075-1.807 3.969-6.637 13.023-21.948c5.119-8.551 9.857-16.234 13.454-21.691 1.787-2.735 3.289-4.913 4.351-6.4.514-.7.926-1.265 1.243-1.7a3.55 3.55 0 0 1 .466-.568z" class="cls-7" transform="translate(-66.414 -352.21)"/>
                            </g>
                        </g>
                        <g id="Group_4079" transform="translate(36.643 64.854)">
                            <g id="Group_4078">
                                <path id="Path_10316" d="M132.187 389.72a2.525 2.525 0 0 1-.4.468c-.286.284-.675.74-1.255 1.246a21.668 21.668 0 0 1-5.389 3.644 17.085 17.085 0 0 1-4.309 1.359 16.44 16.44 0 0 1-5.187.126 21.438 21.438 0 0 1-5.533-1.494 30.058 30.058 0 0 1-5.375-2.985 28.712 28.712 0 0 1-4.522-4.168 29.229 29.229 0 0 1-6.5-13.794 28.447 28.447 0 0 1-.438-6.489c.028-.768.129-1.359.169-1.76a2.542 2.542 0 0 1 .1-.607c.05 0-.018.85-.057 2.374a31.342 31.342 0 0 0 .607 6.409 29.506 29.506 0 0 0 6.523 13.512 28.69 28.69 0 0 0 4.434 4.073 30.163 30.163 0 0 0 5.261 2.932 21.2 21.2 0 0 0 5.387 1.489 16.2 16.2 0 0 0 5.044-.073 17.041 17.041 0 0 0 4.225-1.263 23.106 23.106 0 0 0 5.41-3.448c1.161-.994 1.769-1.587 1.805-1.551z" class="cls-7" transform="translate(-93.245 -365.264)"/>
                            </g>
                        </g>
                        <g id="Group_4080" transform="translate(45.905 23.374)">
                            <path id="Path_10317" d="M101.915 353.969l14.586-9.38s38.891-15.8 42.84-16.711 8.508-2.735 10.635 0 24.306 18.838 24.306 18.838 13.065 24.611 13.065 27.952 3.646 7.62 0 8.824l-3.646 1.2s-1.216 5.959-5.773 6.625-6.076 0-6.076 0-.3 5.96-3.95 5.592-9.722-5.592-9.722-5.592-2.735 3.1-4.862 3.1-8.811-4.557-8.811-4.557l-12.924-11.241-11.382-3.95-6.153 3.913s-13.146 1.118-15.119.046-17.014-24.659-17.014-24.659z" class="cls-10" transform="translate(-101.915 -326.434)"/>
                        </g>
                        <g id="Group_4082" transform="translate(90.535 55.058)">
                            <g id="Group_4081">
                                <path id="Path_10318" d="M173.737 390.346a11.789 11.789 0 0 1-.67-1.723c-.191-.562-.434-1.246-.766-2.02s-.651-1.679-1.122-2.63c-.44-.964-.928-2.015-1.534-3.1-.557-1.114-1.263-2.242-1.978-3.444a56.256 56.256 0 0 0-11.953-13.629c-1.1-.866-2.125-1.714-3.158-2.411-1-.742-1.98-1.363-2.878-1.926-.88-.59-1.733-1.03-2.461-1.454s-1.371-.761-1.9-1.022a11.845 11.845 0 0 1-1.622-.889 11.693 11.693 0 0 1 1.716.694 21.561 21.561 0 0 1 1.956.943c.747.4 1.618.818 2.519 1.392.918.545 1.918 1.152 2.938 1.884 1.053.687 2.1 1.528 3.218 2.391a53.625 53.625 0 0 1 12.058 13.753c.711 1.22 1.408 2.367 1.953 3.5.593 1.107 1.064 2.177 1.485 3.158.451.968.753 1.887 1.052 2.679a21.467 21.467 0 0 1 .68 2.062 11.7 11.7 0 0 1 .467 1.792z" class="cls-11" transform="translate(-143.693 -356.094)"/>
                            </g>
                        </g>
                        <g id="Group_4084" transform="translate(105.875 43.669)">
                            <g id="Group_4083">
                                <path id="Path_10319" d="M187.992 390.7a2.143 2.143 0 0 1-.328-.468c-.191-.32-.5-.78-.832-1.409a39.412 39.412 0 0 1-2.373-5.529c-.849-2.4-1.663-5.308-2.628-8.509a45.2 45.2 0 0 0-4.106-9.99 26.132 26.132 0 0 0-7.308-7.835c-2.693-1.962-5.283-3.542-7.258-5.16a18.463 18.463 0 0 1-4.127-4.385 10.846 10.846 0 0 1-.772-1.449 2.141 2.141 0 0 1-.2-.533c.059-.029.359.7 1.157 1.861a19.634 19.634 0 0 0 4.19 4.2c1.982 1.559 4.577 3.095 7.317 5.054a26.17 26.17 0 0 1 7.483 7.963 44.175 44.175 0 0 1 4.119 10.129c.941 3.22 1.713 6.132 2.51 8.53a46.641 46.641 0 0 0 2.193 5.557 21.673 21.673 0 0 1 .963 1.973z" class="cls-11" transform="translate(-158.053 -345.432)"/>
                            </g>
                        </g>
                        <g id="Group_4086" transform="translate(117.183 38.382)">
                            <g id="Group_4085">
                                <path id="Path_10320" d="M198.23 383.993a2.05 2.05 0 0 1-.165-.53c-.1-.412-.219-.92-.364-1.535-.143-.67-.331-1.485-.608-2.417s-.521-2.012-.932-3.164c-.375-1.163-.793-2.435-1.339-3.765-.487-1.352-1.141-2.742-1.8-4.217a66.241 66.241 0 0 0-11.766-17.3c-1.13-1.153-2.184-2.271-3.261-3.221-1.037-1-2.066-1.851-3.009-2.628-.922-.805-1.831-1.438-2.6-2.03s-1.456-1.074-2.025-1.453l-1.294-.9a2.147 2.147 0 0 1-.433-.347 1.988 1.988 0 0 1 .491.252l1.355.817c.59.353 1.3.8 2.087 1.381s1.722 1.185 2.664 1.975c.966.762 2.017 1.606 3.074 2.594 1.1.942 2.173 2.057 3.323 3.209a63.529 63.529 0 0 1 11.858 17.435c.648 1.492 1.29 2.9 1.763 4.269.53 1.347.929 2.634 1.283 3.813.389 1.168.617 2.258.858 3.2s.406 1.771.517 2.449l.263 1.56a2.149 2.149 0 0 1 .06.553z" class="cls-11" transform="translate(-168.639 -340.483)"/>
                            </g>
                        </g>
                        <g id="Group_4088" transform="translate(81.799 40.382)">
                            <g id="Group_4087">
                                <path id="Path_10321" d="M143.253 342.39c.015.091-.754.208-1.877.693a9 9 0 0 0-5.458 7.208c-.162 1.211-.066 1.984-.158 1.994a4.1 4.1 0 0 1-.234-2.032 8.487 8.487 0 0 1 5.708-7.538 4.089 4.089 0 0 1 2.019-.325z" class="cls-11" transform="translate(-135.515 -342.356)"/>
                            </g>
                        </g>
                        <g id="Group_4090" transform="translate(93.589 30.112)">
                            <g id="Group_4089">
                                <path id="Path_10322" d="M153.334 332.753c.09.143-1.8 1.337-3.657 3.319-1.877 1.966-2.965 3.915-3.114 3.834a13.5 13.5 0 0 1 6.771-7.153z" class="cls-11" transform="translate(-146.552 -332.742)"/>
                            </g>
                        </g>
                    </g>
                </g>
                <g id="Group_4105" transform="translate(238.367 77.068)">
                    <g id="Group_4103" transform="translate(12.013)">
                        <g id="Group_4098">
                            <g id="Group_4094" transform="translate(.248 .328)">
                                <g id="Group_4093">
                                    <path id="Path_10323" d="M295.751 215.865c-1.848.763-2.222 2.97-2.193 4.97.036 2.5.668 2.909 2.709 7.1 3.338 6.85 7.331 19.834 7.331 19.834s-3.274 32.8-1.118 40.495a13.015 13.015 0 0 0 8.512 8.729L308 322.322h35.775s-1.273-24.517-2.041-31.99c-.812-7.9-.27-55.712-.27-55.712l-3.516-25.527-8.285-14.327a6.459 6.459 0 0 0-2.443 7.844c1.868 5.252 3.1 15.323 3.1 15.323l-20.71-31.177s-4.071.974-4.316 8.509c0 0-6.025 3.921-2.149 10.283 4.329 7.106 8.829 28.453 7.248 28.453l-12.853-18.876z" class="cls-10" transform="translate(-293.557 -186.756)"/>
                                </g>
                            </g>
                            <g id="Group_4097">
                                <g id="Group_4096">
                                    <g id="Group_4095">
                                        <path id="Path_10324" d="M308.019 322.343s.043-.57.16-1.678.307-2.763.544-4.905l2.148-18.764.1.15a13.43 13.43 0 0 1-4.556-2.527 12.347 12.347 0 0 1-3.421-4.51 17.35 17.35 0 0 1-1.255-5.973q-.184-3.153-.152-6.516c.1-8.961.793-18.975 1.8-29.852l.009.088c-1.675-5.275-3.53-10.842-5.856-16.48-.588-1.408-1.215-2.81-1.919-4.2a35.114 35.114 0 0 1-2.044-4.3 8.583 8.583 0 0 1-.256-2.443 8.469 8.469 0 0 1 .355-2.454 3.668 3.668 0 0 1 1.5-2.067 7.8 7.8 0 0 1 1.147-.531l1.135-.47.191-.08.118.172 13.41 19.674-.483.1a21.3 21.3 0 0 0-.065-4.942 45.4 45.4 0 0 0-.856-5 77.63 77.63 0 0 0-2.992-9.921c-1.178-3.306-2.662-6.5-4.105-9.8a8.816 8.816 0 0 1-.579-5.441 8.043 8.043 0 0 1 3.059-4.611l-.122.2a19.773 19.773 0 0 1 1.142-4.817 9.627 9.627 0 0 1 1.253-2.272 4.468 4.468 0 0 1 2.139-1.658l.174-.057.115.174.24.361 20.47 30.807-.5.184a112.418 112.418 0 0 0-2.186-12.214c-.249-.987-.526-1.962-.851-2.913a8.485 8.485 0 0 1-.515-3.076 6.705 6.705 0 0 1 3.029-5.223l.223-.15.14.244 8.278 14.332.025.043.007.05q1.833 13.394 3.5 25.529v.035c-.148 13.222-.228 25.321-.21 36.028.013 5.353.041 10.36.166 14.982.065 2.314.194 4.511.409 6.627.176 2.113.309 4.129.438 6.042.494 7.651.8 13.657 1.007 17.748.1 2.036.169 3.6.219 4.669s.049 1.6.049 1.6-.053-.543-.121-1.6-.163-2.631-.288-4.666c-.254-4.088-.6-10.091-1.136-17.737-.14-1.911-.281-3.926-.467-6.035-.223-2.1-.364-4.333-.439-6.643-.143-4.628-.188-9.636-.217-14.991-.051-10.71 0-22.809.122-36.035v.034l-3.536-25.524.032.092-8.294-14.322.364.093a6.189 6.189 0 0 0-2.768 4.8 7.957 7.957 0 0 0 .488 2.875c.334.972.615 1.96.867 2.958a112.979 112.979 0 0 1 2.206 12.28l.155 1.167-.653-.983-20.479-30.813-.239-.36.289.118a4.057 4.057 0 0 0-1.815 1.453 9.151 9.151 0 0 0-1.177 2.14 19.3 19.3 0 0 0-1.107 4.677l-.015.119-.107.08a7.515 7.515 0 0 0-2.828 4.275 8.269 8.269 0 0 0 .551 5.105c1.424 3.259 2.93 6.51 4.107 9.823a78.111 78.111 0 0 1 3.008 9.994 45.8 45.8 0 0 1 .861 5.06 21.513 21.513 0 0 1 .055 5.1l-.09.678-.394-.58-13.39-19.687.308.092c-.731.324-1.574.6-2.206.958a3.164 3.164 0 0 0-1.288 1.795 8 8 0 0 0-.333 2.305 8.112 8.112 0 0 0 .234 2.3 35.332 35.332 0 0 0 2 4.217c.705 1.4 1.339 2.816 1.926 4.23 2.329 5.671 4.172 11.241 5.84 16.535l.013.042v.047c-1.032 10.861-1.751 20.873-1.878 29.811q-.046 3.351.129 6.489a17.017 17.017 0 0 0 1.2 5.866 12.862 12.862 0 0 0 7.751 6.9l.114.037-.013.111-2.279 18.749-.614 4.9c-.141 1.123-.225 1.677-.225 1.677z" class="cls-11" transform="translate(-293.324 -186.449)"/>
                                    </g>
                                </g>
                            </g>
                        </g>
                        <g id="Group_4100" transform="translate(11.984 8.836)">
                            <g id="Group_4099">
                                <path id="Path_10325" d="M323.063 236.2a11.239 11.239 0 0 1-.388-1.768c-.2-1.145-.544-2.79-1-4.813a80.115 80.115 0 0 0-5.289-15.283 102.627 102.627 0 0 0-8.057-14.051c-1.158-1.724-2.121-3.1-2.79-4.054a11.093 11.093 0 0 1-.991-1.514 11.339 11.339 0 0 1 1.165 1.386c.724.911 1.737 2.258 2.94 3.959a90.171 90.171 0 0 1 8.238 14.039 72.532 72.532 0 0 1 5.167 15.431c.413 2.045.705 3.707.835 4.865a11.21 11.21 0 0 1 .17 1.803z" class="cls-11" transform="translate(-304.542 -194.72)"/>
                            </g>
                        </g>
                        <g id="Group_4102" transform="translate(36.884 31.04)">
                            <g id="Group_4101">
                                <path id="Path_10326" d="M332.583 226.823a34.127 34.127 0 0 1-2.615-5.551 34.1 34.1 0 0 1-2.1-5.765 33.916 33.916 0 0 1 2.616 5.551 33.959 33.959 0 0 1 2.099 5.765z" class="cls-11" transform="translate(-327.852 -215.506)"/>
                            </g>
                        </g>
                    </g>
                    <g id="Group_4104" transform="translate(0 121.024)">
                        <path id="Path_10327" d="M305.929 304.123c-6.275 55.414-14.453 114.4-23.85 175.687H354.9c13.691-30.317 5.319-56.768 1.667-94.47l-12.008-85.6z" class="cls-6" transform="translate(-282.079 -299.74)"/>
                    </g>
                </g>
                <g id="Group_4107" transform="translate(238.363 239.729)">
                    <g id="Group_4106">
                        <path id="Path_10328" d="M282.079 477.15a1.7 1.7 0 0 1 .026-.361l.13-1.051.553-4.035c.514-3.535 1.247-8.59 2.15-14.821l7.184-48.88c2.747-19.1 5.069-36.416 6.6-48.967.778-6.274 1.367-11.356 1.766-14.868.2-1.728.361-3.084.474-4.043l.137-1.051a1.716 1.716 0 0 1 .066-.356 1.944 1.944 0 0 1-.01.362l-.082 1.055-.37 4.055c-.333 3.521-.863 8.61-1.591 14.893-1.431 12.566-3.693 29.894-6.439 49s-5.405 36.365-7.346 48.86L283 471.734c-.281 1.719-.5 3.066-.658 4.019l-.185 1.044a1.8 1.8 0 0 1-.078.353z" class="cls-7" transform="translate(-282.075 -338.716)"/>
                    </g>
                </g>
            </g>
            <g id="Device" transform="translate(165.289 342.175)">
                <g id="Group_4118">
                    <g id="Group_4112" transform="translate(0 .083)">
                        <g id="Group_4109" transform="translate(78.766)">
                            <g id="Group_4108">
                                <path id="Path_10329" d="M443.051 477.733H235.387l26.8-145.744a10.894 10.894 0 0 1 10.714-8.923h186.59a10.894 10.894 0 0 1 10.7 12.942z" class="cls-12" transform="translate(-235.387 -323.066)"/>
                            </g>
                        </g>
                        <g id="Group_4111" transform="translate(0 144.275)">
                            <g id="Group_4110">
                                <path id="Path_10330" d="M240.42 468.514h-78.766l.317-.237a42.584 42.584 0 0 1 24.287-8.5l56.327-1.656z" class="cls-12" transform="translate(-161.654 -458.122)"/>
                            </g>
                        </g>
                    </g>
                    <g id="Group_4115" transform="translate(86.29)">
                        <g id="Group_4114">
                            <g id="Group_4113">
                                <path id="Path_10331" d="M284.785 323.27c-.01.053-.579-.107-1.68-.114a10.319 10.319 0 0 0-4.613 1.144 14.205 14.205 0 0 0-5.534 5.036 26.74 26.74 0 0 0-3.392 9.421c-.678 3.686-1.274 7.779-2.009 12.145-.752 4.366-1.552 9.031-2.471 13.927-1.809 9.795-3.953 20.534-6.284 31.788-4.691 22.509-9.03 42.859-11.868 57.649-1.428 7.393-2.53 13.386-3.276 17.531l-.867 4.771c-.1.509-.182.917-.246 1.238a1.766 1.766 0 0 1-.11.418 1.814 1.814 0 0 1 .032-.43l.169-1.25.725-4.8c.655-4.162 1.674-10.173 3.035-17.582 2.7-14.824 6.959-35.2 11.647-57.7 2.33-11.252 4.5-21.98 6.341-31.763.937-4.888 1.76-9.546 2.538-13.9s1.387-8.43 2.107-12.145a26.931 26.931 0 0 1 3.565-9.549 14.374 14.374 0 0 1 5.768-5.072 10.116 10.116 0 0 1 4.746-1.033 6.113 6.113 0 0 1 1.677.27z" class="cls-7" transform="translate(-242.43 -322.989)"/>
                            </g>
                        </g>
                    </g>
                    <g id="Group_4117" transform="translate(196.266 64.096)">
                        <g id="Group_4116">
                            <path id="Path_10332" d="M365.459 393.03a10.04 10.04 0 1 1-10.039-10.041 10.04 10.04 0 0 1 10.039 10.041z" class="cls-5" transform="translate(-345.379 -382.989)"/>
                        </g>
                    </g>
                </g>
            </g>
            <g id="Desk" transform="translate(-46.93 496.814)">
                <g id="Group_4120">
                    <g id="Group_4119">
                        <path id="Path_10333" d="M631.432 468.026c0 .154-136.8.278-305.511.278-168.771 0-305.541-.124-305.541-.278s136.771-.279 305.541-.279c168.712 0 305.511.125 305.511.279z" class="cls-7" transform="translate(-20.38 -467.747)"/>
                    </g>
                </g>
            </g>
            <g id="Lighting_bolts" transform="translate(174.031 69.878)">
                <g id="Group_4123">
                    <g id="Group_4121" transform="translate(10.921)">
                        <path id="Path_10334" d="M208.386 112.655l-2.852-26.825-13.684 3.089-11.788-20.828 7.346 28.161 13.879-3.182z" class="cls-6" transform="translate(-180.062 -68.091)"/>
                    </g>
                    <g id="Group_4122" transform="translate(0 36.547)">
                        <path id="Path_10335" d="M203.514 115.39L190.8 102.3l-5.993 7.355-14.968-6.164 15.661 11.925 6.059-7.487z" class="cls-6" transform="translate(-169.838 -102.303)"/>
                    </g>
                </g>
                <g id="Group_4126" transform="translate(171.098 34.377)">
                    <g id="Group_4124">
                        <path id="Path_10336" d="M330 127.1l11.554-21.024 10.163 7.234 16.825-13.035-15.7 20.576-10.292-7.378z" class="cls-6" transform="translate(-330.004 -100.272)"/>
                    </g>
                    <g id="Group_4125" transform="translate(21.205 33.722)">
                        <path id="Path_10337" d="M349.854 136.936l11.948-5.1 1.913 6.478 11.524.068-13.564 3.521-1.92-6.583z" class="cls-6" transform="translate(-349.854 -131.84)"/>
                    </g>
                </g>
            </g>
            <g id="Line" transform="translate(248.897 53.117)">
                <g id="Group_4128">
                    <g id="Group_4127">
                        <path id="Path_10338" d="M274.438 60.679s.481-.307 1.437-.888a40.338 40.338 0 0 1 4.455-2.234 43.247 43.247 0 0 1 18.9-3.484c1.057.05 2.146.115 3.256.266a20.883 20.883 0 0 1 3.4.62 14.126 14.126 0 0 1 3.369 1.371A7.432 7.432 0 0 1 312 58.971a5.721 5.721 0 0 1 .661 3.913 7.835 7.835 0 0 1-1.977 3.659 18.227 18.227 0 0 1-7.506 4.544 46.844 46.844 0 0 1-19.307 2.763 47.2 47.2 0 0 1-21.042-6.457l-.152-.091.093-.152a29.024 29.024 0 0 1 11.092-10.187 38.751 38.751 0 0 1 15.45-4.425 59.489 59.489 0 0 1 16.983 1.373c2.858.614 5.719 1.373 8.579 2.257a48.841 48.841 0 0 1 8.5 3.253 16.5 16.5 0 0 1 6.846 6.264 11.386 11.386 0 0 1 1.488 4.539 9.67 9.67 0 0 1-.785 4.764c-1.337 3.031-4.067 5.181-6.944 6.709a38.309 38.309 0 0 1-9.356 3.281 97.7 97.7 0 0 1-41.17 1.048c-.884-.145-1.754-.358-2.633-.539s-1.754-.387-2.627-.613a34.083 34.083 0 0 1-5.2-1.6 17.2 17.2 0 0 1-4.755-2.787 8.149 8.149 0 0 1-2.874-4.751 7.552 7.552 0 0 1 1.194-5.456 14.947 14.947 0 0 1 3.982-3.98 30.866 30.866 0 0 1 4.928-2.759c.841-.427 1.71-.795 2.582-1.161s1.742-.737 2.638-1.052a67.791 67.791 0 0 1 34.23-3.452c.973.144 1.944.308 2.907.526.967.2 1.936.392 2.89.659a33.916 33.916 0 0 1 5.675 1.834 19.147 19.147 0 0 1 5.13 3.148 10.007 10.007 0 0 1 3.234 5.121l.156.758.063.773a8.839 8.839 0 0 1-.033 1.549 9.422 9.422 0 0 1-.9 2.956 14.666 14.666 0 0 1-3.865 4.743 26.79 26.79 0 0 1-5.124 3.36c-.907.479-1.848.889-2.786 1.287s-1.883.794-2.839 1.161a83.622 83.622 0 0 1-11.785 3.621 86.214 86.214 0 0 1-24.823 2.048 28.986 28.986 0 0 1-12.208-3.21 13.3 13.3 0 0 1-4.772-4.274A10.292 10.292 0 0 1 254.3 77.7a11.222 11.222 0 0 1 1.736-5 18.174 18.174 0 0 1 3.432-3.985 31.419 31.419 0 0 1 8.9-5.356 63.2 63.2 0 0 1 30.106-4.733c1.686.148 3.363.361 5.024.652a28.111 28.111 0 0 1 4.924 1.187 17.677 17.677 0 0 1 4.534 2.265 9.13 9.13 0 0 1 3.267 3.877 7.051 7.051 0 0 1 .163 5.045 9.865 9.865 0 0 1-2.831 4.159c-2.561 2.265-5.877 3.211-9.024 3.979-3.178.754-6.337 1.5-9.5 2.2a139.407 139.407 0 0 1-18.989 3.073 68.073 68.073 0 0 1-18.817-.908 46.058 46.058 0 0 1-17.033-6.945l-.275-.188.25-.22A59.485 59.485 0 0 1 270.9 62.857a58.559 58.559 0 0 1 31.869 4.114 15.418 15.418 0 0 1 3.334 2.172 7.716 7.716 0 0 1 2.311 3.236 5.556 5.556 0 0 1-.187 3.949 8.012 8.012 0 0 1-2.522 3 23.483 23.483 0 0 1-6.92 3.23 49.172 49.172 0 0 1-7.3 1.735 47.458 47.458 0 0 1-14.6.005 7.191 7.191 0 0 1-3.372-1.364 3.537 3.537 0 0 1-1.232-3.367 6.121 6.121 0 0 1 1.87-3.05 12.07 12.07 0 0 1 2.883-2.019 50.353 50.353 0 0 1 26.03-4.08 23.186 23.186 0 0 1 6.161 1.418 11.133 11.133 0 0 1 4.957 3.666 8.256 8.256 0 0 1 1.7 5.748 7.9 7.9 0 0 1-2.99 5.015 30.009 30.009 0 0 1-4.8 3.13 46.875 46.875 0 0 1-5.038 2.36A48.489 48.489 0 0 1 292.8 94.59a47.437 47.437 0 0 1-19.22-.836l-.2-.05.12-.165a23.058 23.058 0 0 1 10.689-7.98 22.682 22.682 0 0 1 11.669-1.148 11.955 11.955 0 0 1 4.93 1.849 6.584 6.584 0 0 1 1.746 1.781 5.3 5.3 0 0 1 .786 2.252 6.4 6.4 0 0 1-1.173 4.206 11.591 11.591 0 0 1-2.755 2.852 23.7 23.7 0 0 1-5.909 2.87 32.089 32.089 0 0 0-4.329 1.925 12.1 12.1 0 0 0-2.323 1.681c-.242.21-.4.4-.513.512l-.173.171a9.128 9.128 0 0 1 .66-.71 11.672 11.672 0 0 1 2.312-1.718 31.532 31.532 0 0 1 4.325-1.965 23.627 23.627 0 0 0 5.862-2.883 11.424 11.424 0 0 0 2.706-2.826 6.229 6.229 0 0 0 1.131-4.1 5.115 5.115 0 0 0-.766-2.171 6.379 6.379 0 0 0-1.7-1.721 11.758 11.758 0 0 0-4.854-1.8 22.452 22.452 0 0 0-11.547 1.169 22.807 22.807 0 0 0-10.55 7.91l-.078-.215a47.194 47.194 0 0 0 19.1.793 48.247 48.247 0 0 0 10.179-2.834 46.529 46.529 0 0 0 5-2.351 29.714 29.714 0 0 0 4.73-3.1 7.548 7.548 0 0 0 2.861-4.789 7.894 7.894 0 0 0-1.64-5.486 10.758 10.758 0 0 0-4.8-3.535 22.869 22.869 0 0 0-6.06-1.384 50 50 0 0 0-25.8 4.07 11.631 11.631 0 0 0-2.779 1.949 5.717 5.717 0 0 0-1.744 2.826A3.105 3.105 0 0 0 273.8 82.6a6.779 6.779 0 0 0 3.171 1.265 47.011 47.011 0 0 0 14.448-.021 48.748 48.748 0 0 0 7.229-1.724 23.054 23.054 0 0 0 6.78-3.164 7.564 7.564 0 0 0 2.376-2.818 5.08 5.08 0 0 0 .168-3.61 7.247 7.247 0 0 0-2.176-3.031 15.009 15.009 0 0 0-3.234-2.1 58.107 58.107 0 0 0-31.586-4.048 58.993 58.993 0 0 0-30.462 13.841l-.026-.408a45.57 45.57 0 0 0 16.842 6.856 67.618 67.618 0 0 0 18.67.891 138.929 138.929 0 0 0 18.914-3.068c3.155-.7 6.316-1.447 9.487-2.2 3.132-.761 6.36-1.7 8.786-3.857a9.31 9.31 0 0 0 2.677-3.926 6.507 6.507 0 0 0-.151-4.661 8.594 8.594 0 0 0-3.08-3.641 17.153 17.153 0 0 0-4.395-2.191 27.537 27.537 0 0 0-4.836-1.163c-1.646-.287-3.308-.5-4.979-.644a62.637 62.637 0 0 0-29.841 4.694 30.89 30.89 0 0 0-8.75 5.26c-2.524 2.239-4.7 5.2-4.983 8.617a9.732 9.732 0 0 0 1.454 5.889 12.754 12.754 0 0 0 4.574 4.089 28.446 28.446 0 0 0 11.972 3.141 85.694 85.694 0 0 0 24.664-2.032 83.161 83.161 0 0 0 11.71-3.6c.95-.365 1.892-.744 2.82-1.154s1.861-.8 2.752-1.27a26.249 26.249 0 0 0 5.023-3.29 14.156 14.156 0 0 0 3.727-4.561 8.9 8.9 0 0 0 .845-2.784 8.243 8.243 0 0 0 .031-1.452l-.053-.725-.147-.711a9.453 9.453 0 0 0-3.065-4.841 18.575 18.575 0 0 0-4.983-3.058 33.374 33.374 0 0 0-5.591-1.807c-.945-.265-1.907-.456-2.865-.654-.955-.217-1.918-.379-2.883-.523a67.256 67.256 0 0 0-33.962 3.412c-.889.312-1.758.664-2.617 1.043-.865.362-1.727.727-2.562 1.151a30.471 30.471 0 0 0-4.852 2.711 14.477 14.477 0 0 0-3.853 3.839 7.042 7.042 0 0 0-1.124 5.091 7.644 7.644 0 0 0 2.7 4.452 16.724 16.724 0 0 0 4.613 2.7 33.62 33.62 0 0 0 5.134 1.576c.867.226 1.738.434 2.613.611s1.74.394 2.618.539a97.238 97.238 0 0 0 40.965-1.015 37.859 37.859 0 0 0 9.251-3.231c2.83-1.5 5.471-3.595 6.744-6.482a9.209 9.209 0 0 0 .754-4.539 10.951 10.951 0 0 0-1.427-4.362 16.05 16.05 0 0 0-6.664-6.1 48.459 48.459 0 0 0-8.418-3.231c-2.849-.885-5.7-1.643-8.541-2.256a59.1 59.1 0 0 0-16.866-1.387 38.4 38.4 0 0 0-15.3 4.36 28.673 28.673 0 0 0-10.97 10.042l-.059-.242a46.885 46.885 0 0 0 20.88 6.445 46.6 46.6 0 0 0 19.191-2.707 17.965 17.965 0 0 0 7.414-4.458 7.589 7.589 0 0 0 1.925-3.535 5.478 5.478 0 0 0-.624-3.75 7.2 7.2 0 0 0-2.658-2.565 13.9 13.9 0 0 0-3.313-1.359 20.821 20.821 0 0 0-3.365-.625c-1.1-.154-2.188-.221-3.24-.276a43.433 43.433 0 0 0-18.853 3.384 42.415 42.415 0 0 0-4.469 2.187c-.964.571-1.461.85-1.461.85z" class="cls-7" transform="translate(-239.92 -52.401)"/>
                    </g>
                </g>
            </g>
        </g>
    </g>
</svg>
