<svg xmlns="http://www.w3.org/2000/svg" xmlns:xlink="http://www.w3.org/1999/xlink" width="667.004" height="722" viewBox="0 0 667.004 722">
    <defs>
        <linearGradient id="linear-gradient" x2="1" y1=".5" y2=".5" gradientUnits="objectBoundingBox">
            <stop offset="0" stop-color="#db843a"/>
            <stop offset="1" stop-color="#e4c04c"/>
        </linearGradient>
        <linearGradient id="linear-gradient-2" x1="-.136" x2="1.119" y1="1.27" y2="-.211" gradientUnits="objectBoundingBox">
            <stop offset="0" stop-color="#aa4966"/>
            <stop offset="1" stop-color="#dc3b57"/>
        </linearGradient>
        <linearGradient id="linear-gradient-3" x1="1.282" x2="-.617" y1=".118" y2="1.05" gradientUnits="objectBoundingBox">
            <stop offset="0" stop-color="#eebe63"/>
            <stop offset="1" stop-color="#dc3b57"/>
        </linearGradient>
        <linearGradient id="linear-gradient-4" x2="1" y1=".5" y2=".5" gradientUnits="objectBoundingBox">
            <stop offset="0" stop-color="#e59148"/>
            <stop offset="1" stop-color="#f1cc52"/>
        </linearGradient>
        <linearGradient id="linear-gradient-13" x1="3.548" x2="4.553" y1="-44.321" y2="-44.321" xlink:href="#linear-gradient-4"/>
        <style>
            .cls-9{fill:url(#linear-gradient)}.cls-3{fill:#df635a}.cls-28{isolation:isolate}.cls-7{fill:#f7e5c1}.cls-8{fill:url(#linear-gradient-4)}.cls-11{fill:#fafafa}.cls-12{fill:#757ac2}.cls-14{fill:#bdbdbd}.cls-15{fill:#565a8d}.cls-16{fill:#dba585}.cls-18{fill:#363957}.cls-19{fill:#dba686}.cls-20{fill:#1f2531}.cls-21{fill:#4a5c82}.cls-22{fill:#6783ca}.cls-23{fill:#474442}.cls-24{fill:#997761}.cls-25{fill:#e7b96b}.cls-26{fill:#e09637}.cls-27{fill:#eac483}.cls-28{fill:#f7f7f7;mix-blend-mode:soft-light}.cls-31{fill:#2c3d54}.cls-33{fill:#dcac92}.cls-35{fill:#e8b79a}.cls-36{fill:#3a5271}.cls-37{fill:#20313f}.cls-38{fill:#c99a7d}.cls-39{fill:#a84848}
        </style>
    </defs>
    <g id="Group_4242" transform="translate(-292.996 -2429.095)">
        <rect id="_7720fde9d8a09a506bea451e56d4fcdb" width="560" height="722" fill="url(#linear-gradient)" opacity="0.5" rx="15" transform="translate(348 2429.095)"/>
        <g id="Group_3722" transform="translate(-595.708 1412.216)">
            <g id="Group_3721" transform="translate(888.704 1157.286)">
                <path id="Path_10156" fill="url(#linear-gradient-2)" d="M1401.323 1450.608v16.97h29.5l-82.158 82.159-46.649-46.65-92.455 92.455-60.687-60.687-22.1 22.1-34.116-34.118-68.65 68.649-20.4-20.4H982.2l-93.5 93.497 10.505 10.5 89.144-89.144h9.1l26.556 26.557 68.65-68.649 34.116 34.118 22.1-22.1 60.687 60.687 92.455-92.455 46.649 46.65 92.663-92.665v29.5h16.975v-56.979z" transform="translate(-888.704 -1341.124)"/>
                <g id="Group_3508" transform="translate(368.141)">
                    <path id="Path_10157" d="M1882.181 1170.461a7.532 7.532 0 0 1-2.825-.522 7.243 7.243 0 0 1-2.261-1.412 6.785 6.785 0 0 1-1.522-2.088 6.155 6.155 0 0 1 0-5.152 6.481 6.481 0 0 1 1.522-2.088 7.467 7.467 0 0 1 2.261-1.391 7.866 7.866 0 0 1 5.631 0 7.368 7.368 0 0 1 2.282 1.391 6.5 6.5 0 0 1 1.523 2.088 6.157 6.157 0 0 1 0 5.152 6.811 6.811 0 0 1-1.523 2.088 7.151 7.151 0 0 1-2.282 1.412 7.582 7.582 0 0 1-2.806.522zm-4.738 16.088l12.261-14.3 11.305-14.87 2.653 2.347-11.87 14.044-11.7 15.132zm4.738-19a2.423 2.423 0 0 0 1.2-.3 3.652 3.652 0 0 0 1.652-1.978 4.224 4.224 0 0 0 .24-1.414 3.843 3.843 0 0 0-.914-2.587 2.779 2.779 0 0 0-2.175-1.065 2.408 2.408 0 0 0-1.194.3 3.7 3.7 0 0 0-1.652 1.956 3.984 3.984 0 0 0-.239 1.391 3.922 3.922 0 0 0 .912 2.609 2.757 2.757 0 0 0 2.17 1.087zm16.784 21.48a7.517 7.517 0 0 1-2.824-.522 7.406 7.406 0 0 1-2.263-1.392 6.549 6.549 0 0 1-1.521-2.065 6.2 6.2 0 0 1 0-5.174 6.812 6.812 0 0 1 1.521-2.087 7.211 7.211 0 0 1 2.263-1.413 7.655 7.655 0 0 1 7.934 1.413 6.349 6.349 0 0 1 1.522 2.087 6.42 6.42 0 0 1 0 5.174 6.117 6.117 0 0 1-1.522 2.065 7.706 7.706 0 0 1-2.283 1.392 7.531 7.531 0 0 1-2.827.52zm0-2.914a2.41 2.41 0 0 0 1.2-.3 3.7 3.7 0 0 0 1.652-1.958 4.193 4.193 0 0 0-.022-2.847 4.233 4.233 0 0 0-.674-1.174 3.033 3.033 0 0 0-.979-.783 2.6 2.6 0 0 0-1.174-.282 2.413 2.413 0 0 0-1.2.3 3.737 3.737 0 0 0-.979.8 3.613 3.613 0 0 0-.673 1.174 4.194 4.194 0 0 0-.239 1.413 3.837 3.837 0 0 0 .912 2.587 2.776 2.776 0 0 0 2.176 1.069z" class="cls-3" transform="translate(-1875.008 -1157.286)"/>
                </g>
                <path id="Path_10158" fill="url(#linear-gradient-3)" d="M1462.646 1358.333l33.913-65.313s2.011-15.795-14.478-15.795-19.607 15.795-28.967 15.795-6.684-15.795-21.392-15.795-18.269 15.795-32.976 15.795-5.349-15.795-23.621-15.795a23.93 23.93 0 0 0-23.172 15.795l33.912 65.313c-64.607 17.88-112.261 79.816-112.261 153.476 0 87.634 63.81 119.327 147.014 119.327 40.03 0 77.252-7.336 105.107-24.711 30.038-18.736 49.177-49.146 49.177-94.616.004-73.66-47.648-135.596-112.256-153.476z" transform="translate(-1129.94 -1232.458)"/>
                <g id="Group_3510" transform="translate(229.411 163.746)">
                    <g id="Group_3509">
                        <path id="Path_10159" fill="#bb5b3b" d="M1610.051 1653.075a32.815 32.815 0 0 0-5.854-4.3 82.806 82.806 0 0 0-19.7-8.407 71.349 71.349 0 0 0-12.086-2.36l.2 42.506c1.678.336 2.516.5 4.2.829 7.287 1.665 14.513 3.5 21.667 5.65a68 68 0 0 1 16.586 7.274 33.59 33.59 0 0 1 10.877 10.631 33.119 33.119 0 0 1 4.49 15.726c.309 5.974-.551 12.524-3.51 18.084a40.191 40.191 0 0 1-11.65 13.373 64.207 64.207 0 0 1-17.987 8.985 107.12 107.12 0 0 1-22.368 4.329q.067 10.76.139 21.522-6.207.484-12.418.928.025-11.071.054-22.141a119.233 119.233 0 0 1-32.086-4.663 92.283 92.283 0 0 1-27.272-13.7q6.335-10.279 12.605-20.6a37.515 37.515 0 0 0 7.139 5.6 68.89 68.89 0 0 0 11.113 5.667 101.4 101.4 0 0 0 14.11 4.563 84.55 84.55 0 0 0 16.063 2.375q.027-21.394.056-42.784-1.344-.4-2.8-.708t-2.8-.717a152.619 152.619 0 0 1-20.593-6.348 52.77 52.77 0 0 1-14.345-8.358 31.379 31.379 0 0 1-8.321-11.411c-2.122-4.9-2.531-10.461-2.33-15.553.243-6.22 1.443-12.822 4.4-18.443a40.9 40.9 0 0 1 10.688-13.184 48.082 48.082 0 0 1 15.505-7.87c6.143-1.945 12.753-2.471 19.253-2.678q.029-10.455.061-20.908 5.358.462 10.723.873l.127 20.714a100.494 100.494 0 0 1 25.345 6.407 121.628 121.628 0 0 1 20.94 10.923q-5.078 9.106-10.221 18.174zm-71.345 3.627c-.119 5.055 1.883 10.465 6.168 13.533 5.8 4.15 12.8 6.26 19.578 8.157l.062-40.725c-6.627.187-13.854.677-19.287 4.942-4.247 3.335-6.399 8.885-6.521 14.091zm64.484 68.065a15.132 15.132 0 0 0-8.278-12.99c-6.9-3.47-14.618-5.717-22.186-7.646l.2 40.649c7.818-.639 15.989-1.92 22.686-6.1a16.1 16.1 0 0 0 7.578-13.913z" transform="translate(-1503.33 -1595.987)"/>
                    </g>
                </g>
                <path id="Path_10160" d="M1525.727 1606.425c-27.855 17.374-65.077 24.711-105.107 24.711-83.2 0-147.014-31.693-147.014-119.327 0-73.66 47.654-135.6 112.261-153.476l-33.912-65.313a23.93 23.93 0 0 1 23.172-15.795c18.271 0 8.913 15.795 23.621 15.795a89.705 89.705 0 0 1 9.257 18.971c3.936 10.97 7.038 25.733 4.213 41.646a69.128 69.128 0 0 1-2.234 9.005c-1.949 6.077-3.925 17.453-5.212 32.1-6.436 73.279 4.297 228.443 120.955 211.683z" transform="translate(-1129.94 -1232.458)" style="isolation:isolate;mix-blend-mode:multiply" fill="#c59954" opacity="0.24"/>
                <g id="Group_3511" transform="translate(252.264 116.247)">
                    <path id="Path_10161" d="M1605.7 1484.708c-10.529 0-26.125-1.138-41.145-6.008l.963-5.542c55.992 10.309 84.269-4.283 84.477-4.43l.49 6.478c-.685.494-14.39 9.502-44.785 9.502z" class="cls-7" transform="translate(-1564.558 -1468.728)"/>
                </g>
                <g id="Group_3512" transform="translate(252.493 106.725)">
                    <path id="Path_10162" d="M1582.707 1463.557c-5.619 0-11.479-.249-17.536-.826l.564-5.916a186.969 186.969 0 0 0 61.933-4.674 215.732 215.732 0 0 0 27.659-8.923l-3.909 7.53c-.395.19-6.333 3.177-22.137 7.115a194.544 194.544 0 0 1-46.574 5.694z" class="cls-7" transform="translate(-1565.171 -1443.218)"/>
                </g>
                <path id="Path_10163" d="M1795.988 1450.725s6.136-2.133 3.728-7.624c0-.001-5.303 5.98-3.728 7.624z" class="cls-7" transform="translate(-1457.159 -1336.42)"/>
                <path id="Path_10164" d="M1792.087 1468.728s3.483 2.176.49 6.478c-.001 0-2.589-1.66-.49-6.478z" class="cls-7" transform="translate(-1454.382 -1352.481)"/>
                <path id="Path_10165" d="M1563.348 1479.645s-3.878 2.191-.792 5.9c0-.003 5.036-1.018.792-5.9z" class="cls-7" transform="translate(-1310.291 -1359.324)"/>
                <g id="Group_3513" transform="translate(136.324 120.677)">
                    <path id="Path_10166" d="M1254.479 1590.6l-.541-5.357c49-4.94 68.477-18.388 77.2-53.291a99.78 99.78 0 0 1 11.189-27.843 60.811 60.811 0 0 1 13.35-15.606c8.713-7.076 15.859-7.859 16.167-7.9l.938 5.016c-.05.007-6.418 1.034-14.024 7.323-7.084 5.859-16.72 17.613-22.4 40.319-4.838 19.351-13.208 32.491-26.342 41.352-12.516 8.444-29.65 13.375-55.537 15.987z" class="cls-7" transform="translate(-1253.938 -1480.598)"/>
                </g>
                <g id="Group_3514" transform="translate(159.572 120.61)">
                    <path id="Path_10167" d="M1321.443 1546.291a13.26 13.26 0 0 1-5.223-.868l2.213-4.9-.05-.023c.037.016 3.812 1.464 11.067-1.214 6.922-2.553 18.386-9.419 33.689-27.626 32.074-38.156 52.226-30.792 53.068-30.46l-1.973 5 .038.015c-.043-.015-4.364-1.5-12.177 1.184-7.407 2.548-19.461 9.425-34.838 27.719-13.257 15.772-25.647 25.705-36.823 29.524a27.873 27.873 0 0 1-8.991 1.649z" class="cls-7" transform="translate(-1316.221 -1480.417)"/>
                </g>
                <g id="Group_3515" transform="translate(472.531 228.069)">
                    <path id="Path_10168" d="M2186.006 1787.5a6.46 6.46 0 0 0-1.483-1.12 27.159 27.159 0 0 0-2.571-1.352 26.572 26.572 0 0 0-3.265-1.253 18.685 18.685 0 0 0-3.691-.758v11.407l1.647.4q3.427.924 6.232 1.978a16.929 16.929 0 0 1 4.748 2.637 10.911 10.911 0 0 1 3 3.793 12.58 12.58 0 0 1 1.055 5.439 13.731 13.731 0 0 1-1.286 6.2 11.732 11.732 0 0 1-3.494 4.221 15.541 15.541 0 0 1-5.143 2.472 26.861 26.861 0 0 1-6.166.955v7.253h-3.957v-7.319a34.248 34.248 0 0 1-9-1.879 32.574 32.574 0 0 1-7.946-4.057l4.023-7.847a12.486 12.486 0 0 0 1.814 1.385 21.908 21.908 0 0 0 3.1 1.682 38.909 38.909 0 0 0 4.021 1.549 22.579 22.579 0 0 0 4.583.99v-11.342q-.591-.132-1.186-.3t-1.187-.363a42.537 42.537 0 0 1-5.837-2.011 15.334 15.334 0 0 1-4.121-2.571 9.619 9.619 0 0 1-2.473-3.428 11.861 11.861 0 0 1-.824-4.648 14.423 14.423 0 0 1 1.154-5.9 13.231 13.231 0 0 1 3.165-4.451 14.762 14.762 0 0 1 4.78-2.9 21.647 21.647 0 0 1 5.935-1.319v-6.727h3.957v6.66a27.255 27.255 0 0 1 8.012 1.781 32.064 32.064 0 0 1 6.429 3.362zm-20.044.66a3.965 3.965 0 0 0 1.548 3.4 15.206 15.206 0 0 0 4.714 2.077v-10.682q-6.263.396-6.262 5.21zm16.021 21.429a3.991 3.991 0 0 0-1.845-3.494 20.376 20.376 0 0 0-5.142-2.308v10.616q6.988-.193 6.987-4.809z" class="cls-3" transform="translate(-2154.685 -1768.316)"/>
                </g>
                <g id="Group_3516" transform="translate(163.317 293.623)">
                    <path id="Rectangle_1804" d="M0 0H104.304V12.663H0z" class="cls-8" transform="translate(0 102.014)"/>
                    <path id="Rectangle_1805" d="M0 0H104.303V12.663H0z" class="cls-9" transform="translate(3.805 89.352)"/>
                    <path id="Rectangle_1806" d="M0 0H104.303V12.663H0z" class="cls-8" transform="translate(1.679 76.689)"/>
                    <path id="Rectangle_1807" d="M0 0H104.303V12.663H0z" class="cls-9" transform="translate(3.805 64.026)"/>
                    <path id="Rectangle_1808" d="M0 0H104.304V12.663H0z" class="cls-8" transform="translate(5.587 51.364)"/>
                    <path id="Rectangle_1809" d="M0 0H104.302V12.663H0z" class="cls-9" transform="translate(2.319 38.701)"/>
                    <path id="Rectangle_1810" d="M0 0H104.304V12.663H0z" class="cls-8" transform="translate(0 26.038)"/>
                    <path id="Rectangle_1811" d="M0 0H104.303V12.664H0z" class="cls-9" transform="translate(4.26 13.374)"/>
                    <path id="Rectangle_1812" d="M0 0H104.302V12.663H0z" class="cls-9" transform="translate(8.261 114.153)"/>
                    <path id="Rectangle_1813" fill="url(#linear-gradient-13)" d="M0 0H104.303V12.662H0z" transform="rotate(1.371 6.986 583.921)"/>
                </g>
                <g id="Group_3517" transform="translate(333.215 124.668)">
                    <path id="Path_10169" d="M1851.288 1513.621c0-7.3-7.39-13.226-16.506-13.226a20.094 20.094 0 0 0-5.874.863 16.781 16.781 0 0 0-31.416 2.014 12.247 12.247 0 0 0-4.339-.787c-6.472 0-11.717 4.986-11.717 11.136z" class="cls-11" transform="translate(-1781.436 -1491.29)"/>
                </g>
                <g id="Group_3518" transform="translate(210.944 73.844)">
                    <path id="Path_10170" d="M1509.461 1372.9c0-5.815-5.884-10.528-13.14-10.528a15.987 15.987 0 0 0-4.676.687 13.358 13.358 0 0 0-25.008 1.6 9.781 9.781 0 0 0-3.455-.627 9.105 9.105 0 0 0-9.327 8.866z" class="cls-11" transform="translate(-1453.855 -1355.126)"/>
                </g>
                <g id="Group_3519" transform="translate(403.537 88.799)">
                    <path id="Rectangle_1814" d="M0 0H46.256V5.644H0z" class="cls-3"/>
                </g>
                <g id="Group_3520" transform="translate(393.863 103.004)">
                    <path id="Rectangle_1815" d="M0 0H46.256V5.645H0z" class="cls-3"/>
                </g>
                <g id="Group_3525" transform="translate(144.423 287.478)">
                    <g id="Group_3524">
                        <g id="Group_3523">
                            <g id="Group_3522">
                                <g id="Group_3521">
                                    <path id="Path_10171" d="M1275.635 1931.123s4.668 1.234 4.771.786.861-3.426.861-3.426c-.547-.491-5.627-1-5.627-1z" class="cls-12" transform="translate(-1275.635 -1927.482)"/>
                                </g>
                            </g>
                        </g>
                    </g>
                </g>
                <g id="Group_3530" transform="translate(142.621 290.794)">
                    <g id="Group_3529">
                        <g id="Group_3528">
                            <g id="Group_3527">
                                <g id="Group_3526">
                                    <path id="Path_10172" fill="#404347" d="M1280.15 1940.035a12.9 12.9 0 0 1-2.676-2.936c-3.576-.032-4.864-.732-4.864-.732s-2.259 6.08-1.718 7.128 3.512.844 9.535 1.655c8.475 1.142 7.7-1.358 7.144-2.019-.771-.914-6.053-2.145-7.421-3.096z" transform="translate(-1270.808 -1936.367)"/>
                                </g>
                            </g>
                        </g>
                    </g>
                </g>
                <g id="Group_3619" transform="translate(109.573 197.294)">
                    <g id="Group_3535" transform="translate(34.469 3.349)">
                        <g id="Group_3534">
                            <g id="Group_3533">
                                <g id="Group_3532">
                                    <g id="Group_3531">
                                        <path id="Rectangle_1816" d="M0 0H224.709V2.143H0z" class="cls-14" transform="matrix(.097 -.995 .995 .097 0 223.658)"/>
                                    </g>
                                </g>
                            </g>
                        </g>
                    </g>
                    <g id="Group_3540">
                        <g id="Group_3539">
                            <g id="Group_3538">
                                <g id="Group_3537">
                                    <g id="Group_3536">
                                        <path id="Rectangle_1817" d="M0 0H224.71V2.143H0z" class="cls-14" transform="matrix(.096 -.995 .995 .096 0 223.663)"/>
                                    </g>
                                </g>
                            </g>
                        </g>
                    </g>
                    <g id="Group_3586" transform="translate(9.89 3.015)">
                        <g id="Group_3545" transform="translate(12.45)">
                            <g id="Group_3544">
                                <g id="Group_3543">
                                    <g id="Group_3542">
                                        <g id="Group_3541">
                                            <path id="Rectangle_1818" d="M0 0H2.142V34.65H0z" class="cls-14" transform="rotate(-84.457 1.174 1.066)"/>
                                        </g>
                                    </g>
                                </g>
                            </g>
                        </g>
                        <g id="Group_3550" transform="translate(10.894 16.038)">
                            <g id="Group_3549">
                                <g id="Group_3548">
                                    <g id="Group_3547">
                                        <g id="Group_3546">
                                            <path id="Rectangle_1819" d="M0 0H2.142V34.65H0z" class="cls-14" transform="rotate(-84.459 1.174 1.066)"/>
                                        </g>
                                    </g>
                                </g>
                            </g>
                        </g>
                        <g id="Group_3555" transform="translate(9.338 32.074)">
                            <g id="Group_3554">
                                <g id="Group_3553">
                                    <g id="Group_3552">
                                        <g id="Group_3551">
                                            <path id="Rectangle_1820" d="M0 0H2.142V34.65H0z" class="cls-14" transform="rotate(-84.457 1.174 1.066)"/>
                                        </g>
                                    </g>
                                </g>
                            </g>
                        </g>
                        <g id="Group_3560" transform="translate(7.782 48.11)">
                            <g id="Group_3559">
                                <g id="Group_3558">
                                    <g id="Group_3557">
                                        <g id="Group_3556">
                                            <path id="Rectangle_1821" d="M0 0H2.143V34.649H0z" class="cls-14" transform="matrix(.097 -.995 .995 .097 0 2.132)"/>
                                        </g>
                                    </g>
                                </g>
                            </g>
                        </g>
                        <g id="Group_3565" transform="translate(6.225 64.148)">
                            <g id="Group_3564">
                                <g id="Group_3563">
                                    <g id="Group_3562">
                                        <g id="Group_3561">
                                            <path id="Rectangle_1822" d="M0 0H2.142V34.65H0z" class="cls-14" transform="rotate(-84.457 1.174 1.066)"/>
                                        </g>
                                    </g>
                                </g>
                            </g>
                        </g>
                        <g id="Group_3570" transform="translate(4.669 80.184)">
                            <g id="Group_3569">
                                <g id="Group_3568">
                                    <g id="Group_3567">
                                        <g id="Group_3566">
                                            <path id="Rectangle_1823" d="M0 0H2.142V34.65H0z" class="cls-14" transform="rotate(-84.455 1.175 1.066)"/>
                                        </g>
                                    </g>
                                </g>
                            </g>
                        </g>
                        <g id="Group_3575" transform="translate(3.112 96.221)">
                            <g id="Group_3574">
                                <g id="Group_3573">
                                    <g id="Group_3572">
                                        <g id="Group_3571">
                                            <path id="Rectangle_1824" d="M0 0H2.142V34.649H0z" class="cls-14" transform="rotate(-84.457 1.174 1.066)"/>
                                        </g>
                                    </g>
                                </g>
                            </g>
                        </g>
                        <g id="Group_3580" transform="translate(1.556 112.257)">
                            <g id="Group_3579">
                                <g id="Group_3578">
                                    <g id="Group_3577">
                                        <g id="Group_3576">
                                            <path id="Rectangle_1825" d="M0 0H2.143V34.65H0z" class="cls-14" transform="rotate(-84.457 1.175 1.067)"/>
                                        </g>
                                    </g>
                                </g>
                            </g>
                        </g>
                        <g id="Group_3585" transform="translate(0 128.295)">
                            <g id="Group_3584">
                                <g id="Group_3583">
                                    <g id="Group_3582">
                                        <g id="Group_3581">
                                            <path id="Rectangle_1826" d="M0 0H2.142V34.65H0z" class="cls-14" transform="matrix(.097 -.995 .995 .097 0 2.132)"/>
                                        </g>
                                    </g>
                                </g>
                            </g>
                        </g>
                    </g>
                    <g id="Group_3607" transform="translate(3.664 147.346)">
                        <g id="Group_3591" transform="translate(4.669)">
                            <g id="Group_3590">
                                <g id="Group_3589">
                                    <g id="Group_3588">
                                        <g id="Group_3587">
                                            <path id="Rectangle_1827" d="M0 0H2.143V34.649H0z" class="cls-14" transform="rotate(-84.458 1.175 1.067)"/>
                                        </g>
                                    </g>
                                </g>
                            </g>
                        </g>
                        <g id="Group_3596" transform="translate(3.113 16.037)">
                            <g id="Group_3595">
                                <g id="Group_3594">
                                    <g id="Group_3593">
                                        <g id="Group_3592">
                                            <path id="Rectangle_1828" d="M0 0H2.142V34.649H0z" class="cls-14" transform="rotate(-84.457 1.174 1.066)"/>
                                        </g>
                                    </g>
                                </g>
                            </g>
                        </g>
                        <g id="Group_3601" transform="translate(1.556 32.073)">
                            <g id="Group_3600">
                                <g id="Group_3599">
                                    <g id="Group_3598">
                                        <g id="Group_3597">
                                            <path id="Rectangle_1829" d="M0 0H2.142V34.65H0z" class="cls-14" transform="rotate(-84.455 1.175 1.066)"/>
                                        </g>
                                    </g>
                                </g>
                            </g>
                        </g>
                        <g id="Group_3606" transform="translate(0 48.111)">
                            <g id="Group_3605">
                                <g id="Group_3604">
                                    <g id="Group_3603">
                                        <g id="Group_3602">
                                            <path id="Rectangle_1830" d="M0 0H2.142V34.649H0z" class="cls-14" transform="rotate(-84.457 1.174 1.066)"/>
                                        </g>
                                    </g>
                                </g>
                            </g>
                        </g>
                    </g>
                    <g id="Group_3618" transform="translate(2.108 195.457)">
                        <g id="Group_3612" transform="translate(1.557)">
                            <g id="Group_3611">
                                <g id="Group_3610">
                                    <g id="Group_3609">
                                        <g id="Group_3608">
                                            <path id="Rectangle_1831" d="M0 0H2.142V34.649H0z" class="cls-14" transform="rotate(-84.457 1.174 1.066)"/>
                                        </g>
                                    </g>
                                </g>
                            </g>
                        </g>
                        <g id="Group_3617" transform="translate(0 16.037)">
                            <g id="Group_3616">
                                <g id="Group_3615">
                                    <g id="Group_3614">
                                        <g id="Group_3613">
                                            <path id="Rectangle_1832" d="M0 0H2.142V34.65H0z" class="cls-14" transform="rotate(-84.457 1.174 1.066)"/>
                                        </g>
                                    </g>
                                </g>
                            </g>
                        </g>
                    </g>
                </g>
                <g id="Group_3624" transform="translate(130.439 223.421)">
                    <g id="Group_3623">
                        <g id="Group_3622">
                            <g id="Group_3621">
                                <g id="Group_3620">
                                    <path id="Path_10173" d="M1267.839 1775.358c-.9-4.509-4.293-17.123-4.293-17.123-2.508-4.016-25.375-1.712-25.375-1.712 1.851 12.66 8.745 12.822 11.757 19.646s3.51 6.574 7.333 14.856c2.571 5.571-7.283 30.634-7.283 30.634l9.34 1.5c1.065-4.35 11.317-28.431 11.094-30.919s-1.793-12.952-2.573-16.882z" class="cls-15" transform="translate(-1238.171 -1755.865)"/>
                                </g>
                            </g>
                        </g>
                    </g>
                </g>
                <g id="Group_3629" transform="translate(135.325 163.932)">
                    <g id="Group_3628">
                        <g id="Group_3627">
                            <g id="Group_3626">
                                <g id="Group_3625">
                                    <path id="Path_10174" d="M1255.14 1597.052c-1.626.824-3.809 2.406-3.877 5.261s1.376 7.124 2.976 10.078 6.3 3.562 9.422 2.4 3.4-10.614.542-15.334-9.063-2.405-9.063-2.405z" class="cls-16" transform="translate(-1251.26 -1596.483)"/>
                                </g>
                            </g>
                        </g>
                    </g>
                </g>
                <g id="Group_3634" transform="translate(136.876 176.061)">
                    <g id="Group_3633">
                        <g id="Group_3632">
                            <g id="Group_3631">
                                <g id="Group_3630">
                                    <path id="Path_10175" d="M1265.223 1634.868s-10.972-8.656-9.707-4.975a64.714 64.714 0 0 1 2.069 8.222s8.216-.021 7.8-.82a5.207 5.207 0 0 1-.162-2.427z" class="cls-16" transform="translate(-1255.415 -1628.981)"/>
                                </g>
                            </g>
                        </g>
                    </g>
                </g>
                <g id="Group_3639" transform="translate(134.797 163.272)">
                    <g id="Group_3638">
                        <g id="Group_3637">
                            <g id="Group_3636">
                                <g id="Group_3635">
                                    <path id="Path_10176" fill="#3e4148" d="M1255.345 1595.241s-5.7 1.571-5.493 4.813 1.037 6.936 2.313 8.55c0 0 .567.935 2.882.572s5.137-3.442 6.1-3.78.975-.906.975-.906l.6.884 1.025.065s-.935-2.754.477-3.876-1.456-8.916-8.879-6.322z" transform="translate(-1249.847 -1594.715)"/>
                                </g>
                            </g>
                        </g>
                    </g>
                </g>
                <g id="Group_3644" transform="translate(144.76 170.686)">
                    <g id="Group_3643">
                        <g id="Group_3642">
                            <g id="Group_3641">
                                <g id="Group_3640">
                                    <path id="Path_10177" d="M1276.66 1615.328c-.531 1.663.8 3.9 1.541 3.709s.829-1.9.5-3.276c-.128-.543-1.513-2.097-2.041-.433z" class="cls-16" transform="translate(-1276.538 -1614.58)"/>
                                </g>
                            </g>
                        </g>
                    </g>
                </g>
                <g id="Group_3649" transform="translate(142.621 290.793)">
                    <g id="Group_3648">
                        <g id="Group_3647">
                            <g id="Group_3646">
                                <g id="Group_3645">
                                    <path id="Path_10178" d="M1277.474 1937.1c-3.576-.03-4.864-.733-4.864-.733s-2.259 6.08-1.718 7.13 3.512.845 9.535 1.654a27.475 27.475 0 0 0 3.959.293l.35-3.623a27.181 27.181 0 0 1-4.587-1.786 12.9 12.9 0 0 1-2.675-2.935z" class="cls-18" transform="translate(-1270.808 -1936.364)"/>
                                </g>
                            </g>
                        </g>
                    </g>
                </g>
                <g id="Group_3654" transform="translate(121.294 301.403)">
                    <g id="Group_3653">
                        <g id="Group_3652">
                            <g id="Group_3651">
                                <g id="Group_3650">
                                    <path id="Path_10179" d="M1213.669 1968.432s4.667 1.233 4.771.785.862-3.425.862-3.425c-.548-.492-5.628-1-5.628-1z" class="cls-12" transform="translate(-1213.669 -1964.79)"/>
                                </g>
                            </g>
                        </g>
                    </g>
                </g>
                <g id="Group_3659" transform="translate(119.717 224.079)">
                    <g id="Group_3658">
                        <g id="Group_3657">
                            <g id="Group_3656">
                                <g id="Group_3655">
                                    <path id="Path_10180" d="M1217.961 1771.679c-.466 6.5-1.313 13.622-1.989 20.415-.75 7.575-2.893 19.818-3 23.871s-3.522 21.758-3.522 21.758l8.723 1s5.669-31.291 7.006-34.489 7.977-26 8.2-28.562-13.207-18.046-13.207-18.046a98.343 98.343 0 0 0-2.211 14.053z" class="cls-15" transform="translate(-1209.445 -1757.628)"/>
                                </g>
                            </g>
                        </g>
                    </g>
                </g>
                <g id="Group_3664" transform="translate(119.493 304.718)">
                    <g id="Group_3663">
                        <g id="Group_3662">
                            <g id="Group_3661">
                                <g id="Group_3660">
                                    <path id="Path_10181" d="M1218.185 1977.34a12.942 12.942 0 0 1-2.676-2.935c-3.576-.032-4.864-.733-4.864-.733s-2.258 6.08-1.717 7.129 3.512.845 9.534 1.656c8.476 1.141 7.7-1.36 7.144-2.02-.77-.914-6.053-2.146-7.421-3.097z" class="cls-18" transform="translate(-1208.845 -1973.672)"/>
                                </g>
                            </g>
                        </g>
                    </g>
                </g>
                <g id="Group_3669" transform="translate(186.152 166.933)">
                    <g id="Group_3668">
                        <g id="Group_3667">
                            <g id="Group_3666">
                                <g id="Group_3665">
                                    <path id="Path_10182" d="M1396.1 1607.27a3 3 0 0 0-.769-1.453 1.251 1.251 0 0 0-.432-1.134c-.275-.267-1.548-.123-1.673-.1a7.4 7.4 0 0 0-1.532.139 1.747 1.747 0 0 0-.207.074c-.718.3-4.056 4.624-4.056 4.624l.6 1.727.839 2.14s3.606-.82 4.4-1.051a5.8 5.8 0 0 0 1.65-.874c.07-.042.18-.1.307-.154.405-.181.989-.4.989-.4a3.19 3.19 0 0 0 .75-.69c.249-.525-.369-1.287-.369-1.287a1.861 1.861 0 0 0-.497-1.561z" class="cls-16" transform="translate(-1387.434 -1604.524)"/>
                                </g>
                            </g>
                        </g>
                    </g>
                </g>
                <g id="Group_3687" transform="translate(123.225 171.315)">
                    <g id="Group_3673" transform="translate(0 15.779)">
                        <g id="Group_3672">
                            <g id="Group_3671">
                                <g id="Group_3670">
                                    <path id="Path_10183" d="M1224.548 1658.54c-.278.028-6.285 11.1-5.661 18.565a3.651 3.651 0 0 0 1.63 2.128 2.643 2.643 0 0 0 1.415.465l.368.014 6.445.22s4.79-15.486-4.197-21.392z" class="cls-18" transform="translate(-1218.842 -1658.54)"/>
                                </g>
                            </g>
                        </g>
                    </g>
                    <g id="Group_3677" transform="translate(15.023 11.994)">
                        <g id="Group_3676">
                            <g id="Group_3675">
                                <g id="Group_3674">
                                    <path id="Path_10184" d="M1259.624 1648.778l-.431.4s-.867 1.661 2.395 1.8 8.387.381 5.944-1.987c0 .001-5.058-1.176-7.908-.213z" class="cls-18" transform="translate(-1259.089 -1648.399)"/>
                                </g>
                            </g>
                        </g>
                    </g>
                    <g id="Group_3681" transform="translate(4.02 12.587)">
                        <g id="Group_3680">
                            <g id="Group_3679">
                                <g id="Group_3678">
                                    <path id="Path_10185" d="M1260.1 1654.136a7.666 7.666 0 0 0-1.045-.521q-.868-.367-1.695-.708c-3.659-1.5-8.3-2.918-8.3-2.918h-7.465a63.165 63.165 0 0 0-9.069 2.521 6.348 6.348 0 0 0-1.224.671l1.015 21.281v.042c.456 2.994.939 6.526 1.1 9 .066 1.011-1.09 6.44-1.693 11.424l-2.111 11.925s1.22 4.942 30.334.779c.743-.106-1.844-22.255-1.647-23.643.133-.928.112-8.124.057-12.611l.811-4.541a20.686 20.686 0 0 1 1.777-1.124c1.125-.649 2.536-1.392 4.1-2.175-.184-1.072-.311-1.917-.359-2.41a9.076 9.076 0 0 0-4.586-6.992z" class="cls-18" transform="translate(-1229.612 -1649.988)"/>
                                </g>
                            </g>
                        </g>
                    </g>
                    <g id="Group_3686" transform="translate(29.821)">
                        <g id="Group_3685">
                            <g id="Group_3684">
                                <g id="Group_3683">
                                    <g id="Group_3682">
                                        <path id="Path_10186" d="M1331.784 1616.266s-12.006 11.371-14.629 12.771c-2.257 1.2-13.4 2.418-16.47 2.734l-.783.079c-3.207 4.372 1.038 14.835 2.829 13.682a49.428 49.428 0 0 1 5.642-3.128c6.943-3.474 15.518-9.774 17.149-10.683 2.506-1.4 10.425-11.074 10.425-11.074-.41-1.457-4.163-4.381-4.163-4.381z" class="cls-18" transform="translate(-1298.737 -1616.266)"/>
                                    </g>
                                </g>
                            </g>
                        </g>
                    </g>
                </g>
                <path id="Path_10187" d="M2147.745 2241.541s-.1-1.08 2.05-2.408l-2.934-2.908a18.093 18.093 0 0 0-3.3 2.564c-1.637 1.604 4.184 2.752 4.184 2.752z" class="cls-19" transform="translate(-1674.999 -1833.508)"/>
                <path id="Path_10188" d="M2329.429 2240.237s-.3-2.656.481-3.975l-3.57-.606s-1.935 2.962-1.77 4.693 4.859-.112 4.859-.112z" class="cls-19" transform="translate(-1788.623 -1833.151)"/>
                <g id="Group_3689" transform="translate(464.807 404.193)">
                    <g id="Group_3688">
                        <path id="Path_10189" d="M2148.667 2254.353c0 1 .07 1.555-3 1.592s-6.023-3.613-8.085-6.186-4.749-3.8-3.061-5.538c.207-.214.426-.432.653-.648 1.6-1.546 3.5-3.062 3.752-3.371.286-.352 3.04 3.37 3.04 3.37a6.918 6.918 0 0 0 .261 2.956c.492 1.087 1.275 5.044 2.729 5.7a16.377 16.377 0 0 1 3.711 2.125z" class="cls-19" transform="translate(-2133.99 -2240.179)"/>
                    </g>
                </g>
                <g id="Group_3691" transform="translate(534.71 406.031)">
                    <g id="Group_3690">
                        <path id="Path_10190" d="M2336.571 2254.569a106.9 106.9 0 0 0-11.038 0c-3.214.34-4.46-.153-4.234-2.458.011-.125.026-.252.043-.381.29-2.255 1.19-5.089 1.252-6.032.066-1 4.135-.443 4.135-.443s2.131 3.152 3.3 3.795 4.72 1.951 6.082 2.556c.1.045.208.085.321.124 1.439.487 3.869.556 4.219 1.326.381.833-2.038 1.551-4.08 1.513z" class="cls-19" transform="translate(-2321.273 -2245.103)"/>
                    </g>
                </g>
                <path id="Path_10191" d="M2336.571 2265.229a106.9 106.9 0 0 0-11.038 0c-3.214.34-4.46-.153-4.234-2.458.011-.125.026-.252.043-.381.775-.537 6.347-.213 9.642.215a14.309 14.309 0 0 0 5.449-.215c1.439.487 3.869.556 4.219 1.326.38.832-2.039 1.55-4.081 1.513z" class="cls-20" transform="translate(-1786.563 -1849.731)"/>
                <path id="Path_10192" d="M2148.762 2260.016c0 1-.025 1.592-3.093 1.629s-6.023-3.614-8.085-6.186-4.749-3.8-3.061-5.538c.207-.214.426-.432.653-.648.094.076 4.062 3.406 5.327 5.731 2.1 3.861 4.355 2.908 4.455 2.924a18.355 18.355 0 0 1 3.804 2.088z" class="cls-20" transform="translate(-1669.184 -1841.686)"/>
                <path id="Path_10193" d="M2312.178 2116.876c-3.186 5.206-12.617 30.053-12.617 30.053l-8.095-.563s5.143-17.373 7.733-23.807c1.918-4.76 4.688-7.165 1.951-8.4-2.313-1.042-16.22-6.082-22.132-9.027a19.2 19.2 0 0 1-1.834-1.013 4.882 4.882 0 0 1-.495-.358c-2.745-2.332 2.7-19.6 12.212-14.461 0 0 20.854 15.549 22.48 18.248s3.986 4.121.797 9.328z" class="cls-21" transform="translate(-1758.174 -1740.828)"/>
                <g id="Group_3692" transform="translate(470.758 340.795)">
                    <path id="Path_10194" d="M2209.457 2077.493s-13.157 19.811-25.328 30.682c-3.444 3.077-6.246 5.627-11.178 9.584-2.622 2.1-7.24 6.493-10.991 10.14l-.156.153c-2.675 2.6-4.882 4.807-5.561 5.487-.026.022-.047.044-.066.063l-.075.077-2.439 2.639-3.728-3.4a100.524 100.524 0 0 0 6.469-9.461c3.27-5.765 8.108-12.2 10.659-14.1 4.368-3.246 8.662-5.234 10.21-8.22s6.823-14.988 6.823-14.988.9-12.341 8.355-15.307c7.026-2.793 17.006 6.651 17.006 6.651z" class="cls-21" transform="translate(-2149.935 -2070.326)"/>
                </g>
                <g id="Group_3693" transform="translate(528.28 291.368)">
                    <path id="Path_10195" d="M2312.267 1942.768a7.019 7.019 0 0 0-.8 1.922 17.175 17.175 0 0 0-.413 2.07 24.4 24.4 0 0 0-.224 2.646s-8.026-2.074-6.625-3.911.84-7.589.84-7.589 8.339 3.136 7.222 4.862z" class="cls-19" transform="translate(-2304.046 -1937.906)"/>
                </g>
                <g id="Group_3694" transform="translate(527.324 279.096)">
                    <path id="Path_10196" d="M2315.818 1906.742s2 1.879.877 7.028c0 0 .3 4.148.9 4.892s-1.736.92-2 1.43-.821 2.919-2.5 4.319-9.55-3.321-9.845-5.827-5.455-13.4 3.382-13.551 9.186 1.709 9.186 1.709z" class="cls-16" transform="translate(-2301.483 -1905.026)"/>
                </g>
                <g id="Group_3695" transform="translate(508.623 298.957)">
                    <path id="Path_10197" d="M2283.457 1985.347c-.309.582-.655 1.188-1.034 1.825-1.022 1.724-2.287 3.663-3.8 5.919a17.894 17.894 0 0 0-1.095 1.724c-1.925 3.683-3.388 9.9-3.876 12.135-.116.53-.17.8-.17.8-10.666.587-22.1-5.98-22.1-5.98 6.773-7.655 9.327-13.476 9.327-13.476a23.8 23.8 0 0 0 1.078-7.306c.114-8.644 2.352-13.484 4.553-17.328a15.568 15.568 0 0 1 4.863-5.427l6.657 3.741c.842 2.425 3.6 5.068 6.412 10.97 2.077 4.356 1.8 7.515-.815 12.403z" class="cls-22" transform="translate(-2251.381 -1958.237)"/>
                </g>
                <g id="Group_3696" transform="translate(527.141 276.63)">
                    <path id="Path_10198" d="M2316.679 1907.775s1.406-10.728-9.1-9.209-5.587 13.493-4.328 17.382c0 0 .058-5.962 5.092-5.962s6.112-1.123 8.336-2.211z" class="cls-23" transform="translate(-2300.995 -1898.419)"/>
                </g>
                <g id="Group_3697" transform="translate(531.135 286.055)">
                    <path id="Path_10199" d="M2314.287 1924.27a1.439 1.439 0 0 0-2.582 1.056c.182 1.676 1.846 3.4 2.45 2.62a3.232 3.232 0 0 0 .132-3.676z" class="cls-19" transform="translate(-2311.694 -1923.67)"/>
                </g>
                <path id="Path_10200" d="M2298.293 1905.564s-2.928-3.034-5.216.185 2.262 8.011 4.285 5.349a6.093 6.093 0 0 0 .931-5.534z" class="cls-23" transform="translate(-1768.498 -1625.455)"/>
                <path id="Path_10201" d="M2315.678 1950.907a17.13 17.13 0 0 0-.413 2.07c-2.641-1.329-4.508-5.151-4.508-5.151a20.718 20.718 0 0 0 4.921 3.08z" class="cls-24" transform="translate(-1779.972 -1652.755)"/>
                <g id="Group_3699" transform="translate(554.13 310.737)">
                    <path id="Path_10202" d="M2378.622 2070.121a56.423 56.423 0 1 1 75.007 27.227 56.422 56.422 0 0 1-75.007-27.227z" class="cls-25" transform="translate(-2373.302 -1989.796)"/>
                    <path id="Path_10203" d="M2516.473 2095.834l-47.694-102.051a56.423 56.423 0 0 1 47.694 102.051z" class="cls-25" transform="translate(-2433.142 -1989.797)"/>
                    <path id="Path_10204" d="M2378.627 2091.415a56.445 56.445 0 0 1 15.469-67.644l46.347 99.167a56.444 56.444 0 0 1-61.816-31.523z" class="cls-25" transform="translate(-2373.305 -2011.09)"/>
                    <path id="Path_10205" d="M2413.629 2087.13a42.883 42.883 0 1 1 57.006 20.693 42.882 42.882 0 0 1-57.006-20.693z" class="cls-26" transform="translate(-2396.042 -2012.536)"/>
                    <g id="Group_3698" transform="translate(36.461 31.654)">
                        <path id="Path_10206" d="M2485.969 2117.55a8.753 8.753 0 0 0 2.075.517 19.039 19.039 0 0 0 2.88.174 20.806 20.806 0 0 0 3.343-.317 18.332 18.332 0 0 0 3.458-.959l-5.49-11.746-1.183.276a55.513 55.513 0 0 1-6.3.94 17.381 17.381 0 0 1-5.2-.265 9.95 9.95 0 0 1-4.137-1.972 11.476 11.476 0 0 1-3.1-4.187 12.461 12.461 0 0 1-1.322-5.639 11.032 11.032 0 0 1 1.322-4.937 14.767 14.767 0 0 1 3.43-4.2 23.816 23.816 0 0 1 5.061-3.3l-2.784-5.958 2.951-1.38 2.838 6.071a31.614 31.614 0 0 1 8.528-2.016 27.024 27.024 0 0 1 8.491.562l-.349 6.8a10.99 10.99 0 0 0-2.5-.625 22.645 22.645 0 0 0-3.5-.233 28.2 28.2 0 0 0-4.1.325 24.583 24.583 0 0 0-4.314 1.048l5.489 11.746q.393-.046.8-.133a7.865 7.865 0 0 1 .8-.133 52.767 52.767 0 0 1 6.031-.78 14.482 14.482 0 0 1 4.71.391 9.192 9.192 0 0 1 3.607 1.875 10.71 10.71 0 0 1 2.663 3.7 13.254 13.254 0 0 1 1.341 5.387 11.923 11.923 0 0 1-.986 4.99 14.33 14.33 0 0 1-2.973 4.363 21.224 21.224 0 0 1-4.676 3.533l2.678 5.73-2.951 1.378-2.678-5.73a24.08 24.08 0 0 1-7.5 1.707 27.176 27.176 0 0 1-6.909-.435zm18.031-10.228a4.523 4.523 0 0 0-3.343-2.792 17.838 17.838 0 0 0-6.061.274l5.224 11.178q3.383-1.79 4.35-4a5.426 5.426 0 0 0-.17-4.66zm-25.2-11.174a4.636 4.636 0 0 0 3.749 2.845 23.533 23.533 0 0 0 6.635-.3l-5.251-11.234a11.418 11.418 0 0 0-4.952 3.974 4.726 4.726 0 0 0-.181 4.715z" class="cls-27" transform="translate(-2470.985 -2074.602)"/>
                    </g>
                    <path id="Path_10207" d="M2539.2 2090.751a56.438 56.438 0 0 0-46.589-99.683z" class="cls-28" transform="translate(-2448.077 -1989.797)"/>
                    <path id="Path_10208" d="M2475.352 2108.339L2429 2009.172a56.58 56.58 0 0 1 11.757-7.361q1.536-.72 3.089-1.334l47.694 102.051q-1.47.8-3 1.514a56.5 56.5 0 0 1-13.188 4.297z" class="cls-28" transform="translate(-2408.214 -1996.49)"/>
                </g>
                <path id="Path_10209" d="M2276.566 1901.653a5.116 5.116 0 0 0-4.329-1.989c-2.971.072-6.469 4.688-5.327 11.194s-.713 14.216-6.709 20.711c0 0 10.635-6.2 11.349-14.842s3.756-8.765 3.756-8.765z" class="cls-23" transform="translate(-1748.286 -1622.568)"/>
                <path id="Path_10210" d="M2377.75 2057.211s2.846-.042 3.52.04a3.388 3.388 0 0 0 1.523.006c.19-.139 1.509-2.552 1.977-3.147s3.607-5.939 3.3-5.885a10.993 10.993 0 0 0-5.069 3.659c-2.13 2.665-4.686 1.795-5.558 2.435s.307 2.892.307 2.892z" class="cls-16" transform="translate(-1821.564 -1715.679)"/>
                <path id="Path_10211" fill="#3a4965" d="M2279.208 2117.22s5.673-7.127 6.1-7.969c-.224.539-3.092 7.463-4.263 8.982a19.2 19.2 0 0 1-1.837-1.013z" transform="translate(-1760.199 -1753.927)"/>
                <path id="Path_10212" fill="#5871ab" d="M2328.689 2012.767c-.309.582-.655 1.188-1.034 1.825 0 0-3.7-10.1-4.1-12.606-.005 0 3.403 7.042 5.134 10.781z" transform="translate(-1787.99 -1686.699)"/>
                <path id="Path_10213" d="M2326.962 2009.1s-10.66-2.061-16-6.8c-1.4-1.24-7.418-21.82-7.418-21.82s-1.64-5.2-6.227-3.528-2.554 6.891-2.554 6.891 6.959 16.21 10.564 22.486c3 5.223 21.834 6.361 21.834 6.361z" class="cls-22" transform="translate(-1769.667 -1670.806)"/>
                <path id="Path_10214" d="M2302.2 1956.651l1.432-1.927 6.537 3.682.146 3.248z" class="cls-22" transform="translate(-1774.611 -1657.078)"/>
                <g id="Group_3713" transform="translate(259.995 269.31)">
                    <g id="Group_3702" transform="translate(24.449 54.109)">
                        <g id="Group_3701">
                            <g id="Group_3700">
                                <path id="Path_10215" d="M1660.731 2023.774s-1.673 1.65-2.257 1.567a12.1 12.1 0 0 0-2.017.368c-.538.028-2.028-.417-2.563-.188a15.549 15.549 0 0 1-1.8 1.335c-.462.143-1.436.319-1.306.712s1.04.473 1.04.473a.707.707 0 0 0-.373.578c.012.744.489.9.489.9s-.417.432-.333.739a1.042 1.042 0 0 0 .662.8 1.133 1.133 0 0 0 .051.867.909.909 0 0 0 .98.376c.212 1.014.736.891 1.7.713a14.474 14.474 0 0 0 4.756-3.438 17.547 17.547 0 0 1 3.482-3.1z" class="cls-19" transform="translate(-1650.772 -2023.774)"/>
                            </g>
                        </g>
                    </g>
                    <g id="Group_3703" transform="translate(30.991 23.126)">
                        <path id="Path_10216" d="M1685.953 1940.765a14.016 14.016 0 0 1-1.507 5.126c-1.384 2.694-1.384 6.478-1.583 7.763s-3.793 13.657-4.1 14-1.409.818-3.618 4.565-6.84 7.2-6.84 7.2l3.833 3.762s10.269-7.1 11.83-11.153c1.669-4.324 5.3-16.722 5.3-16.722s3.749-12.353-3.315-14.541z" class="cls-31" transform="translate(-1668.3 -1940.765)"/>
                    </g>
                    <path id="Rectangle_1833" fill="#e6d8d1" d="M0 0H18.415V30.732H0z" transform="rotate(150 16.664 37.913)"/>
                    <path id="Path_10217" d="M1691.379 2242.57s-1.157 2.8-2.068 3.572-4.954 6.034-6.35 6.3-4.177.447-4.29 1.04-.181 3.467 3.785 3.561 5.009.019 5.974-.95 4.752-3.756 5.792-3.731l-.116 4.958 1.041.024s1.137-6.124 1.959-7.3.081-5.552-1.909-7.386a2.731 2.731 0 0 0-3.818-.088z" class="cls-33" transform="translate(-1643.786 -2106.325)"/>
                    <path id="Path_10218" fill="#334862" d="M1682.457 2260.279s4.4.6 6.271-.844 4.213-5.033 7.946-5.106c0 0 1.338 1.713-.852 5.625a48.765 48.765 0 0 0-1.18 5.227l-1.041-.024.116-4.958a21.207 21.207 0 0 0-6.321 4.513s-7.6 1.208-9.035-1.156a3.133 3.133 0 0 1-.44-2.343c.35-1.157 4.536-.934 4.536-.934z" transform="translate(-1643.283 -2114.165)"/>
                    <path id="Path_10219" d="M1706.552 2048.51s4.65 5.648-1.179 15.724c0 0-.5 5.148-.6 7.082s-1.345 9.16-.676 12.67 2.856 8.778 2.038 13.811-4.549 19.566-3.831 23.293l-4.137-.1s-1.475-30.784-1.933-31.87a14.322 14.322 0 0 1-2.063-8.221c.222-4.778-4.679-24.358-4.657-29.788s17.038-2.601 17.038-2.601z" class="cls-33" transform="translate(-1650.605 -1984.707)"/>
                    <path id="Path_10220" d="M1698.87 2242.746s-1.091 2.827-1.982 3.619-4.81 6.15-6.2 6.447-4.165.545-4.264 1.141-.1 3.471 3.867 3.471 5.008-.1 5.949-1.091 4.661-3.868 5.7-3.868v4.959h1.041s.993-6.148 1.786-7.339-.05-5.554-2.083-7.339a2.733 2.733 0 0 0-3.814 0z" class="cls-35" transform="translate(-1648.653 -2106.407)"/>
                    <path id="Path_10221" d="M1690.188 2260.493s4.413.5 6.248-.992 4.1-5.13 7.823-5.292c0 0 1.38 1.68-.718 5.644a48.519 48.519 0 0 0-1.056 5.252h-1.041v-4.959a21.217 21.217 0 0 0-6.212 4.662s-7.571 1.388-9.061-.942a3.149 3.149 0 0 1-.5-2.332c.329-1.165 4.517-1.041 4.517-1.041z" class="cls-36" transform="translate(-1648.151 -2114.089)"/>
                    <path id="Path_10222" d="M1706.816 2049.294s4.784 5.536-.8 15.747c0 0-.377 5.159-.431 7.094s-1.129 9.19-.376 12.683 3.064 8.706 2.364 13.758-4.084 19.669-3.279 23.377h-4.137s-2.2-30.74-2.688-31.815a14.324 14.324 0 0 1-2.257-8.169c.108-4.782-6.611-23.108-6.718-28.537s18.322-4.138 18.322-4.138z" class="cls-35" transform="translate(-1649.962 -1985.575)"/>
                    <path id="Path_10223" d="M1688.491 2055.491s5.326 30.633 4.143 35.039a69.817 69.817 0 0 0 16.09-3.582s-3.541-11.989-2.346-18.344 3.9-9.834 2.117-16.257-20.004 3.144-20.004 3.144z" class="cls-31" transform="translate(-1649.963 -1986.183)"/>
                    <g id="Group_3706" transform="translate(5.556 51.896)">
                        <g id="Group_3705">
                            <g id="Group_3704">
                                <path id="Path_10224" d="M1606.811 2020.232s-1.718.48-2.383-.291a5.732 5.732 0 0 0-2.14-1.228c-.5-.181-1.809-1.305-2.044-.682s2.077 1.957 2.506 2.333-2.093.769-2.5 1.2.484 4.575 2.184 4.1 3.2-2.094 3.518-2.118a10.706 10.706 0 0 0 1.25-.292z" class="cls-16" transform="translate(-1600.156 -2017.844)"/>
                            </g>
                        </g>
                    </g>
                    <g id="Group_3709" transform="translate(0 55.416)">
                        <g id="Group_3708">
                            <g id="Group_3707">
                                <path id="Path_10225" d="M1591.294 2027.274s-5.107 1.786-5.348 2.189-.128.676.356.529 4.984-1.583 4.984-1.583-5.689 3.129-5.959 3.418c-.157.168.032.706.3.651s6.083-2.834 6.083-2.834-5.307 2.932-5.46 3.24a.418.418 0 0 0 .571.53c.408-.19 5.486-2.633 5.486-2.633s-3.728 2.375-3.7 2.713c.015.207.156.678 1.1.035s3.326-1.927 3.326-1.927z" class="cls-16" transform="translate(-1585.27 -2027.274)"/>
                            </g>
                        </g>
                    </g>
                    <path id="Path_10226" d="M1684.205 1881.634a8.18 8.18 0 0 0-8.383 7.738 19.865 19.865 0 0 0 .7 3.063c.456 1.344-.645 5.375-.323 5.563a8.877 8.877 0 0 0 1.64.4s1.532 4.326 3.063 4.246a12.715 12.715 0 0 0 9.881-6.951c2.576-5.507 3.186-13.864-6.578-14.059z" class="cls-35" transform="translate(-1642.023 -1880.578)"/>
                    <path id="Path_10227" d="M1675.705 1887.6a21.715 21.715 0 0 0 7.9 2.991c3.906.431 6.506 4.376 6.506 4.376s5.712-7.6.768-13.477-16.231-1.323-15.174 6.11z" class="cls-37" transform="translate(-1641.906 -1878.807)"/>
                    <path id="Path_10228" d="M1700.426 1982.029c-5.214 5.643-19.415 4.81-20.006 3.143s-1.449-17.143-1.61-18.81a14.892 14.892 0 0 1 .157-2.54 8.616 8.616 0 0 0 .019-2.038 2.282 2.282 0 0 0-.553-1.281c-1.306-1.373-3.224-4.243-2.739-6.233s5.749-8.6 7.363-10.426 5.912-5.91 5.912-5.91c6.126-.107 7.954 12.574 6.985 15.423s-3.815 14.885-2.2 16.766 6.672 11.906 6.672 11.906z" class="cls-36" transform="translate(-1641.894 -1915.865)"/>
                    <path id="Path_10229" d="M1699.6 1929.761a19.156 19.156 0 0 1 0-4.867s-7.272 3.362-6.013 4.272a2.285 2.285 0 0 1 .711 1.241 14.214 14.214 0 0 1 .316 3.824l-2.412 2.873c-2.13 2.924 7.578-6.376 7.398-7.343z" class="cls-35" transform="translate(-1652.097 -1907.693)"/>
                    <path id="Path_10230" d="M1701.249 1907.6a1.2 1.2 0 0 1 2.07-.913c1.264.995-.294 4.621-1.315 4.3s-.755-2.607-.755-3.387z" class="cls-16" transform="translate(-1657.94 -1896.039)"/>
                    <path id="Path_10231" d="M1696.423 1931.2a2.888 2.888 0 0 1 .757 1.409 11.956 11.956 0 0 0 4.2-4.473c-1.536 1.893-4.957 3.064-4.957 3.064z" class="cls-24" transform="translate(-1654.935 -1909.721)"/>
                    <g id="Group_3710" transform="translate(10.422 25.117)">
                        <path id="Path_10232" d="M1655.006 1947.7s-3.6-2.852-6.11-.94-2.985 3.828-3.748 4.946-9.7 11.141-10.151 11.325-7.882 4.34-11.925 6.392c-3.968 2.013-9.882 5.648-9.882 5.648l1.853 3.69s19.871-8.24 23.529-10.9c3.571-2.594 13.965-10.995 13.965-10.995s6.483-3.084 2.469-9.166z" class="cls-36" transform="translate(-1613.191 -1946.1)"/>
                    </g>
                    <g id="Group_3712" transform="translate(25.061 57.197)">
                        <g id="Group_3711">
                            <path id="Path_10233" d="M1653.064 2033s2.464-1.258 3.311-.891-.02.868-.02.868.849-.511 1.313.111-.58 1.155-.58 1.155a.762.762 0 0 1 .964.563c.222.781-.74 1.031-.74 1.031s1.205.269.6 1.105a4.256 4.256 0 0 1-3.025 1.483s-.484-.029-.644-.8a1.042 1.042 0 0 1-1.017-1.336s-1.133-.75-.357-1.593c.006.004-1.15-.862.195-1.696z" class="cls-38" transform="translate(-1652.413 -2032.046)"/>
                        </g>
                    </g>
                    <path id="Path_10234" d="M1693.2 1890.987s2.247 9.8-.869 11.7c0 0 6.619-1.791 9.625-5.607 0 0 3.325-15.876-7.018-17.654-10.224-1.76-1.738 11.561-1.738 11.561z" class="cls-37" transform="translate(-1650.844 -1879.093)"/>
                    <path id="Path_10235" d="M1694.354 1981.277c-.243.256-7.966 8.389-9.762 9.71a8.61 8.61 0 0 0 .019-2.038z" class="cls-37" transform="translate(-1647.52 -1943.03)"/>
                </g>
                <g id="Group_3720" transform="translate(336.445 154.531)">
                    <g id="Group_3715">
                        <path id="Path_10236" d="M1790.092 1626.462a55.653 55.653 0 1 1 55.162 56.139 55.654 55.654 0 0 1-55.162-56.139z" class="cls-25" transform="translate(-1790.09 -1571.297)"/>
                        <path id="Path_10237" d="M1946.773 1682.749l.975-111.1a55.653 55.653 0 0 1-.975 111.1z" class="cls-25" transform="translate(-1888.291 -1571.515)"/>
                        <path id="Path_10238" d="M1790.1 1629.067a55.673 55.673 0 0 1 42.546-53.613l-.948 107.964a55.675 55.675 0 0 1-41.598-54.351z" class="cls-25" transform="translate(-1790.092 -1573.903)"/>
                        <path id="Path_10239" d="M1825.872 1649a42.3 42.3 0 1 1 41.925 42.668 42.3 42.3 0 0 1-41.925-42.668z" class="cls-26" transform="translate(-1812.515 -1593.722)"/>
                        <g id="Group_3714" transform="translate(38.297 29.315)">
                            <path id="Path_10240" d="M1922.683 1666.976a8.511 8.511 0 0 0-1.6-1.369 18.884 18.884 0 0 0-2.467-1.423 20.646 20.646 0 0 0-3.091-1.191 18.01 18.01 0 0 0-3.475-.676l-.326 12.783 1.167.278a54.592 54.592 0 0 1 5.977 1.944 17.142 17.142 0 0 1 4.476 2.525 9.8 9.8 0 0 1 2.783 3.562 11.3 11.3 0 0 1 .89 5.059 12.257 12.257 0 0 1-1.316 5.559 10.912 10.912 0 0 1-3.341 3.777 14.521 14.521 0 0 1-4.875 2.193 23.514 23.514 0 0 1-5.919.684l-.166 6.484-3.211-.083.168-6.607a31.1 31.1 0 0 1-8.415-1.977 26.682 26.682 0 0 1-7.246-4.232l3.3-5.848a10.926 10.926 0 0 0 1.937 1.656 22.539 22.539 0 0 0 2.982 1.745 28.1 28.1 0 0 0 3.762 1.517 24.351 24.351 0 0 0 4.27.974l.327-12.783q-.367-.133-.766-.236a7.823 7.823 0 0 1-.767-.236 52.383 52.383 0 0 1-5.666-1.967 14.275 14.275 0 0 1-3.986-2.419 9.063 9.063 0 0 1-2.357-3.244 10.523 10.523 0 0 1-.722-4.436 13.025 13.025 0 0 1 1.187-5.346 11.77 11.77 0 0 1 3.068-3.97 14.1 14.1 0 0 1 4.546-2.541 20.844 20.844 0 0 1 5.681-1.06l.159-6.237 3.21.082-.158 6.237a23.817 23.817 0 0 1 7.37 1.8 26.821 26.821 0 0 1 5.907 3.426zm-20.422 1.085a4.47 4.47 0 0 0 1.723 3.938 17.585 17.585 0 0 0 5.469 2.426l.312-12.166q-3.772.087-5.6 1.618a5.351 5.351 0 0 0-1.903 4.184zm17.325 20.959a4.573 4.573 0 0 0-2.057-4.162 23.2 23.2 0 0 0-5.989-2.655l-.313 12.226a11.268 11.268 0 0 0 6.123-1.325 4.665 4.665 0 0 0 2.237-4.084z" class="cls-27" transform="translate(-1892.694 -1649.835)"/>
                        </g>
                        <path id="Path_10241" d="M1971.134 1683.838a55.667 55.667 0 0 0 .954-108.527z" class="cls-28" transform="translate(-1903.559 -1573.813)"/>
                        <path id="Path_10242" d="M1901.546 1680.813l.948-107.964a55.731 55.731 0 0 1 13.593-1.55q1.671.014 3.315.128l-.975 111.1q-1.647.084-3.318.069a55.8 55.8 0 0 1-13.563-1.783z" class="cls-28" transform="translate(-1859.945 -1571.297)"/>
                    </g>
                    <path id="Path_10243" d="M1848.235 1842.242a3.94 3.94 0 0 1 .055-2.206 10.485 10.485 0 0 0 .944-3.148c-.095-.265-2.9-1.677-3.937-2.448-.738-.549-6.092-6-6.165-5.619s-.178 3.183 2.327 6.484a28.1 28.1 0 0 1 3.992 8.287c.437 1.223 2.784-1.35 2.784-1.35z" class="cls-35" transform="translate(-1820.81 -1732.687)"/>
                    <path id="Path_10244" d="M1999.605 1848.753s-.753-2.352-.337-3.309 2.2-2.047 4.6-3.163c2.228-1.038 7.319-3.964 7.564-3.735s.282 1.723-3.239 4.754-4.787 3.725-4.745 5.243-3.843.21-3.843.21z" class="cls-35" transform="translate(-1921.113 -1738.787)"/>
                    <path id="Path_10245" d="M1928.65 1929.922s-8.521 5.832-8.1 2.271a23.292 23.292 0 0 0-.5-7.256s8.458-3.674 8.073-1.027a10.862 10.862 0 0 0-.087 1.908 18.541 18.541 0 0 0 .21 2.127 19.912 19.912 0 0 0 .404 1.977z" class="cls-35" transform="translate(-1871.544 -1791.695)"/>
                    <path id="Path_10246" d="M2006.487 2266.093a26.219 26.219 0 0 1 3.707 2.488c1.079 1.01 5.915.491 6.942 3.174s-3.533 4.04-8.469 2.6a27.536 27.536 0 0 1-7.443-3.26c-1.747-.848.106-5.31.106-5.31z" class="cls-15" transform="translate(-1921.948 -2006.563)"/>
                    <path id="Path_10247" d="M1872.775 2242.3a33.523 33.523 0 0 0 .323 4.1c.307 2.032 2.8 6.362 2.608 7.988s-3.219 4.084-6.547.141c-2.479-2.935-1.651-7.736-2.428-9.091s-.619-4.366 1.186-6.288 4.858 3.15 4.858 3.15z" class="cls-15" transform="translate(-1837.847 -1989.6)"/>
                    <path id="Path_10248" d="M1911.426 2053.826s13.031 24.677 13.482 28.14.952 40.566 1.5 42.99a3.6 3.6 0 0 1-.814 3.578s-4.346 1.731-5.65-.231-.906-3.115-.906-3.115-4.306-29.834-4.858-34.739-14.43-25.849-15.68-23.949-3.559 19.909-4.61 22.506-16.689 33.008-17.891 33.008-5.711-.693-5.011-4.271 10.874-29.949 10.874-32.95 3.185-31.023 4-34.785 25.564 3.818 25.564 3.818z" class="cls-18" transform="translate(-1840.745 -1870.671)"/>
                    <path id="Path_10249" d="M2007.725 2264.12l.114-1.542-5.356-.426.134 1.6s.125.872 2.673 1.052 2.435-.684 2.435-.684z" class="cls-38" transform="translate(-1923.207 -2004.288)"/>
                    <path id="Path_10250" d="M1875.673 2240.222s-.43 1.818-.53 2.193-3.247.771-4.174-.911a3.042 3.042 0 0 1-.381-2.84 3.8 3.8 0 0 1 .348-1.1z" class="cls-38" transform="translate(-1840.422 -1988.88)"/>
                    <path id="Path_10251" d="M2007.2 2255.291a11.309 11.309 0 0 1-7.536.461 6.708 6.708 0 0 1-.172-3.808s2.96 1.509 7.3-.739a8.552 8.552 0 0 1 .408 4.086z" class="cls-15" transform="translate(-1921.193 -1997.428)"/>
                    <g id="Group_3719" transform="translate(30.837 185.283)">
                        <g id="Group_3716" transform="translate(17.292)">
                            <path id="Path_10252" d="M1919.417 2069.042c.081-.946.1-1.266.1-1.266l-.367-.079s-.039.359-.119 1.3z" class="cls-39" transform="translate(-1919.035 -2067.697)"/>
                        </g>
                        <g id="Group_3717" transform="translate(1.833 4.339)">
                            <path id="Path_10253" d="M1877.618 2133.8c.376-.81.8-1.718 1.249-2.7l.339.208c-.45.98-.873 1.888-1.249 2.7zm2.494-5.4c.4-.875.818-1.78 1.239-2.7l.341.206c-.423.924-.837 1.83-1.24 2.705zm2.471-5.412c.411-.9.821-1.813 1.226-2.712l.338.2c-.4.9-.813 1.809-1.225 2.715zm2.439-5.43c.427-.967.83-1.883 1.2-2.727l.342.2c-.366.845-.771 1.764-1.2 2.73zm2.374-5.466c.454-1.081.834-2.01 1.127-2.762l.351.181c-.3.756-.677 1.688-1.134 2.774zm2.036-5.6c.188-.8.386-1.8.584-2.966l.377.085c-.2 1.177-.4 2.184-.592 3zm1.057-5.968c.134-.93.273-1.944.412-3.017l.379.065c-.138 1.075-.278 2.092-.412 3.024zm.784-6.04c.113-.962.23-1.981.345-3.029l.38.055c-.116 1.049-.231 2.07-.346 3.033zm.668-6.06c.1-.978.205-2 .306-3.036l.382.049c-.1 1.038-.206 2.06-.307 3.039zm.6-6.073c.094-1 .186-2.025.277-3.041l.382.045c-.09 1.017-.184 2.041-.278 3.043z" class="cls-15" transform="translate(-1877.618 -2079.322)"/>
                        </g>
                        <g id="Group_3718" transform="translate(0 61.442)">
                            <path id="Path_10254" d="M1873.042 2233.833l.614-1.314-.336-.209c-.392.835-.614 1.312-.614 1.312z" class="cls-39" transform="translate(-1872.706 -2232.31)"/>
                        </g>
                    </g>
                    <path id="Path_10255" d="M1875.977 2233.815s-5.914.058-6.816-3.982a9.306 9.306 0 0 1 1.391-2.765s.995 3.29 6.441 3.6a12.227 12.227 0 0 1-1.016 3.147z" class="cls-15" transform="translate(-1839.648 -1982.3)"/>
                    <path id="Path_10256" d="M1913.674 1881.007s8.115-2.865 8.492 7.17c.382 10.182-.737 11.322-4.024 12.073s-6.921-.376-9.809-7.955c-2.75-7.218.232-10.69 5.341-11.288z" class="cls-35" transform="translate(-1863.543 -1765.17)"/>
                    <path id="Path_10257" fill="#f8e9e1" d="M1909.921 1880.633c-.621 1.523-7.226 11.459-8.016 13.265s-4.015 6.436-4.3 7.114-1.2 8.232-2.041 10.435-.043 17.227.3 19.654a20.911 20.911 0 0 0 1.321 4.71 226.532 226.532 0 0 1-26.683 3.926 68.893 68.893 0 0 0 .7-8.791c-.172-2.427-3.111-17.628-4.354-20s-12.646-19.081-13.1-19.758-5.307-8.468-5.532-10.275 1.108-16.076 1.118-17.987a15.634 15.634 0 0 1 .028-2.043l5.109.389s.365 8.09.7 10.376 2.2 9.568 2.54 10.837 8.383 12.363 9.823 12.363a24.408 24.408 0 0 0 5.436-1.738c1.226-.495 2.278-.95 2.693-1.141 1.1-.507 7.1-2.127 9.187-1.911 0 0 .5.068 1.251.143 1.725.168 4.8.369 6.371-.143 2.258-.734 3.443-2.54 4.8-4.008s5.815-6.625 6.154-7.7.577-10.6.705-13.287a19.7 19.7 0 0 0 .069-3.392c-.056-.339 5.729-1.623 5.615-.664s-.142 7.027.1 10.475c.246 3.373.629 7.626.006 9.151z" transform="translate(-1826.506 -1752.656)"/>
                    <path id="Path_10258" fill="#61534b" d="M1908.494 1891.53s-.812-1.426-.064-1.946a.852.852 0 0 1 1.236.211l.8-.134s-1.586-2.974.924-3.521 7.779-.992 9.135-2c0 0 .553 2.3.6 2.736s.369-.1.369-.1.482-7.261-4.193-9.705-9.769.467-10.6 3.237-1.049 5.499 1.793 11.222z" transform="translate(-1862.833 -1762.364)"/>
                    <path id="Path_10259" d="M1910.957 1906.758s-.894-.7-1.033.034 1.518 3.868 1.947 3.889.146-3.068-.914-3.923z" class="cls-35" transform="translate(-1865.191 -1781.356)"/>
                    <path id="Path_10260" d="M1930.2 1932.912c-5.123.945-7.035-2.034-7.035-2.034a6.714 6.714 0 0 0 6.839.193 13.411 13.411 0 0 0 .196 1.841z" class="cls-24" transform="translate(-1873.493 -1796.663)"/>
                    <path id="Path_10261" d="M1924.685 1952.393c-6.172.376-10.092-9.97-10.092-9.97 1.226-.495 2.278-.95 2.693-1.141 1.1-.507 7.03-2.18 9.187-1.911 0 0 .5.068 1.251.143-.001 0 3.134 12.503-3.039 12.879z" class="cls-35" transform="translate(-1868.122 -1801.968)"/>
                </g>
            </g>
        </g>
    </g>
</svg>
