<svg xmlns="http://www.w3.org/2000/svg" width="2061.746" height="537.212" viewBox="0 0 2061.746 537.212">
    <defs>
        <style>
            .cls-2{fill:#afd295}.cls-4{fill:#f8fbff}.cls-9{fill:#82b378}.cls-15{fill:#dd6d22}.cls-16{fill:#e8505b}.cls-17{fill:#263238}.cls-23{fill:#455a64}.cls-25{fill:#e0e0e0}.cls-26{fill:#ffbe9d}.cls-27{opacity:.2}
        </style>
    </defs>
    <g id="Group_3507" transform="translate(55.517 -102.184)">
        <g id="Group_3316" transform="translate(655.325 -53.465)">
            <path id="Path_10046" fill="#d9e9fc" d="M2212.958 1131.073l-1943.626-4.555s-104.244-131.562-63.852-274.47c23.935 12.408 51.074 21.392 68.312 11.163 21.76-12.906 84.067-50.617 131.252-79.208l.014-.011c32.456-19.67 57.752-35.028 57.752-35.028s26.512-19.452 43.852-14.006c8.024 2.521 15.837 8.543 22.712 14.058.048.031.068.046.068.046 7.956 6.375 14.667 12.045 19.041 10.795 3.957-1.131 33.054-23.825 66.883-49.035 35.972-26.818 77.288-56.494 99.368-66.115 0 0 20.535-16.055 42.832 2.333 11.418 9.415 28.982 33.479 48.607 62.418 45.274 66.744 101.516 159.434 118.591 158.2 24.479-1.768 62.558-43.266 85.678-47.416s128.39 141.019 173.277 147.244 130.565-46.69 199.93-31.129 181.58 102.717 285.632 87.156c83.272-12.455 271.556-82.68 392.22-104.906 92.899 35.785 185.099 84.841 151.457 212.466z" opacity="0.25" transform="translate(-907.021 -482.565)"/>
            <path id="Path_10049" d="M2298.844 1393.16l-524.4 2.354-346.032-.472-10.529-.016-24.358-.032-316.562-.434-790.641-1.4s-1.03-.754-3.542-2.785c-3.414-2.77-8.789-7.324-15.117-13.378 84.3-13.126 236.158-39.754 380.274-19.164 214.756 30.678 1075.929 35.465 1228.405 23.019s346.052-30.816 401.3-7.95c14.973 6.198 20.745 11.435 21.202 20.258z" class="cls-2" transform="translate(-947.94 -738.771)"/>
            <path id="Path_10043" fill="#ebf3fa" d="M1142.793 654l-.1.513-15.081-.05-233.8-.718-154.28-.47-4.694-.016-10.86-.033-141.139-.434-325.2-1-11.94-.033-8.279-.026-4.78-.017-2.112-.007s-.314-.519-.887-1.526c-.053-.1-.112-.2-.172-.3-.209-.371-.444-.795-.708-1.275-1.523-2.77-3.919-7.325-6.74-13.379q-1.1-2.348-2.27-5c-.619-1.406-1.255-2.87-1.893-4.393q-.323-.759-.646-1.542c-.225-.536-.447-1.076-.672-1.622-1.181-2.9-2.386-5.981-3.588-9.235-1.185-3.2-2.367-6.574-3.522-10.1-.023-.076-.05-.152-.076-.232q-.963-2.96-1.907-6.054-1.381-4.538-2.662-9.358-1.221-4.6-2.33-9.43c-1.3-5.7-2.463-11.628-3.416-17.755a230.248 230.248 0 0 1-2.817-38.993 197.635 197.635 0 0 1 4.34-38.672c7.08-32.836 23.627-66.645 55.725-97.581 118.044-113.751 219.571-50.727 271.079-53.888 9.232-.566 17.342-4.234 25.313-10.043 14.6-10.646 28.735-28.487 48.45-47.639 29.552-28.708 71.643-60.363 146.66-75.155 92.825-18.3 220.342-13.174 275.511 41.839 33.372 33.28 40.267 84.811-3.006 160.45q-3.947 6.9-8.458 14.068-3.793 6.023-6.623 11.506c-4.76 9.192-7.58 17.295-8.769 24.517-2.857 17.355 3.7 29.642 15.458 39.748a96.65 96.65 0 0 0 11.334 8.259c13.734 8.679 31.089 16.13 48.39 24.869a254.228 254.228 0 0 1 27.994 16.07 125.759 125.759 0 0 1 22.67 19.248 91.192 91.192 0 0 1 11.622 15.812c.188.324.374.649.556.977a88.1 88.1 0 0 1 9.54 26.1c.1.5.2 1 .285 1.5 2.584 14.211 2.407 30.835-1.5 50.5z" transform="translate(-15.021)"/>
            <path id="Path_10044" d="M1489.379 491.633l-521.4 88.66-37.409-44.855 561.814-204.255c33.373 33.28 40.268 84.811-3.005 160.45z" class="cls-4" transform="translate(-484.124 -90.808)"/>
            <path id="Path_10045" fill="#e1efff" d="M1847.1 1199.5l-248.886-.766-154.279-.472-4.694-.016-10.86-.032c-99.2-55.044-129.431-112.763-129.431-112.763 3.552-.887 257.417-53.206 428.68-41.538 13.732 8.68 31.087 16.132 48.39 24.87a254.028 254.028 0 0 1 27.991 16.071c31.736 21.489 55.423 53.329 43.089 114.646z" transform="translate(-719.432 -544.989)"/>
            <path id="Path_10046-2" fill="#d9e9fc" d="M1142.692 941.437l-912.181-2.8s-48.923-80.942-29.967-168.863c11.233 7.634 23.97 13.161 32.06 6.868 10.212-7.94 39.454-31.141 61.6-48.732l.007-.007c15.232-12.1 27.1-21.551 27.1-21.551s12.442-11.968 20.581-8.617c3.766 1.551 7.432 5.256 10.659 8.649l.032.029c3.734 3.922 6.884 7.41 8.936 6.641 1.857-.7 15.513-14.658 31.39-30.168 16.882-16.5 36.273-34.757 46.635-40.676 0 0 9.637-9.878 20.1 1.436 5.359 5.792 13.6 20.6 22.812 38.4 21.248 41.063 47.643 98.089 55.657 97.329 11.488-1.088 29.36-26.619 40.21-29.172s60.256 86.76 81.322 90.589 61.277-28.725 93.831-19.151 85.219 63.2 134.053 53.621c39.081-7.663 127.446-50.867 184.076-64.542 43.606 22.017 86.877 52.198 71.087 130.717z" transform="translate(-15.022 -286.929)"/>
            <path id="Path_10047" fill="#8cb7ea" d="M1143.29 1239.328l-130.982 1.236-118.5 1.118-663.293-2.036s-23.261-38.483-31.491-91.2a230.253 230.253 0 0 1-2.818-38.993c84.053 6.4 243.927 52.614 288.3 60.478 50.422 8.935 222.756 17.873 275.094 31.913s107.866 9.573 135.95 5.106 116.3-3.815 145.19-20.751c18.134-10.631 60.908-18.652 63.046-14.188a171.949 171.949 0 0 1 10.068 27.038c1.862-.858 3.727-1.646 5.576-2.375-1.121-5.69-2.68-16.595.792-20.727 4.785-5.7 7.78 2.932 7.019 10.578a20.7 20.7 0 0 1-2.926 8.347c2.926-2.333 7.732-5.849 10.587-6.272a18.083 18.083 0 0 1 7.387.759 39.272 39.272 0 0 0-3.241-9.855c-2.609-5.5-13.141-8.965-20.721-12.02-6.782-2.735-11.2-5.142-5.448-8.4 6.1-3.457 14.008-.177 20.385 3.964.4.264.8.528 1.19.795a88.077 88.077 0 0 1 9.538 26.1c2.769 13.91 2.842 30.169-.702 49.385z" transform="translate(-15.02 -587.938)"/>
            <path id="Path_10048" fill="#b4d5ef" d="M1148.317 1308.278l-130.982 1.235-118.5 1.118-154.278-.474-4.7-.015-10.857-.032-141.14-.435-352.32-1.08s-23.261-38.483-31.491-91.2c66.954 5.8 199.58 18.367 358.175 38.356 227.883 28.727 346.647 47.67 470.473 9.337 22.841-7.073 42.635-13.45 59.974-18.991q8.451-2.7 16.14-5.136 7.614-2.4 14.542-4.527 7.87-2.407 14.937-4.441c.4.264.8.528 1.19.795a88.077 88.077 0 0 1 9.538 26.1c2.771 13.912 2.843 30.174-.701 49.39z" transform="translate(-20.048 -656.888)"/>
            <path id="Path_10049-2" d="M1173.272 1393.16l-233.8 2.354-154.279-.472-4.694-.016-10.86-.032-141.14-.434-352.51-1.4s-.459-.754-1.579-2.785c-1.522-2.77-3.919-7.324-6.74-13.378 37.584-13.126 105.292-39.754 169.546-19.164 95.75 30.678 479.706 35.465 547.688 23.019s154.288-30.816 178.923-7.95c6.673 6.198 9.242 11.435 9.445 20.258z" class="cls-2" transform="translate(-60.685 -741.771)"/>
            <path id="Path_10050" d="M265.425 1230.862q-.311-.556-.708-1.274c-1.522-2.77-3.919-7.324-6.74-13.378q-1.1-2.351-2.269-5-.929-2.107-1.9-4.392c-.214-.507-.431-1.021-.645-1.541-.224-.536-.447-1.076-.67-1.625 16.218-38 52.7-113.724 86.8-104.28 33.607 9.309-36.424 90.928-73.868 131.49z" class="cls-9" transform="translate(-50.996 -580.984)"/>
            <path id="Path_10051" d="M218.492 1154.219q-1.378-4.538-2.662-9.357-1.22-4.6-2.33-9.43c6.718-34.061 17.667-75.631 30.876-74.106 15.665 1.803-9.544 59.068-25.884 92.893z" class="cls-9" transform="translate(-26.086 -557.171)"/>
            <path id="Path_10052" d="M408.631 1340.381c-11.346 6.05-44.108 21.193-71.989 33.907l-14.721-.043-10.2-.031c23.777-22.138 65.367-54.461 101.875-54.1a7.212 7.212 0 0 1 7.08 5.973c.567 3.628-1.493 8.665-12.045 14.294z" class="cls-9" transform="translate(-88.818 -722.499)"/>
            <path id="Path_10053" d="M2584.266 1280.385q-.238 1.295-.5 2.608H2452.06s.426-.507 1.223-1.373c4.956-5.364 24.319-24.448 46.167-21.151 25.371 3.832 31.11-3.828 31.11-3.828a76.569 76.569 0 0 1 11.411-9.351c-17.573-6.545-49.543-19.5-34.819-22.086 13.786-2.422 30.265 10.965 39.073 19.4q1.682-.994 3.385-1.907a110.093 110.093 0 0 0-20.994-24.493c-3.783-3.289-7.471-6.078-10.985-8.659-6.791-4.99-12.937-9.214-17.882-14.8-14.248-16.112-1.385-21.015-1.385-21.015 17.117.716 29.86 12.062 39.133 26.31a114.8 114.8 0 0 1 7.259 13.031 171.974 171.974 0 0 1 10.068 27.038c1.862-.858 3.726-1.646 5.576-2.375-1.121-5.691-2.68-16.595.792-20.727 4.785-5.7 7.78 2.932 7.019 10.578a20.7 20.7 0 0 1-2.927 8.347c2.927-2.333 7.732-5.849 10.587-6.272a18.082 18.082 0 0 1 7.387.759 39.261 39.261 0 0 0-3.241-9.855c-2.609-5.5-13.141-8.965-20.721-12.02-6.782-2.735-11.2-5.143-5.448-8.4 6.1-3.457 14.008-.177 20.385 3.964.4.264.8.528 1.19.795a88.082 88.082 0 0 1 9.538 26.1c2.777 13.907 2.849 30.166-.695 49.382z" class="cls-9" transform="translate(-1455.996 -628.995)"/>
            <path id="Path_10054" d="M830.337 682.045c-5.052 1.628-12.083 2.5-12.957-4.286-1.277-9.893-29.679 9.255-44.359 13.4s-6.382-12.765-6.7-17.552c-.2-2.926-14.467 3.689-25.531 9.274 16.882-16.5 36.273-34.757 46.635-40.676 0 0 9.637-9.878 20.1 1.436 5.359 5.795 13.602 20.6 22.812 38.404z" class="cls-4" transform="translate(-362.898 -286.929)"/>
            <path id="Path_10055" d="M525.888 810.582c-.322-.291-3.058-2.528-8.045.029-5.317 2.729-12.337 4.219-15.529 3.262s-34.776 18.236-34.776 18.236l.006-.007c15.232-12.1 27.1-21.551 27.1-21.551s12.442-11.968 20.581-8.617c3.769 1.55 7.436 5.255 10.663 8.648z" class="cls-4" transform="translate(-188.355 -391.128)"/>
            <rect id="Rectangle_1796" width="984.013" height="2.61" fill="none" rx="1.305" transform="translate(172.662 651.389)"/>
            <path id="Path_10056" d="M1454.771 307.093l-271.754 89.657c14.6-10.646 28.735-28.487 48.45-47.639z" class="cls-4" transform="translate(-645.378 -75.42)"/>
            <path id="Path_10057" d="M1890.956 389.895a11.948 11.948 0 1 0 11.948 11.948 11.948 11.948 0 0 0-11.948-11.948z" class="cls-4" transform="translate(-1089.952 -128.311)"/>
            <path id="Path_10058" fill="#e8945b" d="M1102.465 1061.239a7.448 7.448 0 0 1-1.306 3.2c-.765.9-1.981 2.7-2.747 3.873-2.116-1.891-2.206-6.169-1.981-8.691a16.035 16.035 0 0 1 3.017-1.261 5.9 5.9 0 0 1 3.017 2.879z" transform="translate(-590.016 -555.301)"/>
        </g>
        <g id="Group_3317" transform="translate(56.131 -562.494)">
            <path id="Path_10059" fill="#ed7d2b" d="M1001.672 1173.8s134.618-112.982 117.505-237.332h142.6V1173.8z"/>
            <path id="Path_10060" fill="#e27329" d="M1302.942 1129.353s15.375 124.434-30.258 168.317h163.138z" transform="translate(-174.041 -123.866)"/>
            <path id="Path_10061" fill="#f99746" d="M1330.073 936.473s5.7 176.906 116.364 237.332h232.327s-146.195-160.9-156.462-237.332z" transform="translate(-210.896)"/>
            <path id="Path_10062" d="M1628.289 1537.38h-2.5a.55.55 0 0 0-.022 1.1l-10.541 20.679a.371.371 0 0 0 .329.542h.223a.664.664 0 0 0 .588-.355l11.645-20.861h.275a.552.552 0 1 0 0-1.1z" class="cls-15" transform="translate(-393.993 -385.896)"/>
            <path id="Path_10063" d="M2276.916 1537.38h-2.5a.55.55 0 0 0-.022 1.1l-10.541 20.679a.371.371 0 0 0 .328.542h.223a.662.662 0 0 0 .586-.355l11.646-20.861h.276a.552.552 0 0 0 0-1.1z" class="cls-15" transform="translate(-810.535 -385.896)"/>
        </g>
        <g id="Group_3506" transform="translate(1420.952 279.759)">
            <g id="Group_3320" transform="translate(124.726 329.652)">
                <path id="Path_10064" d="M185.162 447.368l4.092 9.52-18.31-.218-.387-9.7z" class="cls-16" transform="translate(-170.556 -446.966)"/>
                <g id="Group_3318" transform="translate(.251 7.771)">
                    <path id="Path_10065" d="M171.626 456.018a16.77 16.77 0 0 0 2.565.131c1.585.027 3.775.019 6.191-.02l6.181-.129a19.3 19.3 0 0 0 2.561-.129 17 17 0 0 0-2.564-.126c-1.586-.025-3.776-.016-6.192.023l-6.18.125a19.641 19.641 0 0 0-2.562.125z" class="cls-17" transform="translate(-171.626 -455.732)"/>
                </g>
                <g id="Group_3319" transform="translate(7.738 .194)">
                    <path id="Path_10066" d="M182.254 447.185a25.743 25.743 0 0 0 .426 7.693 25.743 25.743 0 0 0-.426-7.693z" class="cls-17" transform="translate(-182.108 -447.185)"/>
                </g>
                <path id="Path_10067" fill="#fff" d="M189 458.082l-18.3-.613-.117-1.736 17.5.15.927 1.993" opacity="0.6" transform="translate(-170.329 -447.961)"/>
            </g>
            <g id="Group_3427" transform="translate(48.943 325.356)">
                <g id="Group_3423">
                    <g id="Group_3422">
                        <g id="Group_3326" transform="translate(.05)">
                            <g id="Group_3325">
                                <g id="Group_3324">
                                    <g id="Group_3323">
                                        <g id="Group_3322">
                                            <g id="Group_3321">
                                                <path id="Path_10068" d="M255.926 451.415l.025-9.233 17.3-.063.106 13.509-1.073.073c-4.772.282-24.282 1.1-27.477.144-3.565-1.066 11.119-4.43 11.119-4.43z" class="cls-16" transform="translate(-244.247 -442.119)"/>
                                            </g>
                                        </g>
                                    </g>
                                </g>
                            </g>
                        </g>
                        <g id="Group_3331" opacity="0.4" transform="translate(0 11.195)">
                            <g id="Group_3330">
                                <g id="Group_3329">
                                    <g id="Group_3328">
                                        <g id="Group_3327">
                                            <path id="Path_10069" fill="#fff" d="M248.8 454.748s-5.145 1.505-4.5 2.351 20.393.762 29.1-.037l-.029-.387-23.034.294s-.527-2.182-1.537-2.221z" transform="translate(-244.247 -454.748)"/>
                                        </g>
                                    </g>
                                </g>
                            </g>
                        </g>
                        <g id="Group_3337" transform="translate(.049 13.101)">
                            <g id="Group_3336">
                                <g id="Group_3335">
                                    <g id="Group_3334">
                                        <g id="Group_3333">
                                            <g id="Group_3332">
                                                <path id="Path_10070" d="M273.324 456.907a1.439 1.439 0 0 1-.3.034l-.854.056-3.143.148c-2.655.107-6.324.206-10.379.227s-7.726-.043-10.381-.122l-3.144-.117-.855-.047a.15.15 0 1 1 0-.043l.855.008 3.144.051c2.656.042 6.325.081 10.378.061s7.72-.1 10.375-.166l3.144-.082.855-.016a1.612 1.612 0 0 1 .305.008z" class="cls-17" transform="translate(-243.974 -456.898)"/>
                                            </g>
                                        </g>
                                    </g>
                                </g>
                            </g>
                        </g>
                        <g id="Group_3343" transform="translate(4.428 10.983)">
                            <g id="Group_3342">
                                <g id="Group_3341">
                                    <g id="Group_3340">
                                        <g id="Group_3339">
                                            <g id="Group_3338">
                                                <path id="Path_10071" d="M271.9 457.211a4.561 4.561 0 0 0-1.67-2.7 2.793 2.793 0 0 1 1.67 2.7z" class="cls-17" transform="translate(-270.224 -454.509)"/>
                                            </g>
                                        </g>
                                    </g>
                                </g>
                            </g>
                        </g>
                        <g id="Group_3349" transform="translate(10.264 9.637)">
                            <g id="Group_3348">
                                <g id="Group_3347">
                                    <g id="Group_3346">
                                        <g id="Group_3345">
                                            <g id="Group_3344">
                                                <path id="Path_10072" d="M265.431 454.428c-.049.031-.294-.265-.548-.661s-.421-.743-.371-.774.293.264.548.66.42.747.371.775z" class="cls-17" transform="translate(-264.503 -452.99)"/>
                                            </g>
                                        </g>
                                    </g>
                                </g>
                            </g>
                        </g>
                        <g id="Group_3355" transform="translate(11.501 9.356)">
                            <g id="Group_3354">
                                <g id="Group_3353">
                                    <g id="Group_3352">
                                        <g id="Group_3351">
                                            <g id="Group_3350">
                                                <path id="Path_10073" d="M264.019 453.646c-.038.043-.312-.138-.611-.4s-.511-.518-.473-.561.313.138.612.4.512.515.472.561z" class="cls-17" transform="translate(-262.932 -452.674)"/>
                                            </g>
                                        </g>
                                    </g>
                                </g>
                            </g>
                        </g>
                        <g id="Group_3361" transform="translate(11.661 8.6)">
                            <g id="Group_3360">
                                <g id="Group_3359">
                                    <g id="Group_3358">
                                        <g id="Group_3357">
                                            <g id="Group_3356">
                                                <path id="Path_10074" d="M263.753 451.912a3.954 3.954 0 1 1-.905-.09 2.044 2.044 0 0 1 .905.09z" class="cls-17" transform="translate(-261.946 -451.821)"/>
                                            </g>
                                        </g>
                                    </g>
                                </g>
                            </g>
                        </g>
                        <g id="Group_3367" transform="translate(11.72 7.522)">
                            <g id="Group_3366">
                                <g id="Group_3365">
                                    <g id="Group_3364">
                                        <g id="Group_3363">
                                            <g id="Group_3362">
                                                <path id="Path_10075" d="M263.654 450.622a2.547 2.547 0 0 1-2.047.163 74.133 74.133 0 0 0 2.047-.163z" class="cls-17" transform="translate(-261.607 -450.605)"/>
                                            </g>
                                        </g>
                                    </g>
                                </g>
                            </g>
                        </g>
                        <g id="Group_3373" transform="translate(7.335 8.023)">
                            <g id="Group_3372">
                                <g id="Group_3371">
                                    <g id="Group_3370">
                                        <g id="Group_3369">
                                            <g id="Group_3368">
                                                <path id="Path_10076" d="M268.445 452.715a3.225 3.225 0 0 1-1.112 0 6.539 6.539 0 0 1-1.184-.255 3.242 3.242 0 0 1-.678-.277.6.6 0 0 1-.277-.344.437.437 0 0 1 .167-.445 2.039 2.039 0 0 1 2.523.585 2 2 0 0 1 .365.74.62.62 0 0 1 .03.3 3.135 3.135 0 0 0-.511-.946 1.994 1.994 0 0 0-.952-.613 1.723 1.723 0 0 0-1.323.1c-.176.132-.106.339.09.456a3.337 3.337 0 0 0 .626.263 7.576 7.576 0 0 0 1.145.293c.668.109 1.091.108 1.091.143z" class="cls-17" transform="translate(-265.182 -451.169)"/>
                                            </g>
                                        </g>
                                    </g>
                                </g>
                            </g>
                        </g>
                        <g id="Group_3379" transform="translate(10.17 7.469)">
                            <g id="Group_3378">
                                <g id="Group_3377">
                                    <g id="Group_3376">
                                        <g id="Group_3375">
                                            <g id="Group_3374">
                                                <path id="Path_10077" d="M264.018 452.7a1.093 1.093 0 0 1-.131-.771 1.819 1.819 0 0 1 .3-.813 1.116 1.116 0 0 1 .923-.571.443.443 0 0 1 .345.512 1.22 1.22 0 0 1-.187.5 3.369 3.369 0 0 1-.522.675 1.59 1.59 0 0 1-.634.452c-.02-.027.221-.2.525-.553a3.83 3.83 0 0 0 .463-.669c.152-.235.254-.658-.025-.707-.278-.026-.561.252-.73.474a1.83 1.83 0 0 0-.311.724 4.1 4.1 0 0 0-.016.747z" class="cls-17" transform="translate(-263.878 -450.544)"/>
                                            </g>
                                        </g>
                                    </g>
                                </g>
                            </g>
                        </g>
                        <g id="Group_3385" transform="translate(22.898 8.267)">
                            <g id="Group_3384">
                                <g id="Group_3383">
                                    <g id="Group_3382">
                                        <g id="Group_3381">
                                            <g id="Group_3380">
                                                <path id="Path_10078" d="M250.523 451.558c0 .039-.5-.045-1.277.051a5.418 5.418 0 0 0-4.515 3.63c-.261.742-.284 1.241-.323 1.236a.986.986 0 0 1 0-.348 4.571 4.571 0 0 1 .185-.933 5.256 5.256 0 0 1 4.641-3.732 4.565 4.565 0 0 1 .951.02.98.98 0 0 1 .338.076z" class="cls-17" transform="translate(-244.395 -451.445)"/>
                                            </g>
                                        </g>
                                    </g>
                                </g>
                            </g>
                        </g>
                        <g id="Group_3391" transform="translate(27.142 1.19)">
                            <g id="Group_3390">
                                <g id="Group_3389">
                                    <g id="Group_3388">
                                        <g id="Group_3387">
                                            <g id="Group_3386">
                                                <path id="Path_10079" d="M246.308 443.461a60.438 60.438 0 0 1 .121 7.108 60.429 60.429 0 0 1-.121-7.108z" class="cls-17" transform="translate(-246.248 -443.461)"/>
                                            </g>
                                        </g>
                                    </g>
                                </g>
                            </g>
                        </g>
                        <g id="Group_3397" transform="translate(15.647 11.699)">
                            <g id="Group_3396">
                                <g id="Group_3395">
                                    <g id="Group_3394">
                                        <g id="Group_3393">
                                            <g id="Group_3392">
                                                <path id="Path_10080" d="M258.84 455.336a14.181 14.181 0 0 1-5.054.069c.005-.06 1.135 0 2.527-.018s2.52-.112 2.527-.051z" class="cls-17" transform="translate(-253.786 -455.316)"/>
                                            </g>
                                        </g>
                                    </g>
                                </g>
                            </g>
                        </g>
                        <g id="Group_3403" transform="translate(23.6 11.693)">
                            <g id="Group_3402">
                                <g id="Group_3401">
                                    <g id="Group_3400">
                                        <g id="Group_3399">
                                            <g id="Group_3398">
                                                <path id="Path_10081" d="M250.444 455.316c.043.042-.091.239-.206.5s-.176.489-.236.486-.09-.273.044-.572.36-.455.398-.414z" class="cls-17" transform="translate(-249.953 -455.309)"/>
                                            </g>
                                        </g>
                                    </g>
                                </g>
                            </g>
                        </g>
                        <g id="Group_3409" transform="translate(24.708 10.096)">
                            <g id="Group_3408">
                                <g id="Group_3407">
                                    <g id="Group_3406">
                                        <g id="Group_3405">
                                            <g id="Group_3404">
                                                <path id="Path_10082" d="M249.173 453.516c.041.041-.07.221-.248.4s-.355.3-.4.256.069-.221.247-.4.359-.297.401-.256z" class="cls-17" transform="translate(-248.518 -453.508)"/>
                                            </g>
                                        </g>
                                    </g>
                                </g>
                            </g>
                        </g>
                        <g id="Group_3415" transform="translate(26.201 9.272)">
                            <g id="Group_3414">
                                <g id="Group_3413">
                                    <g id="Group_3412">
                                        <g id="Group_3411">
                                            <g id="Group_3410">
                                                <path id="Path_10083" d="M247.455 452.676c-.012.059-.241.058-.5.148s-.436.227-.481.187.1-.278.414-.386.584-.003.567.051z" class="cls-17" transform="translate(-246.469 -452.578)"/>
                                            </g>
                                        </g>
                                    </g>
                                </g>
                            </g>
                        </g>
                        <g id="Group_3421" transform="translate(27.965 8.982)">
                            <g id="Group_3420">
                                <g id="Group_3419">
                                    <g id="Group_3418">
                                        <g id="Group_3417">
                                            <g id="Group_3416">
                                                <path id="Path_10084" d="M245.522 452.291c.02.054-.078.143-.222.2s-.277.058-.3 0 .078-.144.222-.2.278-.054.3 0z" class="cls-17" transform="translate(-245 -452.252)"/>
                                            </g>
                                        </g>
                                    </g>
                                </g>
                            </g>
                        </g>
                    </g>
                </g>
                <g id="Group_3426" opacity="0.3" transform="translate(11.721 5.506)">
                    <g id="Group_3425">
                        <g id="Group_3424">
                            <path id="Path_10085" d="M261.684 450.509l-17.436.018.019-2.083 17.355-.114z" transform="translate(-244.248 -448.33)"/>
                        </g>
                    </g>
                </g>
            </g>
            <g id="Group_3435" transform="translate(55.23 151.753)">
                <g id="Group_3430">
                    <path id="Path_10086" d="M228.25 248.934l30.156 175.442-24.456 1.014-31.424-152.2-8.1 152.325-26.9-.413 9.766-178.819z" class="cls-16" transform="translate(-167.526 -246.282)"/>
                    <path id="Path_10087" d="M228.25 248.934l30.156 175.442-24.456 1.014-31.424-152.2-8.1 152.325-26.9-.413 9.766-178.819z" opacity="0.5" transform="translate(-167.526 -246.282)"/>
                    <g id="Group_3428" transform="translate(27.478 26.71)">
                        <path id="Path_10088" d="M211.291 276.462a4.014 4.014 0 0 0 .968.13l2.646.19c2.234.151 5.322.3 8.714.636s6.452.792 8.672 1.081l2.631.332a3.931 3.931 0 0 0 .975.06 4.022 4.022 0 0 0-.948-.238c-.614-.125-1.506-.287-2.61-.478-2.208-.372-5.266-.878-8.676-1.218s-6.506-.436-8.744-.5c-1.12-.029-2.026-.044-2.653-.043a3.972 3.972 0 0 0-.975.048z" class="cls-17" transform="translate(-211.291 -276.413)"/>
                    </g>
                    <g id="Group_3429" transform="translate(7.891 6.886)">
                        <path id="Path_10089" d="M247 263.049a1.764 1.764 0 0 0 .658.169 9.1 9.1 0 0 0 1.849.085 10.718 10.718 0 0 0 9.456-6.8 9.075 9.075 0 0 0 .509-1.779 1.752 1.752 0 0 0 .05-.678c-.081-.017-.23.939-.859 2.33a11.166 11.166 0 0 1-9.181 6.6c-1.518.155-2.471-.008-2.482.073z" class="cls-17" transform="translate(-247.001 -254.05)"/>
                    </g>
                </g>
                <path id="Path_10090" d="M250.392 314.607c-6.458 19.38-1.861 34.069-1.861 34.069H261.6l2.815-33z" class="cls-17" transform="translate(-243.934 -254.039)"/>
                <path id="Path_10091" d="M184.495 403.835a37.024 37.024 0 0 0-6.211-35.859h-6.6l5.225 35.859z" class="cls-17" transform="translate(-99.458 -260.099)"/>
                <g id="Group_3431" transform="translate(4.076 62.055)">
                    <path id="Path_10092" d="M247.614 322.939a2.726 2.726 0 0 0 .762.288c.5.155 1.227.365 2.137.586a17.988 17.988 0 0 0 7.311.454 6.45 6.45 0 0 0 2.023-.713 5.58 5.58 0 0 0 1.516-1.31 8.441 8.441 0 0 0 1.5-2.973 16.828 16.828 0 0 0 .473-2.173 2.714 2.714 0 0 0 .072-.813c-.083-.02-.285 1.13-.856 2.886a8.6 8.6 0 0 1-1.518 2.8 5.329 5.329 0 0 1-3.3 1.842 19.632 19.632 0 0 1-7.155-.318 25.4 25.4 0 0 0-2.965-.556z" class="cls-23" transform="translate(-247.613 -316.285)"/>
                </g>
                <g id="Group_3432" transform="translate(14.359 69.1)">
                    <path id="Path_10093" d="M253.42 351.026c.075-.027-.449-1.461-1.084-3.833a51.284 51.284 0 0 1-1.443-19.008c.27-2.441.572-3.937.494-3.953a4.843 4.843 0 0 0-.292 1.034c-.165.671-.348 1.654-.526 2.878a44.989 44.989 0 0 0 1.453 19.137c.36 1.183.69 2.128.954 2.767a4.818 4.818 0 0 0 .444.978z" class="cls-23" transform="translate(-250.137 -324.232)"/>
                </g>
                <g id="Group_3433" transform="translate(72.513 108.382)">
                    <path id="Path_10094" d="M174.252 368.545a2.748 2.748 0 0 0 .043.819c.064.521.177 1.275.366 2.2a37.246 37.246 0 0 0 2.2 7.009l.515 1.157.069.155.171-.024c2.531-.365 4.793-.544 6.418-.638a21.4 21.4 0 0 0 2.618-.189 12.678 12.678 0 0 0-2.628-.119 51.463 51.463 0 0 0-6.472.492l.24.13-.505-1.145a46.73 46.73 0 0 1-2.311-6.9c-.45-1.816-.654-2.958-.724-2.947z" class="cls-23" transform="translate(-174.236 -368.545)"/>
                </g>
                <g id="Group_3434" transform="translate(75.917 119.374)">
                    <path id="Path_10095" d="M183.517 406.418a4.855 4.855 0 0 1-1.085-.06 3.739 3.739 0 0 1-2.272-1.714 10.047 10.047 0 0 1-1.072-4.237c-.192-1.69-.4-3.53-.623-5.461-.456-3.874-.893-7.377-1.233-9.911l-.426-3a5.21 5.21 0 0 0-.219-1.092 5.126 5.126 0 0 0 .04 1.113l.281 3.015c.256 2.543.643 6.053 1.1 9.927l.66 5.457a9.981 9.981 0 0 0 1.218 4.362 3.806 3.806 0 0 0 2.515 1.716 2.479 2.479 0 0 0 .842-.016c.184-.045.277-.083.274-.099z" class="cls-23" transform="translate(-176.571 -380.945)"/>
                </g>
            </g>
            <g id="Group_3458" transform="translate(3.119 42.342)">
                <path id="Path_10096" d="M296.712 126.446L273.7 140.825l-25.6-17.968-20.81 13.859v76.449l20.81-11.021 23.023 13.181 25.514-10.97 20.664 8.7-2.176-67.058z" class="cls-23" transform="translate(-227.292 -122.857)"/>
                <path id="Path_10097" fill="#f5f5f5" d="M312.164 148.448l2.2 57.866-15.389-6.414-25.469 12.322-22.891-15.638-18.685 11.487V140l16.486-12.456 24.731 19.056 24-14.769z" transform="translate(-228.464 -123.39)"/>
                <g id="Group_3436" transform="translate(3.467 4.729)">
                    <path id="Path_10098" d="M282.8 213.21v-37.491a9.306 9.306 0 0 1 12.247-1.18c4.425 3.526 4.966 10.745 9.9 13.52 2.057 1.159 4.519 1.3 6.752 2.062a12.5 12.5 0 0 1 4.048 21.344l-14.261-9.742z" class="cls-25" transform="translate(-282.801 -133.252)"/>
                    <path id="Path_10099" d="M285.827 128.192l23.985 18.478 4.973-3.061c.972 2.908.7 6.359-1.323 8.651a13.308 13.308 0 0 1-.188 5.11 10.882 10.882 0 0 1-7.372 7.947 8.588 8.588 0 0 1-9.7-4.029c-1.046-2.07-1.254-4.773-3.188-6.054-2.208-1.463-5.1-.12-7.712.288-5.586.869-11.276-3.368-12.7-8.84a14.283 14.283 0 0 1 2.038-11.174l8.873-6.7a20.025 20.025 0 0 1 2.314-.616z" class="cls-25" transform="translate(-268.597 -128.192)"/>
                    <path id="Path_10100" d="M240.724 206.437c1.852-2.963 1.893-6.7 1.486-10.168s-1.207-6.946-.829-10.419 2.268-7.071 5.567-8.221c1.859-.648 3.921-.447 5.8-1.026 3.491-1.076 5.686-4.674 6.333-8.27s.072-7.28-.2-10.923-.194-7.494 1.6-10.677a8.264 8.264 0 0 1 4.977-3.833l6.588 7.29 2.2 57.866-15.387-6.408-25.469 12.322-1.456-1c3.336-1.77 6.847-3.423 8.79-6.533z" class="cls-25" transform="translate(-191.812 -129.862)"/>
                </g>
                <g id="Group_3457" transform="translate(7.346 27.579)">
                    <g id="Group_3437" transform="translate(75.652 27.42)">
                        <path id="Path_10101" d="M233.009 184.909a20.137 20.137 0 0 0 1.056 1.913c.525 1.062.675 2.033.809 2.022a3.079 3.079 0 0 0-.394-2.223c-.559-1.154-1.394-1.801-1.471-1.712z" class="cls-16" transform="translate(-232.999 -184.901)"/>
                    </g>
                    <g id="Group_3438" transform="translate(67.554 24.451)">
                        <path id="Path_10102" d="M239.392 181.929c.011.063.266.1.664.1s.938-.054 1.532 0a13.717 13.717 0 0 0 2.187.186 3.514 3.514 0 0 0-2.159-.647 5.747 5.747 0 0 0-1.6.138c-.398.079-.636.16-.624.223z" class="cls-16" transform="translate(-239.391 -181.551)"/>
                    </g>
                    <g id="Group_3439" transform="translate(59.93 26.358)">
                        <path id="Path_10103" d="M249 186.446c.094.091.848-.549 1.8-1.294s1.752-1.317 1.688-1.432a4.21 4.21 0 0 0-1.973 1.069c-.982.769-1.605 1.572-1.515 1.657z" class="cls-16" transform="translate(-248.992 -183.702)"/>
                    </g>
                    <g id="Group_3440" transform="translate(54.784 32.526)">
                        <path id="Path_10104" d="M256.087 194.431c.111.063.722-.725 1.363-1.76a5.58 5.58 0 0 0 .974-2.006c-.1-.073-.715.714-1.364 1.76a5.485 5.485 0 0 0-.973 2.006z" class="cls-16" transform="translate(-256.069 -190.661)"/>
                    </g>
                    <g id="Group_3441" transform="translate(50.164 40.137)">
                        <path id="Path_10105" d="M261.2 202.962c.1.077.73-.7 1.4-1.729a5.492 5.492 0 0 0 1.019-1.984c-.111-.064-.739.71-1.4 1.729a5.6 5.6 0 0 0-1.019 1.984z" class="cls-16" transform="translate(-261.19 -199.246)"/>
                    </g>
                    <g id="Group_3442" transform="translate(43.609 47.158)">
                        <path id="Path_10106" d="M267.244 209.686c.027.058.27-.012.645-.171a7.041 7.041 0 0 0 1.393-.763c1.023-.712 1.68-1.487 1.593-1.575a8.03 8.03 0 0 0-1.857 1.2c-.488.354-.958.628-1.285.855s-.517.397-.489.454z" class="cls-16" transform="translate(-267.241 -207.167)"/>
                    </g>
                    <g id="Group_3443" transform="translate(34.975 50.931)">
                        <path id="Path_10107" d="M276.1 211.634a4.312 4.312 0 0 0 2.221.3 4.256 4.256 0 0 0 2.2-.441 7.942 7.942 0 0 0-2.214-.021 7.748 7.748 0 0 0-2.207.162z" class="cls-16" transform="translate(-276.102 -211.423)"/>
                    </g>
                    <g id="Group_3444" transform="translate(26.623 48.366)">
                        <path id="Path_10108" d="M285.975 208.547a7.088 7.088 0 0 0 4.02 1.847 22.86 22.86 0 0 0-4.02-1.847z" class="cls-16" transform="translate(-285.971 -208.529)"/>
                    </g>
                    <g id="Group_3445" transform="translate(20.143 42.395)">
                        <path id="Path_10109" d="M294.481 201.8a4.631 4.631 0 0 0 1.23 1.87c.824.925 1.638 1.524 1.722 1.431s-.572-.833-1.377-1.738-1.47-1.641-1.575-1.563z" class="cls-16" transform="translate(-294.468 -201.794)"/>
                    </g>
                    <g id="Group_3446" transform="translate(15.912 34.629)">
                        <path id="Path_10110" d="M300.5 193.034a8.282 8.282 0 0 0 1.838 4.034 6.554 6.554 0 0 0-.774-2.083 6.483 6.483 0 0 0-1.064-1.951z" class="cls-16" transform="translate(-300.467 -193.032)"/>
                    </g>
                    <g id="Group_3447" transform="translate(13.724 26.046)">
                        <path id="Path_10111" d="M304.115 183.351a4.611 4.611 0 0 0 .082 2.236 4.755 4.755 0 0 0 .7 2.123 6.6 6.6 0 0 0-.25-2.206 6.894 6.894 0 0 0-.532-2.153z" class="cls-16" transform="translate(-304.023 -183.351)"/>
                    </g>
                    <g id="Group_3448" transform="translate(13.807 17.412)">
                        <path id="Path_10112" d="M304.767 173.614a3.855 3.855 0 0 0-1.069 1.976 4.051 4.051 0 0 0-.26 2.23 8.8 8.8 0 0 0 .7-2.094 9.913 9.913 0 0 0 .629-2.112z" class="cls-16" transform="translate(-303.369 -173.61)"/>
                    </g>
                    <g id="Group_3449" transform="translate(18.006 11.819)">
                        <path id="Path_10113" d="M299.738 167.329a4.143 4.143 0 0 0-2.121.732c-1.094.606-1.8 1.35-1.721 1.441a9.331 9.331 0 0 0 1.947-1.039 8.433 8.433 0 0 0 1.895-1.134z" class="cls-16" transform="translate(-295.889 -167.301)"/>
                    </g>
                    <g id="Group_3450" transform="translate(26.15 10.372)">
                        <path id="Path_10114" d="M290.477 165.932a7.5 7.5 0 0 0-4.425.154 7.128 7.128 0 0 0 2.217.05 7.026 7.026 0 0 0 2.208-.204z" class="cls-16" transform="translate(-286.052 -165.668)"/>
                    </g>
                    <g id="Group_3451" transform="translate(35.005 8.398)">
                        <path id="Path_10115" d="M280.577 163.445c-.131-.059-.511.885-1.532 1.451-1 .574-2.012.706-1.986.855a2.947 2.947 0 0 0 2.219-.457 2.891 2.891 0 0 0 1.144-1.183c.187-.382.207-.649.155-.666z" class="cls-16" transform="translate(-277.059 -163.442)"/>
                    </g>
                    <g id="Group_3452" transform="translate(33.876 1.737)">
                        <path id="Path_10116" d="M278.281 155.95c-.026.058.171.222.506.439s.819.47 1.3.821c.983.677 1.669 1.378 1.77 1.3s-.463-.955-1.506-1.675a5.927 5.927 0 0 0-1.417-.734c-.381-.15-.626-.209-.653-.151z" class="cls-16" transform="translate(-278.279 -155.928)"/>
                    </g>
                    <g id="Group_3453" transform="translate(25.232)">
                        <path id="Path_10117" d="M287.1 154.265a27.862 27.862 0 0 0 4.418.17 6.715 6.715 0 0 0-4.418-.17z" class="cls-16" transform="translate(-287.096 -153.969)"/>
                    </g>
                    <g id="Group_3454" transform="translate(16.821 1.229)">
                        <path id="Path_10118" d="M296.952 157.09a5.938 5.938 0 0 0 2.114-.691 6.608 6.608 0 0 0 1.977-1.012 4.769 4.769 0 0 0-2.157.587 5.155 5.155 0 0 0-1.934 1.116z" class="cls-16" transform="translate(-296.949 -155.355)"/>
                    </g>
                    <g id="Group_3455" transform="translate(8.555 4.755)">
                        <path id="Path_10119" d="M306.123 160.673a4.707 4.707 0 0 0 2.214-.337 5.5 5.5 0 0 0 2.013-.974 5.534 5.534 0 0 0-2.154.535 6.72 6.72 0 0 0-2.073.776z" class="cls-16" transform="translate(-306.123 -159.332)"/>
                    </g>
                    <g id="Group_3456" transform="translate(0 4.683)">
                        <path id="Path_10120" d="M315.881 159.266a3.466 3.466 0 0 0 1.9 1.206 3.8 3.8 0 0 0 2.23.3 10.4 10.4 0 0 0-2.077-.731 14.615 14.615 0 0 0-2.053-.775z" class="cls-16" transform="translate(-315.876 -159.251)"/>
                    </g>
                </g>
            </g>
            <g id="Group_3459" transform="translate(115.954 88.576)">
                <path id="Path_10121" d="M200.86 175.013a1.355 1.355 0 0 0-.094.4l-.182 1.144-.6 4.219c-.512 3.628-1.2 8.516-1.966 13.918-.766 5.438-1.418 10.367-1.838 13.942-.21 1.787-.368 3.235-.462 4.237-.039.458-.071.839-.1 1.155a1.432 1.432 0 0 0 0 .407 1.415 1.415 0 0 0 .093-.4l.182-1.145c.152-1.067.356-2.491.6-4.218.513-3.629 1.2-8.517 1.967-13.921.765-5.437 1.418-10.365 1.837-13.941.21-1.787.369-3.235.462-4.237l.1-1.155a1.419 1.419 0 0 0 .001-.405z" class="cls-17" transform="translate(-195.604 -175.013)"/>
            </g>
            <g id="Group_3484" transform="translate(64.594)">
                <g id="Group_3472" transform="translate(0 8.683)">
                    <g id="Group_3470" transform="translate(3.913 3.893)">
                        <g id="Group_3469">
                            <g id="Group_3468">
                                <g id="Group_3467">
                                    <g id="Group_3466">
                                        <g id="Group_3462" transform="translate(1.532 5.306)">
                                            <g id="Group_3461">
                                                <g id="Group_3460">
                                                    <path id="Path_10122" d="M247.675 99.044l2 40.6-17.375 1.639-.961-9.854s-6.131 1.515-7.993-4.158c-1.19-3.624-2.248-32.006-2.248-32.006z" class="cls-26" transform="translate(-221.094 -95.266)"/>
                                                </g>
                                            </g>
                                        </g>
                                        <g id="Group_3465">
                                            <g id="Group_3464">
                                                <g id="Group_3463">
                                                    <path id="Path_10123" d="M215.9 99.328c-.48 3.8 4.832 6 4.832 6l.928 8.989a17.633 17.633 0 0 1 2.5-.022c-.448-4.218 4.984-3.4 5.537-.519.532 2.766-2.618 4.611-2.618 4.611 2.174 3.336 3.056 5.1 6.141 8.222 3.339 3.383 5.134 3.657 8.582 3.555l3.8-.176s1.352-3.244 2.343-10.909c.477-3.687 3.355-8.517 2.536-14.511-2.328-17.033-18.648-15.233-18.648-15.233-8.475.236-14.82 1.175-15.933 9.993z" class="cls-17" transform="translate(-215.866 -89.28)"/>
                                                </g>
                                            </g>
                                        </g>
                                    </g>
                                </g>
                            </g>
                        </g>
                    </g>
                    <g id="Group_3471">
                        <path id="Path_10124" d="M242.468 104.545a12.859 12.859 0 0 1-8.233-8.78 6.332 6.332 0 0 1 .308-4.712 3.233 3.233 0 0 1 4.115-1.464 4.719 4.719 0 0 1 9.169-1.561 4.232 4.232 0 0 1 4.687-1.314 6 6 0 0 1 3.515 3.615 10.536 10.536 0 0 1 .423 5.137" class="cls-17" transform="translate(-233.931 -84.888)"/>
                    </g>
                </g>
                <path id="Path_10125" d="M235.708 110.841c3.1-3.052 4.048-6.232 3.7-10.568A16.783 16.783 0 0 0 226.6 75.159a7.194 7.194 0 0 0-4.347.662 3.416 3.416 0 0 0-1.732 3.759c.448 1.422 2.523 2.152 3.552 1.074-3.393 2.02-6.853 4.1-9.4 7.117s-4.045 7.215-2.87 10.985c.961 3.086 3.509 5.4 6.121 7.3 5.145 3.746 11.681 6.611 17.777 4.784" class="cls-16" transform="translate(-199.014 -75.093)"/>
                <g id="Group_3473" transform="translate(17.457 10.368)">
                    <path id="Path_10126" d="M214.08 86.789A5.1 5.1 0 0 0 214.2 88a16.1 16.1 0 0 0 .9 3.2 17.667 17.667 0 0 0 17.32 11.281 16.039 16.039 0 0 0 3.291-.468 5.065 5.065 0 0 0 1.157-.381 30 30 0 0 1-4.457.523A17.949 17.949 0 0 1 215.4 91.077a30.068 30.068 0 0 1-1.32-4.288z" class="cls-17" transform="translate(-214.07 -86.789)"/>
                </g>
                <g id="Group_3474" transform="translate(29.021 26.076)">
                    <path id="Path_10127" d="M219.613 114.42a4.087 4.087 0 0 0 1.793-.575 8.283 8.283 0 0 0 4.527-7.482 4.073 4.073 0 0 0-.324-1.855c-.075.013.059.718 0 1.847a8.813 8.813 0 0 1-4.358 7.2c-.974.584-1.661.792-1.638.865z" class="cls-17" transform="translate(-219.612 -104.508)"/>
                </g>
                <g id="Group_3475" transform="translate(22.687 24.528)">
                    <path id="Path_10128" d="M227.361 111.565a3.735 3.735 0 0 0 1.514-.644 9.154 9.154 0 0 0 4.217-6.516 3.723 3.723 0 0 0-.034-1.644 13.385 13.385 0 0 0-.288 1.59 10.386 10.386 0 0 1-4.076 6.3 13.41 13.41 0 0 0-1.333.914z" class="cls-17" transform="translate(-227.36 -102.762)"/>
                </g>
                <g id="Group_3476" transform="translate(16.175 21.177)">
                    <path id="Path_10129" d="M233.579 106.836a35.1 35.1 0 0 1 2.921-4.336 35.165 35.165 0 0 1 3.865-3.515 12.924 12.924 0 0 0-6.784 7.847z" class="cls-17" transform="translate(-233.568 -98.982)"/>
                </g>
                <g id="Group_3477" transform="translate(12.402 15.833)">
                    <path id="Path_10130" d="M237.9 99.413a20.5 20.5 0 0 1 2.663-3.983 12.722 12.722 0 0 1 4.069-2.456 3.232 3.232 0 0 0-1.425.266 7.757 7.757 0 0 0-2.971 1.864 9.39 9.39 0 0 0-1.934 2.92 3.591 3.591 0 0 0-.402 1.389z" class="cls-17" transform="translate(-237.884 -92.954)"/>
                </g>
                <g id="Group_3478" class="cls-27" transform="translate(24.704 17.941)">
                    <path id="Path_10131" d="M229.511 101.294a8.057 8.057 0 0 1-6.274-1.134c-1.891-1.1-3.514-2.6-5.337-3.815a5.823 5.823 0 0 0-2.062-.96 2.431 2.431 0 0 0-2.138.526 2.344 2.344 0 0 0-.5 2.331 4.5 4.5 0 0 0 1.432 2.018c2.707 2.366 6.571 2.776 10.166 2.864a7.445 7.445 0 0 0 2.438-.22 2.664 2.664 0 0 0 1.773-1.571" transform="translate(-213.091 -95.332)"/>
                </g>
                <g id="Group_3479" transform="translate(24.174 13.064)">
                    <path id="Path_10132" d="M213.617 89.831a2.944 2.944 0 0 0 .357.762c.258.475.648 1.152 1.166 1.97a23.846 23.846 0 0 0 4.911 5.751 13.2 13.2 0 0 0 6.928 2.983 8.841 8.841 0 0 0 2.306-.069 2.527 2.527 0 0 0 .816-.22 18.23 18.23 0 0 1-3.085-.035 13.754 13.754 0 0 1-6.674-3.018 26.932 26.932 0 0 1-4.93-5.573 29.794 29.794 0 0 0-1.795-2.551z" class="cls-17" transform="translate(-213.614 -89.83)"/>
                </g>
                <g id="Group_3480" transform="translate(26.358 18.173)">
                    <path id="Path_10133" d="M228.933 95.594a5.817 5.817 0 0 1-1.864 5.64c.026.047.386-.074.853-.463a4.482 4.482 0 0 0 1.42-4.3c-.142-.588-.361-.9-.409-.877z" class="cls-17" transform="translate(-227.065 -95.593)"/>
                </g>
                <g id="Group_3481" transform="translate(21.937 1.887)">
                    <path id="Path_10134" d="M221.558 78.521c.028.036.326-.215.946-.5a5.776 5.776 0 0 1 2.806-.466 6.784 6.784 0 0 1 3.859 1.586 9.869 9.869 0 0 1 2.822 4.322 13.666 13.666 0 0 1 .8 5.157 6.327 6.327 0 0 1-1.479 3.888 4.949 4.949 0 0 1-2.374 1.528c-.66.168-1.051.137-1.051.181 0 .016.094.033.28.049a3.556 3.556 0 0 0 .811-.054 4.863 4.863 0 0 0 2.575-1.485 6.527 6.527 0 0 0 1.661-4.076 13.607 13.607 0 0 0-.785-5.342 10.044 10.044 0 0 0-2.985-4.494 6.956 6.956 0 0 0-4.111-1.585 5.578 5.578 0 0 0-2.906.63 3.779 3.779 0 0 0-.668.46c-.143.12-.211.189-.201.201z" class="cls-17" transform="translate(-221.557 -77.221)"/>
                </g>
                <g id="Group_3482" transform="translate(22.561 1.038)">
                    <path id="Path_10135" d="M225.2 98.414a1.182 1.182 0 0 0 .377-.022 5.435 5.435 0 0 0 1.046-.272 7.351 7.351 0 0 0 3.194-2.335 9.321 9.321 0 0 0 1.94-5.526 13.277 13.277 0 0 0-1.729-6.968 13.528 13.528 0 0 0-10.592-6.96 13.256 13.256 0 0 0-3.955.192 9.83 9.83 0 0 0-1.04.277 1.152 1.152 0 0 0-.349.139 16.984 16.984 0 0 1 5.308-.285 13.717 13.717 0 0 1 5.407 1.847 13.572 13.572 0 0 1 4.818 5.013 13.083 13.083 0 0 1 1.707 6.728 9.142 9.142 0 0 1-1.773 5.339 7.532 7.532 0 0 1-3 2.37c-.845.365-1.367.415-1.359.463z" class="cls-17" transform="translate(-214.094 -76.264)"/>
                </g>
                <g id="Group_3483" transform="translate(18.589 3.594)">
                    <path id="Path_10136" d="M227.893 91.082a5.735 5.735 0 0 1 .712-2.9 6.656 6.656 0 0 1 2.263-2.3 15.806 15.806 0 0 1 3.707-1.612 5.052 5.052 0 0 0 1.935-1.07 2.3 2.3 0 0 0 .758-1.964 2.357 2.357 0 0 0-1.074-1.573 3.05 3.05 0 0 0-1.555-.509 5.873 5.873 0 0 0-2.263.407 2.65 2.65 0 0 0-.761.343 3.228 3.228 0 0 0 .815-.171 6.532 6.532 0 0 1 2.185-.253 2.756 2.756 0 0 1 1.363.5 1.984 1.984 0 0 1 .87 1.317 1.887 1.887 0 0 1-.652 1.581 4.71 4.71 0 0 1-1.77.955 15.128 15.128 0 0 0-3.789 1.692 6.713 6.713 0 0 0-2.317 2.5 4.765 4.765 0 0 0-.563 2.229 1.79 1.79 0 0 0 .136.828z" class="cls-17" transform="translate(-227.755 -79.146)"/>
                </g>
            </g>
            <g id="Group_3490" transform="translate(0 65.767)">
                <g id="Group_3488" transform="translate(0 2.797)">
                    <g id="Group_3487">
                        <g id="Group_3486">
                            <g id="Group_3485">
                                <path id="Path_10137" d="M322.771 177.512l-3.759-1.622c-3.292-1.772-5.191-2.632-5.767-3.947-.771-1.76 1.5-2.221 1.5-2.221s-2.127-1.893-1.26-3.31a1.633 1.633 0 0 1 1.817-.589s-1.833-1.773-1.884-2.868c-.069-1.493 1.756-1.509 1.756-1.509-2.217-3.094-1.183-4.8-.417-4.695s2.65 2.156 2.65 2.156c1.733 1.386 6.417 5.274 5.667 1.48s.1-7 .938-7.7 2.118.2 1.836 1.365a14.119 14.119 0 0 0 .015 3.9 9.245 9.245 0 0 0 .844 3.014c.53 1.1 1.021 2.018 1.459 2.786l2 4.65z" class="cls-26" transform="translate(-313.084 -152.437)"/>
                            </g>
                        </g>
                    </g>
                </g>
                <path id="Path_10138" d="M312.67 167.282l-26.974 36.9a11.7 11.7 0 0 1-17.333 1.745l-29.946-27.287 10.867-13.088 25.116 19.362 18.428-30.548A11.844 11.844 0 0 1 309.3 151.4a11.845 11.845 0 0 1 3.37 15.882z" class="cls-16" transform="translate(-231.127 -149.282)"/>
                <g id="Group_3489" transform="translate(63.161 23.926)">
                    <path id="Path_10139" d="M259.289 176.273a3.854 3.854 0 0 0-.574.77l-1.437 2.176c-1.209 1.838-2.9 4.363-4.843 7.1s-3.778 5.159-5.118 6.9l-1.583 2.071a3.8 3.8 0 0 0-.54.794 3.885 3.885 0 0 0 .678-.68c.415-.457 1-1.133 1.7-1.981 1.409-1.7 3.287-4.1 5.239-6.841s3.6-5.3 4.743-7.192c.571-.943 1.019-1.714 1.314-2.256a3.8 3.8 0 0 0 .421-.861z" class="cls-23" transform="translate(-245.192 -176.272)"/>
                </g>
            </g>
            <g id="Group_3493" transform="translate(59.977 61.803)">
                <path id="Path_10140" d="M198.556 184.922s4.748 20.656 4.809 23.4c.082 3.6-4.494 9.8-8.694 10.647-6.712 1.347-13.233-4.523-13.233-4.523l-.811-27.7z" class="cls-16" transform="translate(-128.848 -149.365)"/>
                <g id="Group_3492">
                    <path id="Path_10141" d="M255.7 182.545s-3.929-31.345-18.7-35.256-12.857-2.018-12.857-2.018l-12.373 1.469a26.757 26.757 0 0 0-23.462 23.812l.332 27.845s-3.144 19.982-3.144 21.252c0 8.1 3.144 16.873 3.144 16.873l53.08 2.378s3.411-1.228 5.018-6.261-5.252-22.04-5.252-22.04z" class="cls-16" transform="translate(-185.495 -144.811)"/>
                    <g id="Group_3491" class="cls-27" transform="translate(1.798 30.051)">
                        <path id="Path_10142" d="M260.879 178.711a131.784 131.784 0 0 1-6.8 33.565 27.574 27.574 0 0 1-2.742 6.13c-.605.934-1.539 1.9-2.638 1.722a2.179 2.179 0 0 1-1.608-1.624 6.408 6.408 0 0 1-.061-2.4c.707-7.04.6-12.7 1.307-19.742" transform="translate(-246.945 -178.711)"/>
                    </g>
                </g>
            </g>
            <g id="Group_3505" transform="translate(62.604 58.508)">
                <path id="Path_10143" d="M243.332 172.464c.121-1.462-5.223-25.154-5.223-25.154l-10.322 2.112 6.307 24.653z" class="cls-17" transform="translate(-213.247 -141.8)"/>
                <path id="Path_10144" d="M259.045 226.714c-7.725-.7-17.606-18.872-20.643-29.244-2.188 15.955 7.781 31.945 19.332 40.748" class="cls-17" transform="translate(-238.098 -147.495)"/>
                <g id="Group_3504" transform="translate(3.5)">
                    <g id="Group_3502">
                        <g id="Group_3500">
                            <path id="Path_10145" d="M165.665 192.792l5.009.027c.264 2.272-.809 4.638-.105 6.814a9.66 9.66 0 0 0 1.368 2.646c1.021 1.419 1 11.821.122 15.4h-6z" class="cls-16" transform="translate(-91.055 -146.964)"/>
                            <path id="Path_10146" d="M161.2 167.161h82.291c3.176-8.983 4.387-17.613 0-25.236H161.2c-6.318 8.106-4.7 16.596 0 25.236z" class="cls-23" transform="translate(-157.046 -141.189)"/>
                            <path id="Path_10147" d="M212.951 253.875c11.862 1.136 14.786-2.31 17.752-7.639s2.839-11.77 2.635-17.866l-1.069-31.746c-.237-7.035.388-14.631-3.232-20.668s-9.147-8.034-17.613-7.527l-20.345.533c-10.574.277-19 4.225-18.707 16.143l-.3 54.481a13.72 13.72 0 0 0 13.439 13.714z" class="cls-17" transform="translate(-157.457 -144.189)"/>
                            <path id="Rectangle_1797" d="M0 0H3.532V26.572H0z" class="cls-17" transform="translate(57.955 .068)"/>
                            <path id="Rectangle_1798" d="M0 0H3.532V26.572H0z" class="cls-17" transform="translate(29.225)"/>
                            <g id="Group_3494" transform="translate(18.852 30.664)">
                                <path id="Path_10148" d="M176.1 175.686a.831.831 0 0 0 0 .228l.04.664c.047.583.08 1.449.259 2.549a40.038 40.038 0 0 0 2.317 9.127 35.7 35.7 0 0 0 2.9 5.837 26.368 26.368 0 0 0 4.757 5.777l1.538 1.3c.546.4 1.137.755 1.714 1.141a9.007 9.007 0 0 0 .89.549l.953.459a13.231 13.231 0 0 0 1.964.856l2.077.675c.714.166 1.447.275 2.178.416.368.059.733.153 1.106.181l1.127.058c.753.026 1.514.1 2.276.085a41.983 41.983 0 0 0 8.812-1.095 28.13 28.13 0 0 0 7.672-3.093 21.383 21.383 0 0 0 5.693-4.858l1.061-1.374c.329-.463.587-.961.874-1.425a19.3 19.3 0 0 0 1.391-2.811 29.353 29.353 0 0 0 1.948-9.2c.017-1.113 0-1.978-.006-2.563l-.016-.666a.829.829 0 0 0-.021-.226.871.871 0 0 0-.027.228l-.029.665-.081 2.551a30.322 30.322 0 0 1-2.067 9.079 19.174 19.174 0 0 1-1.4 2.755c-.287.454-.543.941-.87 1.394l-1.052 1.342a21.169 21.169 0 0 1-5.616 4.736 27.938 27.938 0 0 1-7.563 3.018 41.865 41.865 0 0 1-8.713 1.073c-.753.02-1.5-.059-2.237-.083l-1.107-.055c-.366-.027-.723-.121-1.084-.177-.716-.137-1.436-.243-2.135-.4l-2.034-.659a12.815 12.815 0 0 1-1.924-.833l-.935-.447a8.618 8.618 0 0 1-.873-.535c-.566-.376-1.146-.721-1.683-1.112l-1.516-1.266a26.23 26.23 0 0 1-4.716-5.665 35.918 35.918 0 0 1-2.925-5.751 42.078 42.078 0 0 1-2.443-9.035c-.206-1.09-.268-1.95-.344-2.53l-.086-.66a.843.843 0 0 0-.044-.224z" class="cls-23" transform="translate(-176.09 -175.686)"/>
                            </g>
                            <path id="Rectangle_1799" d="M0 0H12.742V3.556H0z" class="cls-16" transform="translate(41.863 50.657)"/>
                            <g id="Group_3495" transform="translate(30.991 40.67)">
                                <path id="Rectangle_1800" d="M0 0H2.245V51.437H0z" class="cls-23" transform="translate(2.013)"/>
                                <path id="Rectangle_1801" d="M0 0H5.766V1.357H0z" class="cls-23" transform="translate(0 42.498)"/>
                            </g>
                            <g id="Group_3496" transform="translate(59.52 40.67)">
                                <path id="Rectangle_1802" d="M0 0H2.245V50.941H0z" class="cls-23" transform="translate(2.013)"/>
                                <path id="Rectangle_1803" d="M0 0H5.766V1.357H0z" class="cls-23" transform="translate(0 42.001)"/>
                            </g>
                            <g id="Group_3497" transform="translate(20.068 38.036)">
                                <path id="Path_10149" d="M172.528 184a1.46 1.46 0 0 0 .005.3l.062.862.269 3.308c.229 2.874.538 7.033.786 12.18s.42 11.28.388 18.092c-.015 3.406-.088 6.98-.224 10.684-.063 1.85-.17 3.744-.062 5.675a15.741 15.741 0 0 0 1.282 5.733 9.282 9.282 0 0 0 3.889 4.4 14.07 14.07 0 0 0 5.522 1.455c3.712.3 7.286.431 10.7.5 6.823.128 12.967-.079 18.117-.376 2.573-.168 4.9-.266 6.944-.569a12.46 12.46 0 0 0 4.969-1.722 7.621 7.621 0 0 0 2.362-2.336 4.483 4.483 0 0 0 .5-1.05c-.024-.011-.16.369-.575 1a7.826 7.826 0 0 1-2.381 2.235 12.445 12.445 0 0 1-4.909 1.619c-2.017.276-4.353.352-6.924.5-5.145.255-11.281.427-18.09.277-3.4-.081-6.981-.227-10.665-.526a13.666 13.666 0 0 1-5.342-1.406 8.825 8.825 0 0 1-3.691-4.185 15.315 15.315 0 0 1-1.243-5.569c-.109-1.9-.006-3.777.055-5.633.13-3.708.194-7.288.2-10.7.009-6.82-.2-12.961-.488-18.11s-.649-9.309-.933-12.179c-.138-1.435-.265-2.548-.355-3.3l-.108-.857a1.376 1.376 0 0 0-.06-.302z" class="cls-23" transform="translate(-172.523 -184.002)"/>
                            </g>
                            <g id="Group_3498" transform="translate(17.421 95.732)">
                                <path id="Path_10150" d="M231.307 258.2a16.21 16.21 0 0 1 6.039-9.1 4.262 4.262 0 0 0-1.442.834 12.115 12.115 0 0 0-4.39 6.617 4.253 4.253 0 0 0-.207 1.649z" class="cls-23" transform="translate(-231.282 -249.087)"/>
                            </g>
                            <g id="Group_3499" transform="translate(38.151 71.48)">
                                <path id="Path_10151" d="M192.182 221.949a3.577 3.577 0 0 0-.036.564l-.05 1.7a22.43 22.43 0 0 0 .04 2.727 9.635 9.635 0 0 0 1.039 3.439 10.045 10.045 0 0 0 7.392 5.3 10.124 10.124 0 0 0 5.478-.683 10.869 10.869 0 0 0 2.513-1.547 10.462 10.462 0 0 0 2-2.282 9.964 9.964 0 0 0 1.565-4.652c.079-1.606.018-3.1.031-4.566v-.221h-.221l-14.272.1-4.067.06-1.068.027a1.664 1.664 0 0 0-.351.027 2.421 2.421 0 0 0 .4.027l1.125.031 4.118.06 14.125.1-.218-.218c-.022 1.446.032 3-.049 4.53a9.566 9.566 0 0 1-1.5 4.439 10.043 10.043 0 0 1-1.911 2.18 10.453 10.453 0 0 1-2.4 1.483 9.75 9.75 0 0 1-5.237.678 9.739 9.739 0 0 1-8.238-8.35c-.123-1.031-.1-1.916-.124-2.643-.02-.7-.036-1.261-.05-1.7a5.167 5.167 0 0 0-.034-.61z" class="cls-23" transform="translate(-192.073 -221.729)"/>
                            </g>
                            <path id="Path_10152" d="M163.927 212.163h8.03s-.8 20.906-7.316 21.181z" class="cls-23" transform="translate(-88.76 -149.163)"/>
                        </g>
                        <g id="Group_3501" transform="translate(74.61 47.784)">
                            <path id="Path_10153" d="M168.05 195.229a13.3 13.3 0 0 0 4.931 0 13.3 13.3 0 0 0-4.931 0z" class="cls-17" transform="translate(-168.05 -194.998)"/>
                        </g>
                    </g>
                    <g id="Group_3503" transform="translate(14.342 68.581)">
                        <path id="Path_10154" d="M235.556 259.719a.75.75 0 0 0-.213-.029l-.625-.039-2.407-.1-8.852-.3-13.13-.388-7.754-.214c-1.334-.058-2.735-.026-4.079-.157a11.675 11.675 0 0 1-3.954-1.164 10.882 10.882 0 0 1-3.268-2.5 7.829 7.829 0 0 1-1.9-3.463 31.928 31.928 0 0 1-.579-7.66l-.047-13.137-.072-8.856-.043-2.409-.023-.626a.736.736 0 0 0-.023-.214.753.753 0 0 0-.024.214l-.023.626-.043 2.409-.075 8.856-.052 13.137a31.977 31.977 0 0 0 .566 7.771 8.269 8.269 0 0 0 2 3.656 11.317 11.317 0 0 0 3.4 2.607 12.115 12.115 0 0 0 4.109 1.207c1.423.135 2.767.1 4.119.152l7.755.186 13.133.29 8.856.155 2.409.019.627-.006a.743.743 0 0 0 .212-.023z" class="cls-23" transform="translate(-188.365 -218.459)"/>
                    </g>
                </g>
            </g>
        </g>
        <path id="Path_10155" fill="#eaeaea" d="M88.113-2.109c66.55 0 150.26 4.846 150.26 7.056S187.05 8 120.5 8 0 6.209 0 4s21.563-6.109 88.113-6.109z" transform="matrix(.998 -.07 .07 .998 1327.015 631.415)"/>
    </g>
</svg>
