<svg width="968" height="800" viewBox="0 0 968 800" fill="none" xmlns="http://www.w3.org/2000/svg">
<mask id="mask0" mask-type="alpha" maskUnits="userSpaceOnUse" x="0" y="0" width="968" height="800">
<rect width="968" height="800" fill="#061566"/>
</mask>
<g mask="url(#mask0)">
<circle cx="432" cy="819" r="425" fill="#FF9300"/>
</g>
<circle cx="190" cy="629" r="49" fill="#D55A00"/>
<circle cx="389" cy="648" r="13" fill="#D55A00"/>
<ellipse cx="252" cy="728.5" rx="8" ry="7.5" fill="#D55A00"/>
<ellipse cx="625" cy="636" rx="15" ry="14" fill="#D55A00"/>
<ellipse cx="472" cy="544.5" rx="11" ry="10.5" fill="#D55A00"/>
<ellipse cx="450" cy="749.5" rx="14" ry="13.5" fill="#BB0921"/>
<circle cx="469" cy="440" r="10" fill="#BB0921"/>
<ellipse cx="586" cy="736.5" rx="9" ry="8.5" fill="#D55A00"/>
<ellipse cx="71" cy="730.5" rx="37" ry="33.5" fill="#D55A00"/>
<ellipse cx="630" cy="539.5" rx="48" ry="43.5" fill="#D55A00"/>
<ellipse cx="321" cy="523.5" rx="60" ry="53.5" fill="#D55A00"/>
<ellipse cx="789" cy="744.5" rx="40" ry="35.5" fill="#D55A00"/>
<ellipse cx="776" cy="640.5" rx="7" ry="6.5" fill="#D55A00"/>
<circle cx="190" cy="617" r="49" fill="#FFA934"/>
<circle cx="389" cy="645" r="13" fill="#FFA934"/>
<ellipse cx="252" cy="726.5" rx="8" ry="7.5" fill="#FFA934"/>
<ellipse cx="625" cy="633" rx="15" ry="14" fill="#FFA934"/>
<ellipse cx="472" cy="542.5" rx="11" ry="10.5" fill="#FFA934"/>
<ellipse cx="450" cy="747.5" rx="14" ry="13.5" fill="#FFA934"/>
<circle cx="469" cy="439" r="10" fill="#FFA934"/>
<ellipse cx="586" cy="734.5" rx="9" ry="8.5" fill="#FFA934"/>
<ellipse cx="71" cy="722.5" rx="37" ry="33.5" fill="#FFA934"/>
<ellipse cx="630" cy="529.5" rx="48" ry="43.5" fill="#FFA934"/>
<ellipse cx="321" cy="509.5" rx="60" ry="53.5" fill="white"/>
<ellipse cx="789" cy="734.5" rx="40" ry="35.5" fill="#FFA934"/>
<ellipse cx="776" cy="638.5" rx="7" ry="6.5" fill="#FFA934"/>
<path d="M217.177 349.528C187.463 349.528 163.376 325.437 163.376 295.718C163.376 266 187.463 241.908 217.177 241.908C246.89 241.908 270.977 266 270.977 295.718C270.977 325.437 246.89 349.528 217.177 349.528Z" fill="#FFBB00" stroke="white" stroke-miterlimit="10"/>
<path d="M222.375 345.542C195.532 345.542 173.772 323.239 173.772 295.727C173.772 268.216 195.532 245.913 222.375 245.913C249.217 245.913 270.977 268.216 270.977 295.727C270.977 323.239 249.217 345.542 222.375 345.542Z" fill="#FFBB00" stroke="white" stroke-miterlimit="10"/>
<path d="M225.026 340.974C200.388 340.974 180.414 320.997 180.414 296.354C180.414 271.711 200.388 251.734 225.026 251.734C249.665 251.734 269.638 271.711 269.638 296.354C269.638 320.997 249.665 340.974 225.026 340.974Z" fill="#23255C" stroke="white" stroke-miterlimit="10"/>
<path d="M208.12 264.189C209.391 264.13 211.484 262.563 212.66 262.082C216.572 260.489 220.659 259.367 224.836 258.74C246.99 255.516 268.381 276.375 263.242 299.024C262.363 302.776 260.714 306.305 258.398 309.385C258.943 308.654 258.521 305.912 258.511 305.072C258.486 301.553 258.183 298.041 257.603 294.57C256.16 286.024 252.71 276.934 245.074 272.089C234.841 265.583 220.028 263.653 208.12 264.189Z" fill="#566390"/>
<path d="M196.089 295.341C191.854 295.341 188.422 291.475 188.422 286.705C188.422 281.936 191.854 278.069 196.089 278.069C200.324 278.069 203.757 281.936 203.757 286.705C203.757 291.475 200.324 295.341 196.089 295.341Z" fill="#566390"/>
<path d="M192.521 310.906C190.55 310.906 188.953 309.105 188.953 306.884C188.953 304.662 190.55 302.861 192.521 302.861C194.492 302.861 196.089 304.662 196.089 306.884C196.089 309.105 194.492 310.906 192.521 310.906Z" fill="#566390"/>
<path d="M170.358 326.662C162.262 326.662 155.699 317.88 155.699 307.047C155.699 296.214 162.262 287.432 170.358 287.432C178.454 287.432 185.017 296.214 185.017 307.047C185.017 317.88 178.454 326.662 170.358 326.662Z" fill="#FFBB00" stroke="white" stroke-miterlimit="10"/>
<path d="M166.504 326.662C160.536 326.662 155.699 319.393 155.699 310.425C155.699 301.458 160.536 294.188 166.504 294.188C172.471 294.188 177.308 301.458 177.308 310.425C177.308 319.393 172.471 326.662 166.504 326.662Z" fill="#FFBB00" stroke="white" stroke-miterlimit="10"/>
<path d="M240.32 353.215C240.32 353.215 250.307 368.844 250.698 375.269H240.747C240.747 375.269 240.252 360.004 238.245 357.593L240.32 353.215Z" fill="#FFBB00" stroke="white" stroke-miterlimit="10"/>
<path d="M243.013 384.309C243.013 384.309 250.095 385.313 249.3 392.75C249.3 392.75 249.7 399.179 244.479 400.787C244.479 400.787 238.654 389.939 238.255 386.325L243.013 384.309Z" fill="#FFBB00" stroke="white" stroke-miterlimit="10"/>
<path d="M185.022 383.91C185.022 383.91 187.632 406.404 185.022 410.826C185.022 410.826 178.998 420.466 167.771 416.447C167.771 416.447 160.339 413.033 159.536 409.418C159.536 409.418 160.444 372.495 166.522 358.614C166.522 358.614 174.998 341.728 185.04 351.971C185.04 351.971 188.109 353.788 186.375 372.858C186.357 372.858 184.641 380.164 185.022 383.91Z" fill="#FFBB00" stroke="white" stroke-miterlimit="10"/>
<path d="M235.475 388.997C235.475 388.997 240.241 409.382 243.895 412.412C243.895 412.412 252.152 418.914 260.661 411.906C260.661 411.906 266.058 406.611 265.626 403.215C265.626 403.215 253.286 371.378 243.656 361.204C243.656 361.204 231 349.166 225.469 361.218C225.469 361.218 223.367 363.758 230.841 379.806C230.857 379.8 234.635 385.619 235.475 388.997Z" fill="#FFBB00" stroke="white" stroke-miterlimit="10"/>
<path d="M245.838 413.583C244.975 415.099 244.465 416.79 244.348 418.53C244.3 420.283 244.935 422.124 246.314 423.217C247.692 424.309 249.869 424.423 251.163 423.257C250.542 425.947 252.219 428.837 254.669 430.106C257.119 431.375 260.134 431.214 262.705 430.201C272.795 426.225 273.814 411.646 265.18 405.593C263.599 409.284 260.894 412.576 257.279 414.295C253.665 416.014 249.081 415.905 245.858 413.54L245.838 413.583Z" fill="#FFBB00" stroke="white" stroke-miterlimit="10"/>
<path d="M211.933 386.321C211.933 386.321 215.147 403.393 202.495 404.397C202.495 404.397 190.36 403.82 186.887 400.996C186.887 400.996 186.229 387.724 185.021 383.91C185.021 383.91 201.492 388.931 211.933 386.321Z" fill="#FFBB00" stroke="white" stroke-miterlimit="10"/>
<path d="M196.089 403.77L192.521 417.428C192.521 417.428 186.969 415.453 183.473 412.729C183.473 412.729 187.527 410.036 186.873 401L196.089 403.77Z" fill="#FFBB00" stroke="white" stroke-miterlimit="10"/>
<path d="M244.469 400.782L246.285 405.804C246.285 405.804 248.296 412.029 238.254 416.652C238.254 416.652 226.537 423.231 192.53 417.428L196.098 403.77C196.098 403.77 210.035 409.019 212.073 394.153L211.919 386.321C211.919 386.321 223.972 390.335 238.249 386.321L244.469 400.782Z" fill="#FFBB00" stroke="white" stroke-miterlimit="10"/>
<path d="M245.328 410.976C245.328 410.976 252.905 418.241 248.288 422.677C248.288 422.677 245.473 425.601 241.056 423.739V415.112C242.041 414.804 242.941 414.269 243.682 413.551C244.424 412.832 244.988 411.951 245.328 410.976Z" fill="#FFBB00" stroke="white" stroke-miterlimit="10"/>
<path d="M226.505 424.357C225.295 424.956 224.014 425.4 222.692 425.678C221.407 425.964 220.095 426.106 218.779 426.101C218.452 426.101 218.125 426.073 217.807 426.078C217.489 426.082 217.163 426.123 216.84 426.105L215.869 426.064C215.551 426.064 215.229 425.992 214.906 425.955C214.265 425.871 213.628 425.753 213 425.601C212.369 425.456 211.756 425.229 211.134 425.052L209.935 424.711V425.901C209.858 432.217 209.695 438.546 209.4 444.858C209.245 448.009 209.059 451.164 208.778 454.297C208.637 455.864 208.478 457.426 208.251 458.965C208.138 459.732 208.015 460.5 207.847 461.235L207.72 461.78L207.566 462.302C207.52 462.479 207.448 462.607 207.393 462.756C207.393 462.793 207.361 462.834 207.348 462.865L207.302 462.934C207.273 462.978 207.247 463.025 207.225 463.074L206.73 464.141L207.611 464.495C208.878 465.015 210.094 465.652 211.243 466.398C211.819 466.769 212.375 467.171 212.909 467.601C213.445 468.023 213.876 468.546 214.402 468.963C215.423 469.844 216.233 470.942 216.772 472.178C217.028 472.815 217.194 473.484 217.267 474.167C217.33 474.877 217.303 475.593 217.185 476.296C217.466 475.617 217.66 474.904 217.762 474.176C217.84 473.419 217.811 472.655 217.676 471.906C217.345 470.392 216.668 468.976 215.696 467.769C215.22 467.171 214.67 466.637 214.057 466.18C213.475 465.709 212.869 465.268 212.241 464.859C210.98 464.042 209.644 463.347 208.251 462.784L208.637 464.205C208.714 464.087 208.796 463.964 208.868 463.837L208.977 463.651C209.009 463.592 209.023 463.542 209.05 463.487C209.132 463.274 209.236 463.033 209.291 462.843L209.477 462.221L209.618 461.612C209.799 460.799 209.926 460.005 210.072 459.206C210.303 457.612 210.466 456.027 210.612 454.438C210.898 451.26 211.066 448.081 211.234 444.903C211.533 438.546 211.688 432.226 211.774 425.874L210.562 426.723C211.247 426.922 211.924 427.177 212.609 427.322C213.3 427.493 214 427.623 214.707 427.712C215.061 427.753 215.41 427.812 215.769 427.835C216.128 427.858 216.482 427.862 216.836 427.89C217.55 427.943 218.269 427.895 218.969 427.744C220.366 427.503 221.726 427.086 223.019 426.505C224.279 425.962 225.454 425.239 226.505 424.357Z" fill="#231F20"/>
<path opacity="0.37" d="M182.543 349.946C182.021 355.953 181.934 362.206 180.273 368.045C178.572 374.021 177.806 380.224 178.003 386.434C178.089 389.218 178.38 391.992 178.557 394.771C178.711 397.236 179.011 399.951 178.325 402.358C177.263 406.099 173.481 407.539 169.904 407.112C165.314 406.567 162.64 402.571 161.319 398.485V409.55C161.319 409.55 167.979 418.631 177.304 415.149C177.304 415.149 185.421 412.851 185.021 403.611C185.021 403.611 183.9 372.372 185.021 368.258C185.04 368.231 185.984 352.044 182.543 349.946Z" fill="#755723"/>
<path opacity="0.37" d="M227.008 358.675C229.342 363.738 231.373 369.15 234.645 373.71C237.994 378.376 240.6 383.533 242.372 388.997C243.167 391.446 243.782 393.95 244.498 396.423C245.135 398.616 245.723 401.072 247.073 402.951C249.167 405.873 252.907 405.942 255.886 404.452C259.708 402.542 260.784 398.23 260.655 394.262L264.117 403.888C264.117 403.888 261.164 413.871 251.962 413.758C251.962 413.758 244.182 414.299 241.639 406.136C241.639 406.136 232.843 378.609 230.58 375.381C230.556 375.363 224.671 361.576 227.008 358.675Z" fill="#755723"/>
<path opacity="0.37" d="M209.804 397.745C209.804 397.745 189.888 396.491 187.287 394.675C187.287 394.675 187.6 400.301 187.713 400.805C187.827 401.309 187.6 400.301 187.6 400.301C192.557 401.468 197.646 402.984 202.776 403.025C204.07 403.037 205.338 402.654 206.408 401.927C207.078 401.488 207.68 400.954 208.197 400.342C208.442 400.092 209.804 397.745 209.804 397.745Z" fill="#755723"/>
<path opacity="0.37" d="M248.787 391.742C248.787 391.742 245.037 397.568 243.793 397.268L245.872 400.378C245.872 400.378 249.49 395.661 248.787 391.742Z" fill="#755723"/>
<path opacity="0.37" d="M247.706 415.934C247.706 415.934 244.369 419.462 242.463 418.758V423.753C242.463 423.753 248.75 423.263 248.877 419.276C248.711 418.096 248.313 416.96 247.706 415.934Z" fill="#755723"/>
<path opacity="0.37" d="M244.469 403.025C244.469 403.025 233.533 421.369 187.309 407.362L185.157 412.633C185.157 412.633 202.54 422.4 231.317 417.669C231.317 417.669 247.833 413.083 244.469 403.025Z" fill="#755723"/>
<path d="M243.012 347.549L238.245 357.593C238.245 357.593 241.423 374.066 240.629 377.081C240.629 377.081 241.351 382.902 243.012 384.309L238.245 386.321C238.245 386.321 222.179 390.938 211.915 386.321C211.915 386.321 194.446 387.924 185.003 383.91C185.003 383.91 187.614 357.193 185.003 351.971C181.34 344.638 170.24 351.063 167.807 355.958C166.15 359.291 164.102 363.159 163.362 366.833C163.362 366.833 161.605 365.579 161.501 365.47C159.996 363.991 158.972 362.092 158.564 360.022C157.279 354.01 160.035 345.637 164.411 341.369C166.359 339.563 168.537 338.022 170.889 336.788C172.251 336.038 178.216 332.951 179.714 334.354C179.714 334.354 197.873 351.367 214.725 349.474C214.725 349.474 221.153 356.439 222.361 360.031C222.361 360.031 226.556 350.178 229.279 348.162C229.279 348.162 236.121 346.268 238.813 344.983L243.012 347.549Z" fill="#FFBB00" stroke="white" stroke-miterlimit="10"/>
<path d="M188.303 340.08C187.164 340.198 186.034 340.334 184.921 340.484C183.809 340.634 182.679 340.811 181.562 341.01C180.445 341.21 179.333 341.437 178.239 341.728C177.688 341.872 177.145 342.047 176.614 342.25C176.067 342.426 175.575 342.738 175.184 343.158C175.617 342.808 176.133 342.575 176.682 342.482C177.224 342.353 177.772 342.255 178.325 342.186C179.433 342.046 180.545 341.973 181.662 341.923C182.779 341.873 183.895 341.859 185.012 341.859C186.129 341.859 187.255 341.859 188.358 341.909L188.303 340.08Z" fill="white"/>
<path d="M242.535 346.777C241.604 347.449 240.719 348.139 239.875 348.861C239.03 349.583 238.191 350.337 237.392 351.131C236.59 351.916 235.846 352.758 235.167 353.651C234.462 354.521 233.937 355.523 233.624 356.598C234.07 355.597 234.712 354.695 235.512 353.946C236.282 353.175 237.109 352.464 237.986 351.817C238.858 351.166 239.757 350.55 240.683 349.969C241.591 349.392 242.549 348.829 243.484 348.334L242.535 346.777Z" fill="white"/>
<path d="M184.921 352.87C187.191 353.075 189.498 353.383 191.777 353.778C194.055 354.173 196.316 354.609 198.586 355.186C199.703 355.468 200.815 355.785 201.914 356.144C203.012 356.503 204.102 356.893 205.16 357.352C207.257 358.26 209.359 359.395 210.853 361.202C210.156 360.261 209.315 359.437 208.36 358.759C207.405 358.077 206.399 357.47 205.35 356.943C204.307 356.409 203.238 355.929 202.145 355.504C201.056 355.068 199.953 354.671 198.836 354.314C196.611 353.583 194.346 352.979 192.063 352.444C189.779 351.908 187.491 351.454 185.148 351.081L184.921 352.87Z" fill="white"/>
<path d="M228.245 377.839C228.24 377.791 228.24 377.742 228.245 377.694V363.736C228.245 363.46 228.354 363.196 228.549 363.001C228.744 362.806 229.009 362.696 229.284 362.696C229.56 362.696 229.825 362.806 230.02 363.001C230.215 363.196 230.324 363.46 230.324 363.736V377.694C230.324 377.744 230.324 377.789 230.324 377.839C230.909 378.077 231.394 378.511 231.694 379.067C231.995 379.622 232.093 380.265 231.971 380.885C231.85 381.505 231.517 382.064 231.03 382.466C230.542 382.867 229.93 383.087 229.298 383.087C228.666 383.087 228.054 382.867 227.567 382.466C227.079 382.064 226.746 381.505 226.625 380.885C226.504 380.265 226.602 379.622 226.902 379.067C227.203 378.511 227.687 378.077 228.272 377.839H228.245Z" fill="#23255C"/>
<path d="M214.888 379.001C214.884 378.95 214.884 378.898 214.888 378.847V363.813C214.875 363.668 214.892 363.522 214.938 363.385C214.984 363.247 215.058 363.12 215.156 363.013C215.254 362.905 215.373 362.819 215.506 362.761C215.639 362.702 215.783 362.671 215.928 362.671C216.073 362.671 216.217 362.702 216.35 362.761C216.483 362.819 216.602 362.905 216.7 363.013C216.798 363.12 216.872 363.247 216.918 363.385C216.964 363.522 216.981 363.668 216.968 363.813V378.847C216.972 378.898 216.972 378.95 216.968 379.001C217.477 379.24 217.907 379.622 218.205 380.099C218.503 380.577 218.657 381.131 218.647 381.694C218.692 382.075 218.655 382.462 218.539 382.829C218.423 383.195 218.231 383.533 217.976 383.82C217.72 384.107 217.407 384.336 217.056 384.494C216.706 384.651 216.326 384.732 215.942 384.732C215.557 384.732 215.178 384.651 214.827 384.494C214.477 384.336 214.163 384.107 213.908 383.82C213.652 383.533 213.46 383.195 213.344 382.829C213.229 382.462 213.192 382.075 213.236 381.694C213.224 381.134 213.374 380.582 213.667 380.105C213.96 379.627 214.384 379.244 214.888 379.001Z" fill="#23255C"/>
<path d="M161.927 343.131C161.927 343.131 151.885 344.112 148.871 346.436C148.871 346.436 137.826 359.804 138.225 384.309C138.225 384.309 136.823 409.019 144.05 420.466C144.05 420.466 154.296 427.699 159.517 425.488C159.517 425.488 157.406 417.315 160.879 411.662C160.879 411.662 155.703 403.489 161.787 379.719L163.403 366.833C163.403 366.833 153.025 363.236 161.927 343.131Z" fill="#FFBB00" stroke="white" stroke-miterlimit="10"/>
<path d="M157.506 400.996C157.506 400.996 153.139 403.066 151.482 400.996C151.482 400.996 145.208 407.752 138.63 400.474C138.63 400.474 140.523 420.983 150.746 423.739C150.746 423.739 155.349 426.595 159.517 425.488C159.517 425.488 156.707 414.913 160.879 411.662C160.874 411.662 157.66 408.492 157.506 400.996Z" fill="#FFBB00" stroke="white" stroke-miterlimit="10"/>
<path d="M138.116 385.939C138.116 385.939 155.299 386.43 155.699 388.396C156.765 393.581 157.969 401.332 154.882 406.104C152.471 409.827 148.135 410.381 144.331 408.529C136.627 404.746 137.912 393.113 138.116 385.939Z" fill="#FFBB00" stroke="white" stroke-miterlimit="10"/>
<path d="M147.731 410.286C147.955 410.172 148.168 410.039 148.367 409.886C148.553 409.755 148.712 409.605 148.884 409.468L149.338 409.014C149.484 408.86 149.615 408.692 149.752 408.533C149.888 408.374 150.006 408.197 150.128 408.029C150.251 407.861 150.373 407.689 150.473 407.511C150.664 407.148 150.9 406.803 151.054 406.426C151.726 404.972 152.166 403.422 152.357 401.831L152.448 401.25L152.489 400.66L152.575 399.493C152.575 398.712 152.575 397.931 152.575 397.159C152.575 396.387 152.484 395.611 152.398 394.843L152.094 392.55L152.171 394.857C152.171 395.624 152.135 396.392 152.121 397.154C152.108 397.917 151.985 398.676 151.912 399.425L151.717 400.546L151.622 401.105L151.481 401.65C151.163 403.101 150.618 404.492 149.865 405.772C149.681 406.085 149.481 406.389 149.266 406.681C149.05 406.959 148.82 407.226 148.576 407.48L148.204 407.838L147.804 408.161C147.668 408.247 147.532 408.351 147.395 408.429C147.284 408.501 147.165 408.562 147.041 408.61L147.731 410.286Z" fill="white"/>
<path d="M241.056 415.13C241.056 415.13 240.452 458.23 238.246 460.241C238.246 460.241 252.101 464.859 246.276 472.5C246.276 472.5 240.901 480.737 217.181 476.319C217.181 476.319 214.662 485.759 186.888 480.737C186.888 480.737 177.023 480.133 177.309 469.086L178.28 434.523C178.28 434.523 186.225 432.593 181.608 424.534C181.608 424.534 191.141 426.891 186.888 415.153C186.888 415.131 221.975 426.668 241.056 415.13Z" fill="#FFBB00" stroke="white" stroke-miterlimit="10"/>
<path d="M240.747 443.968C240.747 443.968 220.168 448.186 210.83 446.179C210.83 446.179 188.858 451.142 177.3 445.343" stroke="white" stroke-miterlimit="10"/>
<path d="M237.351 460.082C237.383 459.941 237.374 459.996 237.387 459.973C237.387 459.973 237.355 460.028 237.337 460.059C237.308 460.099 237.274 460.136 237.237 460.168C237.192 460.205 237.169 460.25 237.106 460.282C236.884 460.45 236.643 460.592 236.388 460.704C236.104 460.831 235.812 460.937 235.512 461.022L235.058 461.158L234.577 461.263C233.262 461.528 231.927 461.68 230.587 461.717L229.57 461.753H227.509L226.483 461.712C225.121 461.671 223.759 461.549 222.397 461.449C223.759 461.699 225.094 461.971 226.46 462.162L227.481 462.316L228.512 462.439L229.543 462.557L230.578 462.634C231.981 462.756 233.392 462.756 234.795 462.634L235.331 462.579L235.871 462.484C236.241 462.42 236.607 462.331 236.965 462.216C237.354 462.09 237.728 461.923 238.082 461.717C238.178 461.658 238.271 461.593 238.359 461.522C238.46 461.452 238.552 461.371 238.636 461.281C238.736 461.187 238.826 461.081 238.903 460.968C238.95 460.902 238.992 460.834 239.031 460.763C239.087 460.652 239.129 460.535 239.158 460.414L237.351 460.082Z" fill="white"/>
<path d="M207.326 462.965C207.242 463.046 207.152 463.121 207.058 463.188C206.952 463.273 206.841 463.351 206.726 463.424C206.493 463.59 206.251 463.741 206 463.878C205.488 464.147 204.957 464.378 204.411 464.568C203.284 464.947 202.117 465.199 200.934 465.317L200.026 465.399H199.118C198.514 465.435 197.906 465.367 197.302 465.354C196.698 465.34 196.085 465.231 195.486 465.172L193.67 464.863L195.44 465.395C196.044 465.531 196.643 465.685 197.256 465.808C197.869 465.93 198.482 466.039 199.104 466.08L200.039 466.175L200.983 466.207C202.261 466.236 203.537 466.121 204.788 465.862C205.425 465.723 206.052 465.538 206.663 465.308C206.976 465.195 207.28 465.054 207.571 464.909C207.72 464.827 207.875 464.759 208.025 464.663C208.192 464.568 208.353 464.462 208.506 464.346L207.326 462.965Z" fill="white"/>
<path opacity="0.37" d="M240.747 419.835C241.069 421.024 230.501 424.552 229.747 424.779C225.312 426.079 220.743 426.869 216.128 427.136C210.481 427.49 205.314 426.455 199.735 425.969C193.906 425.46 188.449 425.919 184.858 431.127C181.758 435.618 181.871 441.434 181.681 446.647C181.431 452.754 181.227 458.87 181.544 464.977C181.667 467.579 181.939 470.348 183.551 472.392C184.872 474.062 186.892 474.998 188.867 475.788C193.407 477.604 198.192 478.966 203.058 478.807C207.925 478.648 212.9 476.705 215.919 472.905C216.237 475.574 213.89 477.84 211.452 478.971C207.898 480.614 203.88 480.864 199.967 480.95C192.467 481.114 180.764 480.728 177.545 472.323L178.249 435.845C178.249 435.845 185.208 432.58 183.56 424.734C183.56 424.734 189.044 423.208 186.892 415.162C186.892 415.162 208.397 425.442 239.689 415.966L240.747 419.835Z" fill="#755723"/>
<path opacity="0.37" d="M246.34 470.335C246.34 470.335 232.82 474.421 223.332 471.388C223.332 471.388 217.844 465.245 213.209 463.669C213.209 463.669 218.42 433.438 217.712 427.036H212.505C212.505 427.036 210.63 461.962 209.146 463.669C209.146 463.669 218.012 468.391 217.508 474.267L218.62 476.578C218.62 476.578 243.589 481.632 246.34 470.335Z" fill="#755723"/>
<path d="M158.264 348.67L148.871 346.436C148.871 346.436 152.285 342.931 161.928 343.131L158.264 348.67Z" fill="#FFBB00" stroke="white" stroke-miterlimit="10"/>
<path d="M246.276 346.436C235.357 346.436 226.506 337.583 226.506 326.662C226.506 315.741 235.357 306.888 246.276 306.888C257.195 306.888 266.047 315.741 266.047 326.662C266.047 337.583 257.195 346.436 246.276 346.436Z" fill="#FF5CA6" stroke="white" stroke-miterlimit="10"/>
<path d="M244.692 310.679C246.667 309.871 249.854 310.607 251.502 311.17C255.742 312.636 258.684 316.164 260.354 320.228C261.553 323.152 260.899 329.941 256.119 328.401C253.708 327.611 254.18 323.72 253.849 321.795C253.336 318.739 250.562 317.513 247.997 316.464C246.181 315.729 241.256 314.076 243.675 311.401C243.954 311.086 244.302 310.839 244.692 310.679Z" fill="#FFA4C7"/>
<path d="M255.506 336.388C253.898 336.388 252.596 335.085 252.596 333.478C252.596 331.87 253.898 330.567 255.506 330.567C257.113 330.567 258.416 331.87 258.416 333.478C258.416 335.085 257.113 336.388 255.506 336.388Z" fill="#FFA4C7"/>
<g clip-path="url(#clip0)">
<path d="M199.277 427.648L205.563 429.536L211.921 408.373C212.06 407.91 212.548 407.648 213.011 407.787L234.174 414.144L236.063 407.858L214.48 401.374C210.777 400.262 206.873 402.362 205.761 406.065L199.277 427.648Z" fill="#B8C3FF"/>
<path d="M239.75 416.835C236.824 418.409 233.175 417.313 231.601 414.387C230.027 411.46 231.123 407.812 234.049 406.238C236.975 404.663 240.624 405.759 242.198 408.686C243.772 411.612 242.676 415.261 239.75 416.835Z" fill="#E5979D"/>
<path d="M238.63 405.774C237.843 405.537 237.044 405.47 236.274 405.551C238.092 407.046 238.936 409.537 238.217 411.932C237.497 414.327 235.42 415.941 233.079 416.186C233.677 416.678 234.38 417.062 235.168 417.298C238.351 418.255 241.706 416.45 242.662 413.267C243.618 410.085 241.813 406.73 238.63 405.774Z" fill="#E17F85"/>
<path d="M285.38 463.47L287.583 456.137L215.017 434.337L212.815 441.67L285.38 463.47Z" fill="#B8C3FF"/>
<path d="M215.005 434.325L213.67 438.77L281.801 459.238L280.933 462.127L285.378 463.463L287.581 456.129L215.005 434.325Z" fill="#5587EA"/>
<path d="M215.256 433.491L212.622 442.259C212.289 443.366 211.151 444.024 210.025 443.759L172.037 434.818C170.81 434.529 170.08 433.266 170.443 432.059L174.372 418.979C174.733 417.777 176.03 417.124 177.21 417.551L213.904 430.803C214.996 431.198 215.59 432.378 215.256 433.491Z" fill="#061566"/>
<path d="M213.904 430.804L177.211 417.551C176.03 417.124 174.733 417.777 174.372 418.979L173.628 421.455L201.687 431.589C206.299 433.254 208.917 438.459 207.507 443.155L207.503 443.165L210.025 443.759C211.151 444.024 212.289 443.367 212.622 442.259L215.256 433.491C215.59 432.378 214.996 431.198 213.904 430.804Z" fill="#061566"/>
<path d="M310.948 468.252L279.307 485.274C278.652 485.627 277.844 485.237 277.712 484.505L276.863 479.795C276.409 477.275 277.627 474.75 279.882 473.537L300.837 462.264C303.092 461.051 305.871 461.426 307.723 463.194L311.185 466.498C311.724 467.011 311.603 467.9 310.948 468.252Z" fill="#B8C3FF"/>
<path d="M311.185 466.497L307.723 463.194C305.871 461.426 303.092 461.051 300.837 462.264L295.057 465.373C297.312 464.16 300.091 464.536 301.943 466.303L305.405 469.607C305.943 470.121 305.823 471.01 305.168 471.362L310.949 468.252C311.603 467.9 311.724 467.011 311.185 466.497Z" fill="#5587EA"/>
<path d="M295.487 465.142L285.232 470.659L281.562 463.837C280.039 461.005 281.099 457.474 283.931 455.951C286.763 454.428 290.294 455.488 291.817 458.32L295.487 465.142Z" fill="#061566"/>
<path d="M283.931 455.951C282.859 456.528 282.041 457.393 281.521 458.398C283.368 458.595 285.09 459.67 286.037 461.43L289.707 468.251L295.487 465.142L291.817 458.32C290.294 455.488 286.763 454.427 283.931 455.951Z" fill="#061566"/>
<path d="M267.178 466.777L261.02 466.121C260.119 466.025 259.466 465.217 259.562 464.316C259.658 463.414 260.467 462.762 261.368 462.858L267.525 463.513C268.426 463.609 269.079 464.418 268.983 465.319C268.886 466.228 268.066 466.872 267.178 466.777Z" fill="white"/>
<path d="M266.062 477.686C265.294 477.205 265.062 476.192 265.543 475.424L268.83 470.177C269.311 469.409 270.324 469.176 271.092 469.657C271.86 470.138 272.093 471.151 271.612 471.919L268.324 477.167C267.849 477.926 266.836 478.171 266.062 477.686Z" fill="white"/>
<path d="M290.514 454.176C289.64 454.416 288.737 453.9 288.498 453.026L286.866 447.053C286.627 446.179 287.142 445.277 288.016 445.038C288.89 444.799 289.793 445.314 290.032 446.188L291.664 452.161C291.906 453.041 291.366 453.943 290.514 454.176Z" fill="white"/>
<path d="M295.134 455.564C294.536 454.883 294.604 453.846 295.285 453.249L299.939 449.164C300.62 448.566 301.657 448.634 302.254 449.315C302.852 449.996 302.785 451.033 302.104 451.63L297.45 455.715C296.784 456.301 295.739 456.253 295.134 455.564Z" fill="white"/>
</g>
<path d="M183.474 412.729C184.907 413.956 186.044 415.491 186.801 417.219C187.491 418.985 187.518 421.092 186.515 422.709C185.512 424.325 183.337 425.238 181.594 424.525C183.21 427.036 182.561 430.591 180.532 432.78C178.503 434.968 175.375 435.908 172.387 435.817C160.661 435.463 154.288 420.997 160.861 411.675C163.821 414.853 167.78 417.215 172.088 417.641C176.396 418.068 181.022 416.279 183.437 412.692L183.474 412.729Z" fill="#FFBB00" stroke="white" stroke-miterlimit="10"/>
<path d="M358.818 517.809C353.612 538.452 332.447 550.984 311.568 545.847C290.683 540.746 277.962 519.802 283.178 499.211C288.372 478.573 309.549 466.015 330.417 471.152C351.313 476.304 364.035 497.185 358.818 517.824V517.809ZM338.187 503.011C338.96 497.91 335.011 495.154 329.605 493.299L331.36 486.391L327.08 485.325L325.381 492.094C324.262 491.805 323.097 491.555 321.927 491.292L323.631 484.461L319.338 483.41L317.586 490.352L314.856 489.714L308.967 488.258L307.824 492.784C307.824 492.784 311 493.497 310.922 493.535C312.664 493.975 312.979 495.087 312.93 495.992L308.131 514.989C307.889 515.519 307.343 516.296 306.139 515.993C306.178 516.053 303.017 515.23 303.017 515.23L300.872 520.064L306.432 521.431L309.452 522.208L307.687 529.241L311.979 530.281L313.744 523.324C314.912 523.652 316.028 523.938 317.145 524.203L315.497 531.106L319.787 532.172L321.552 525.144C328.837 526.508 334.324 525.969 336.635 519.453C338.487 514.2 336.53 511.182 332.686 509.202C335.453 508.574 337.561 506.757 338.144 503.011H338.187ZM328.398 516.558C327.092 521.82 318.141 518.964 315.236 518.25L317.583 508.952C320.491 509.691 329.783 511.105 328.398 516.558ZM329.734 502.948C328.525 507.734 321.086 505.316 318.661 504.712L320.796 496.242C323.207 496.817 330.987 497.919 329.734 502.934V502.948Z" fill="#FFBB00"/>
<path d="M64 707.208H70V725.583H64V731.708H60V725.583H54V707.208H60V701.083H64V707.208ZM84 717.417H90V735.792H84V741.917H80V735.792H74V717.417H80V711.292H84V717.417Z" fill="white"/>
<path d="M160.833 602V613.503H163.75V630.75H160.833V639.375H207.5L216.25 639.378V639.375H219.167V630.75H216.25V613.503H219.167V602L190 584.75L160.833 602ZM172.5 630.75V613.503H178.333V630.75H172.5ZM187.083 630.75V613.503H192.917V630.75H187.083ZM207.5 630.75H201.667V613.503H207.5V630.75ZM195.833 602C195.833 602.755 195.682 603.503 195.389 604.201C195.095 604.899 194.665 605.533 194.123 606.066C193.582 606.6 192.938 607.024 192.23 607.313C191.522 607.602 190.763 607.75 189.997 607.75C189.231 607.75 188.472 607.601 187.764 607.312C187.057 607.022 186.414 606.599 185.872 606.064C185.33 605.53 184.901 604.896 184.608 604.198C184.314 603.5 184.164 602.752 184.164 601.997C184.164 600.472 184.779 599.009 185.874 597.931C186.968 596.852 188.453 596.247 190 596.247C191.548 596.248 193.032 596.854 194.126 597.933C195.22 599.012 195.834 600.475 195.833 602Z" fill="white"/>
<path d="M626.667 538.553H626.497C625.658 538.553 624.853 538.224 624.26 537.638C623.667 537.053 623.334 536.258 623.334 535.43C623.334 534.557 622.982 533.719 622.357 533.102C621.732 532.485 620.884 532.138 620 532.138C619.116 532.138 618.268 532.485 617.643 533.102C617.018 533.719 616.667 534.557 616.667 535.43C616.667 538.004 617.703 540.473 619.546 542.294C621.39 544.114 623.89 545.137 626.497 545.137H626.667V548.428C626.667 549.301 627.018 550.139 627.643 550.756C628.268 551.373 629.116 551.72 630 551.72C630.884 551.72 631.732 551.373 632.357 550.756C632.982 550.139 633.334 549.301 633.334 548.428V545.137C635.986 545.137 638.529 544.096 640.405 542.244C642.28 540.393 643.334 537.881 643.334 535.262C643.334 532.643 642.28 530.131 640.405 528.279C638.529 526.427 635.986 525.387 633.334 525.387V518.803H633.407C635.207 518.803 636.667 520.245 636.667 522.023C636.667 522.896 637.018 523.733 637.643 524.35C638.268 524.968 639.116 525.314 640 525.314C640.884 525.314 641.732 524.968 642.357 524.35C642.982 523.733 643.334 522.896 643.334 522.023C643.334 519.423 642.288 516.93 640.426 515.091C638.565 513.253 636.04 512.22 633.407 512.22H633.334V508.928C633.334 508.055 632.982 507.218 632.357 506.601C631.732 505.984 630.884 505.637 630 505.637C629.116 505.637 628.268 505.984 627.643 506.601C627.018 507.218 626.667 508.055 626.667 508.928V512.22C624.015 512.22 621.471 513.26 619.596 515.112C617.721 516.964 616.667 519.476 616.667 522.095C616.667 524.714 617.721 527.226 619.596 529.078C621.471 530.93 624.015 531.97 626.667 531.97V538.553ZM633.334 538.553V531.97C634.218 531.97 635.066 532.317 635.691 532.934C636.316 533.552 636.667 534.389 636.667 535.262C636.667 536.135 636.316 536.972 635.691 537.589C635.066 538.207 634.218 538.553 633.334 538.553ZM626.667 518.803V525.387C625.783 525.387 624.935 525.04 624.31 524.423C623.685 523.805 623.334 522.968 623.334 522.095C623.334 521.222 623.685 520.385 624.31 519.768C624.935 519.15 625.783 518.803 626.667 518.803ZM630 561.595C611.59 561.595 596.667 546.858 596.667 528.678C596.667 510.499 611.59 495.762 630 495.762C648.41 495.762 663.334 510.499 663.334 528.678C663.334 546.858 648.41 561.595 630 561.595Z" fill="white"/>
<path d="M812.125 715.281H769.875C768.976 715.281 768.25 716.021 768.25 716.938V725.219H813.75V716.938C813.75 716.021 813.024 715.281 812.125 715.281ZM768.25 750.062C768.25 750.979 768.976 751.719 769.875 751.719H812.125C813.024 751.719 813.75 750.979 813.75 750.062V729.773H768.25V750.062ZM797.652 740.539C797.652 740.311 797.835 740.125 798.059 740.125H806.438C806.661 740.125 806.844 740.311 806.844 740.539V744.266C806.844 744.493 806.661 744.68 806.438 744.68H798.059C797.835 744.68 797.652 744.493 797.652 744.266V740.539Z" fill="white"/>
<defs>
<clipPath id="clip0">
<rect width="110.379" height="110.379" fill="white" transform="matrix(-0.880654 0.47376 0.47376 0.880654 262.206 371)"/>
</clipPath>
</defs>
</svg>
