<svg width="638" height="638" viewBox="0 0 638 638" fill="none" xmlns="http://www.w3.org/2000/svg">
<path d="M507.95 173.817C536.301 173.817 559.284 150.834 559.284 122.483C559.284 94.1326 536.301 71.1498 507.95 71.1498C479.599 71.1498 456.617 94.1326 456.617 122.483C456.617 150.834 479.599 173.817 507.95 173.817Z" fill="#EBEBEB"/>
<path d="M513.514 167.96C503.695 167.964 494.081 165.151 485.813 159.855C477.545 154.559 470.969 147.002 466.867 138.081C462.765 129.161 461.307 119.25 462.668 109.526C464.029 99.8021 468.151 90.6725 474.545 83.2207C469.163 87.8201 464.792 93.4828 461.704 99.853C458.616 106.223 456.879 113.163 456.603 120.237C456.326 127.311 457.515 134.365 460.096 140.957C462.677 147.549 466.593 153.536 471.599 158.541C476.604 163.547 482.591 167.463 489.183 170.044C495.775 172.625 502.83 173.814 509.903 173.537C516.977 173.261 523.917 171.524 530.287 168.436C536.657 165.349 542.32 160.977 546.919 155.595C537.626 163.587 525.771 167.975 513.514 167.96Z" fill="#E0E0E0"/>
<path d="M549.369 112.397C551.038 105.362 546.687 98.3065 539.651 96.6382C532.616 94.97 525.56 99.3208 523.892 106.356C522.224 113.391 526.575 120.447 533.61 122.115C540.645 123.784 547.701 119.433 549.369 112.397Z" fill="#FAFAFA"/>
<path d="M527.448 88.6309C527.448 89.6757 527.138 90.6971 526.557 91.5658C525.977 92.4345 525.152 93.1116 524.187 93.5114C523.221 93.9113 522.159 94.0159 521.134 93.8121C520.11 93.6082 519.168 93.1051 518.43 92.3663C517.691 91.6275 517.188 90.6862 516.984 89.6615C516.78 88.6368 516.885 87.5746 517.284 86.6093C517.684 85.6441 518.361 84.819 519.23 84.2386C520.099 83.6581 521.12 83.3483 522.165 83.3483C523.566 83.3483 524.91 83.9048 525.9 84.8955C526.891 85.8862 527.448 87.2299 527.448 88.6309Z" fill="#FAFAFA"/>
<path d="M536.661 157.548C538.831 157.548 540.591 155.788 540.591 153.618C540.591 151.447 538.831 149.688 536.661 149.688C534.49 149.688 532.73 151.447 532.73 153.618C532.73 155.788 534.49 157.548 536.661 157.548Z" fill="#E0E0E0"/>
<path d="M183.272 41.6997L186.028 46.7399L191.055 49.4833L186.028 52.2395L183.272 57.2797L180.516 52.2395L175.488 49.4833L180.516 46.7399L183.272 41.6997Z" fill="#FAFAFA"/>
<path d="M481.308 213.079L484.064 218.107L489.091 220.863L484.064 223.619L481.308 228.647L478.551 223.619L473.524 220.863L478.551 218.107L481.308 213.079Z" fill="#E0E0E0"/>
<path d="M152.342 418.107L155.098 423.147L160.125 425.891L155.098 428.647L152.342 433.674L149.586 428.647L144.558 425.891L149.586 423.147L152.342 418.107Z" fill="#E0E0E0"/>
<path d="M133.266 436.583L134.465 438.778L136.647 439.965L134.465 441.164L133.266 443.346L132.079 441.164L129.884 439.965L132.079 438.778L133.266 436.583Z" fill="#E0E0E0"/>
<path d="M129.438 229.374C130.191 223.925 122.483 219.434 116.678 218.962C113.922 218.745 111.051 219.166 108.435 218.247C102.769 216.282 100.511 208.958 94.9857 206.623C90.8514 204.887 86.0537 206.431 82.0853 208.447C78.117 210.463 74.1231 213.003 69.6443 213.296C65.7525 213.539 61.5162 212.097 58.1603 213.998C55.6083 215.414 54.3323 218.336 51.959 220.072C49.5856 221.807 46.6763 222.113 43.8436 222.266C41.0109 222.42 38.0633 222.445 35.473 223.632C32.8828 224.818 30.7518 227.549 31.2878 230.344L129.438 229.374Z" fill="#FAFAFA"/>
<path d="M205.092 354.128C206.189 346.153 194.884 339.582 186.462 338.906C182.417 338.574 178.232 339.199 174.404 337.859C166.123 334.976 162.805 324.27 154.728 320.863C148.68 318.311 141.726 320.582 135.869 323.53C130.012 326.477 124.219 330.191 117.673 330.612C111.969 330.969 105.793 328.864 100.804 331.645C97.0911 333.712 95.1516 338.025 91.7319 340.513C88.3122 343.002 84.0759 343.512 79.8651 343.729C75.6543 343.946 71.4563 343.997 67.6283 345.796C63.8003 347.595 60.7123 351.525 61.5035 355.609L205.092 354.128Z" fill="#EBEBEB"/>
<path d="M602.361 267.883C603.318 260.942 593.519 255.225 586.156 254.639C582.647 254.345 578.998 254.894 575.667 253.733C568.458 251.181 565.587 241.904 558.556 238.944C553.299 236.723 547.238 238.701 542.147 241.266C537.056 243.831 532.015 247.059 526.312 247.416C521.361 247.735 515.989 245.898 511.65 248.322C508.422 250.122 506.725 253.847 503.752 255.978C500.779 258.109 497.04 258.53 493.429 258.773C489.818 259.015 486.079 259.002 482.787 260.508C479.495 262.014 476.777 265.497 477.454 269.057L602.361 267.883Z" fill="#FAFAFA"/>
<path d="M56.5781 130.509L57.2161 131.581C57.9411 132.786 58.9945 133.76 60.253 134.388L61.3759 134.937L60.304 135.588C59.0998 136.31 58.1295 137.365 57.5096 138.625L56.9482 139.748L56.3102 138.676C55.5852 137.47 54.5318 136.497 53.2733 135.868L52.1504 135.32L53.2222 134.669C54.4237 133.943 55.3932 132.89 56.0167 131.632L56.5781 130.509Z" fill="#E0E0E0"/>
<path d="M176.705 131.082C182.382 117.164 175.702 101.279 161.783 95.6015C147.865 89.9243 131.98 96.6052 126.303 110.523C120.626 124.442 127.306 140.327 141.225 146.004C155.143 151.681 171.028 145 176.705 131.082Z" fill="#EBEBEB"/>
<path d="M148.016 129.31C148.016 130.188 147.756 131.047 147.268 131.777C146.78 132.507 146.086 133.076 145.275 133.412C144.464 133.748 143.571 133.836 142.709 133.665C141.848 133.494 141.057 133.071 140.436 132.45C139.815 131.829 139.392 131.038 139.221 130.176C139.049 129.315 139.137 128.422 139.473 127.611C139.809 126.799 140.379 126.106 141.109 125.618C141.839 125.13 142.697 124.869 143.576 124.869C144.159 124.868 144.738 124.981 145.277 125.204C145.817 125.427 146.307 125.754 146.719 126.166C147.132 126.579 147.459 127.069 147.682 127.609C147.904 128.148 148.018 128.726 148.016 129.31Z" fill="white"/>
<path d="M141.636 116.499C141.636 117.004 141.487 117.497 141.206 117.917C140.926 118.336 140.527 118.663 140.061 118.857C139.595 119.05 139.081 119.1 138.586 119.002C138.091 118.903 137.637 118.66 137.28 118.303C136.923 117.947 136.68 117.492 136.581 116.997C136.483 116.502 136.533 115.989 136.726 115.522C136.92 115.056 137.247 114.657 137.666 114.377C138.086 114.097 138.579 113.947 139.084 113.947C139.761 113.947 140.41 114.216 140.889 114.694C141.367 115.173 141.636 115.822 141.636 116.499Z" fill="white"/>
<path d="M125.112 127.434C125.227 127.906 101.812 150.402 107.848 155.149C113.883 159.896 139.276 147.659 160.917 130.178C182.558 112.696 202.336 91.4637 196.926 85.8493C191.515 80.2349 164.464 96.8612 164.464 96.8612L167.705 98.9283C167.705 98.9283 184.051 88.4396 189.231 92.5483C194.412 96.6571 179.648 112.531 158.837 127.715C138.025 142.899 117.916 153.579 114.802 149.407C111.689 145.234 126.401 131.352 126.401 131.352L125.112 127.434Z" fill="#E0E0E0"/>
<path d="M136.532 101.633C136.749 101.901 134.899 103.471 132.819 106.61C130.045 110.641 128.514 115.397 128.417 120.289C128.319 125.181 129.659 129.995 132.27 134.133C134.223 137.361 136.009 138.995 135.779 139.237C135.55 139.48 133.457 138.165 131.033 134.95C129.62 133.068 128.506 130.981 127.728 128.761C125.725 123.255 125.843 117.201 128.059 111.778C128.935 109.59 130.135 107.547 131.619 105.717C134.146 102.616 136.379 101.442 136.532 101.633Z" fill="white"/>
<path d="M68.3683 65.7395C68.4117 63.8697 69.0088 62.0547 70.0839 60.5242C71.159 58.9937 72.6639 57.8165 74.4082 57.1414C76.1525 56.4663 78.0578 56.3237 79.8832 56.7317C81.7085 57.1396 83.3718 58.0798 84.6628 59.4332C85.9537 60.7866 86.8142 62.4925 87.1355 64.3351C87.4568 66.1777 87.2244 68.0741 86.4676 69.7846C85.7109 71.4951 84.4639 72.9427 82.8843 73.9443C81.3047 74.9459 79.4636 75.4565 77.5938 75.4116C75.0881 75.3514 72.7089 74.2988 70.979 72.4852C69.2491 70.6715 68.3101 68.2452 68.3683 65.7395Z" fill="#E0E0E0"/>
<path d="M80.8984 62.3454C80.9061 62.0402 81.0041 61.7441 81.18 61.4945C81.3559 61.245 81.6019 61.0532 81.8868 60.9434C82.1717 60.8337 82.4828 60.8108 82.7807 60.8778C83.0786 60.9448 83.3499 61.0986 83.5604 61.3198C83.7708 61.541 83.911 61.8196 83.9632 62.1205C84.0153 62.4213 83.9771 62.7309 83.8533 63.01C83.7296 63.2891 83.5259 63.5253 83.2679 63.6886C83.0099 63.8519 82.7093 63.9351 82.4041 63.9277C82.2013 63.9227 82.0015 63.8778 81.8161 63.7956C81.6307 63.7134 81.4633 63.5955 81.3234 63.4485C81.1836 63.3016 81.0741 63.1285 81.0012 62.9393C80.9283 62.75 80.8933 62.5482 80.8984 62.3454Z" fill="#F5F5F5"/>
<path d="M83.9737 65.9438C83.9763 65.7641 84.0323 65.5892 84.1346 65.4414C84.2368 65.2936 84.3807 65.1796 84.5479 65.1138C84.7151 65.048 84.8982 65.0334 85.0737 65.0719C85.2492 65.1104 85.4094 65.2003 85.5337 65.33C85.658 65.4598 85.741 65.6236 85.772 65.8006C85.803 65.9776 85.7806 66.1598 85.7078 66.3241C85.6349 66.4884 85.5149 66.6273 85.3629 66.7232C85.2109 66.819 85.0338 66.8675 84.8542 66.8625C84.6161 66.8558 84.3903 66.7556 84.2255 66.5837C84.0607 66.4118 83.9703 66.1819 83.9737 65.9438Z" fill="#F5F5F5"/>
<path d="M82.7744 68.6998C82.8174 68.6998 82.8599 68.7084 82.8995 68.7253C82.9391 68.7421 82.9748 68.7667 83.0046 68.7977C83.0344 68.8287 83.0576 68.8654 83.0729 68.9056C83.0881 68.9458 83.0951 68.9886 83.0934 69.0316C83.0934 69.0752 83.0848 69.1183 83.0681 69.1586C83.0515 69.1988 83.027 69.2354 82.9962 69.2662C82.9654 69.297 82.9288 69.3214 82.8886 69.3381C82.8483 69.3548 82.8052 69.3634 82.7616 69.3634C82.7181 69.3617 82.6752 69.3515 82.6356 69.3333C82.596 69.3151 82.5603 69.2892 82.5307 69.2572C82.5011 69.2252 82.4781 69.1877 82.4629 69.1468C82.4478 69.1059 82.4409 69.0624 82.4426 69.0188C82.4459 68.9331 82.4823 68.8519 82.5442 68.7924C82.6061 68.733 82.6886 68.6998 82.7744 68.6998Z" fill="#F5F5F5"/>
<path d="M225.316 602.718C226.765 597.985 226.879 592.943 225.647 588.148C224.415 583.354 221.885 578.992 218.334 575.542C214.783 572.093 210.349 569.69 205.521 568.598C200.692 567.505 195.656 567.766 190.966 569.351C191.063 564.081 189.716 558.885 187.072 554.326C184.428 549.767 180.586 546.018 175.964 543.485C171.341 540.953 166.114 539.733 160.848 539.958C155.583 540.183 150.479 541.845 146.089 544.763C141.19 535.397 128.225 531.377 118.834 536.341C109.443 541.305 105.564 554.345 110.591 563.647C106.738 562.698 102.682 562.993 99.0072 564.491C95.3321 565.989 92.2258 568.612 90.1341 571.985C88.0424 575.358 87.0728 579.306 87.3644 583.264C87.656 587.222 89.1939 590.986 91.7573 594.016C76.4453 587.292 56.4503 600.817 56.9607 617.482L242.236 616.946C240.909 614.47 236.341 603.165 225.316 602.718Z" fill="#5B5EAF"/>
<path d="M559.82 602.718C561.268 597.985 561.383 592.943 560.151 588.148C558.919 583.354 556.388 578.992 552.837 575.542C549.286 572.093 544.853 569.69 540.024 568.598C535.196 567.505 530.16 567.766 525.47 569.351C525.567 564.081 524.22 558.885 521.575 554.326C518.931 549.767 515.09 546.018 510.467 543.485C505.845 540.953 500.618 539.733 495.352 539.958C490.086 540.183 484.982 541.845 480.593 544.763C475.68 535.397 462.665 531.377 453.338 536.341C444.01 541.305 440.067 554.345 445.095 563.647C441.241 562.698 437.186 562.993 433.511 564.491C429.836 565.989 426.729 568.612 424.638 571.985C422.546 575.358 421.576 579.306 421.868 583.264C422.16 587.222 423.697 590.986 426.261 594.016C410.949 587.292 390.954 600.817 391.451 617.482L576.752 616.946C575.476 614.47 570.844 603.165 559.82 602.718Z" fill="#5B5EAF"/>
<path d="M378.092 616.946C381.479 606.947 381.34 596.09 377.696 586.182C375.387 579.98 371.559 574.136 365.944 570.64C360.33 567.144 352.75 566.416 347.123 569.887C347.127 565.838 346.21 561.842 344.442 558.199C342.673 554.557 340.1 551.365 336.917 548.863C333.733 546.362 330.022 544.617 326.065 543.761C322.108 542.904 318.008 542.959 314.075 543.92C314.52 540.547 314.123 537.116 312.917 533.934C311.712 530.752 309.736 527.919 307.167 525.687C304.598 523.456 301.516 521.896 298.197 521.148C294.878 520.4 291.424 520.486 288.147 521.399C291.375 510.847 282.29 500.269 271.469 498.112H267.871C267.871 498.112 245.133 497.551 242.351 498.112C231.53 500.269 222.445 510.872 225.674 521.399C222.396 520.486 218.943 520.4 215.623 521.148C212.304 521.896 209.222 523.456 206.653 525.687C204.084 527.919 202.109 530.752 200.903 533.934C199.698 537.116 199.3 540.547 199.745 543.92C195.812 542.959 191.712 542.904 187.755 543.761C183.798 544.617 180.087 546.362 176.904 548.863C173.72 551.365 171.147 554.557 169.379 558.199C167.61 561.842 166.693 565.838 166.697 569.887C161.07 566.416 153.503 567.144 147.876 570.64C142.249 574.136 138.433 579.98 136.124 586.182C132.48 596.09 132.341 606.947 135.728 616.946H378.092Z" fill="#5B5EAF"/>
<g opacity="0.6">
<path opacity="0.6" d="M378.092 616.946C381.479 606.947 381.34 596.09 377.696 586.182C375.387 579.98 371.559 574.136 365.944 570.64C360.33 567.144 352.75 566.416 347.123 569.887C347.127 565.838 346.21 561.842 344.442 558.199C342.673 554.557 340.1 551.365 336.917 548.863C333.733 546.362 330.022 544.617 326.065 543.761C322.108 542.904 318.008 542.959 314.075 543.92C314.52 540.547 314.123 537.116 312.917 533.934C311.712 530.752 309.736 527.919 307.167 525.687C304.598 523.456 301.516 521.896 298.197 521.148C294.878 520.4 291.424 520.486 288.147 521.399C291.375 510.847 282.29 500.269 271.469 498.112H267.871C267.871 498.112 245.133 497.551 242.351 498.112C231.53 500.269 222.445 510.872 225.674 521.399C222.396 520.486 218.943 520.4 215.623 521.148C212.304 521.896 209.222 523.456 206.653 525.687C204.084 527.919 202.109 530.752 200.903 533.934C199.698 537.116 199.3 540.547 199.745 543.92C195.812 542.959 191.712 542.904 187.755 543.761C183.798 544.617 180.087 546.362 176.904 548.863C173.72 551.365 171.147 554.557 169.379 558.199C167.61 561.842 166.693 565.838 166.697 569.887C161.07 566.416 153.503 567.144 147.876 570.64C142.249 574.136 138.433 579.98 136.124 586.182C132.48 596.09 132.341 606.947 135.728 616.946H378.092Z" fill="white"/>
</g>
<path d="M495.649 616.946C499.033 606.946 498.889 596.088 495.241 586.182C492.932 579.98 489.104 574.136 483.489 570.64C477.875 567.144 470.295 566.416 464.668 569.887C464.674 565.837 463.759 561.84 461.991 558.196C460.224 554.553 457.651 551.359 454.466 548.857C451.282 546.355 447.57 544.611 443.612 543.755C439.654 542.9 435.553 542.956 431.62 543.92C432.065 540.547 431.667 537.116 430.462 533.934C429.256 530.752 427.281 527.919 424.712 525.687C422.143 523.456 419.061 521.896 415.742 521.148C412.422 520.4 408.969 520.486 405.691 521.399C408.92 510.847 399.835 500.269 389.014 498.112H385.429C385.429 498.112 362.677 497.551 359.909 498.112C349.088 500.269 340.003 510.872 343.231 521.399C339.953 520.486 336.5 520.4 333.181 521.148C329.862 521.896 326.78 523.456 324.211 525.687C321.642 527.919 319.666 530.752 318.461 533.934C317.255 537.116 316.857 540.547 317.303 543.92C313.37 542.956 309.27 542.899 305.312 543.755C301.355 544.61 297.644 546.355 294.46 548.857C291.277 551.359 288.705 554.553 286.939 558.197C285.173 561.84 284.259 565.838 284.267 569.887C278.64 566.416 271.061 567.144 265.446 570.64C259.832 574.136 255.991 579.98 253.694 586.182C250.04 596.087 249.896 606.947 253.286 616.946H495.649Z" fill="#5B5EAF"/>
<g opacity="0.8">
<path opacity="0.8" d="M495.649 616.971C499.033 606.971 498.889 596.114 495.241 586.207C492.932 580.006 489.104 574.162 483.489 570.665C477.875 567.169 470.295 566.442 464.668 569.912C464.674 565.863 463.759 561.865 461.991 558.221C460.224 554.578 457.651 551.384 454.466 548.882C451.282 546.381 447.57 544.636 443.612 543.781C439.654 542.925 435.553 542.982 431.62 543.946C432.065 540.573 431.667 537.141 430.462 533.959C429.256 530.777 427.281 527.944 424.712 525.713C422.143 523.481 419.061 521.922 415.742 521.173C412.422 520.425 408.969 520.511 405.691 521.424C408.92 510.872 399.835 500.294 389.014 498.137H385.429C385.429 498.137 362.677 497.576 359.909 498.137C349.088 500.294 340.003 510.897 343.231 521.424C339.953 520.511 336.5 520.425 333.181 521.173C329.862 521.922 326.78 523.481 324.211 525.713C321.642 527.944 319.666 530.777 318.461 533.959C317.255 537.141 316.857 540.573 317.303 543.946C313.37 542.982 309.27 542.925 305.312 543.78C301.355 544.635 297.644 546.38 294.46 548.882C291.277 551.385 288.705 554.578 286.939 558.222C285.173 561.866 284.259 565.863 284.267 569.912C278.64 566.442 271.061 567.169 265.446 570.665C259.832 574.162 255.991 580.006 253.694 586.207C250.04 596.113 249.896 606.972 253.286 616.971H495.649Z" fill="white"/>
</g>
<path d="M268.598 489.907L244.086 490.571V445.018L268.598 444.354V489.907Z" fill="#455A64"/>
<path d="M269.976 455.557H243.04C242.074 455.557 241.292 456.34 241.292 457.306V457.344C241.292 458.309 242.074 459.092 243.04 459.092H269.976C270.941 459.092 271.724 458.309 271.724 457.344V457.306C271.724 456.34 270.941 455.557 269.976 455.557Z" fill="#455A64"/>
<path d="M269.976 462.665H243.04C242.074 462.665 241.292 463.447 241.292 464.413V464.451C241.292 465.417 242.074 466.199 243.04 466.199H269.976C270.941 466.199 271.724 465.417 271.724 464.451V464.413C271.724 463.447 270.941 462.665 269.976 462.665Z" fill="#455A64"/>
<path d="M269.976 469.772H243.04C242.074 469.772 241.292 470.555 241.292 471.52V471.558C241.292 472.524 242.074 473.307 243.04 473.307H269.976C270.941 473.307 271.724 472.524 271.724 471.558V471.52C271.724 470.555 270.941 469.772 269.976 469.772Z" fill="#455A64"/>
<path d="M269.976 476.879H243.04C242.074 476.879 241.292 477.662 241.292 478.628V478.666C241.292 479.631 242.074 480.414 243.04 480.414H269.976C270.941 480.414 271.724 479.631 271.724 478.666V478.628C271.724 477.662 270.941 476.879 269.976 476.879Z" fill="#455A64"/>
<path d="M269.976 483.987H243.04C242.074 483.987 241.292 484.769 241.292 485.735V485.773C241.292 486.739 242.074 487.521 243.04 487.521H269.976C270.941 487.521 271.724 486.739 271.724 485.773V485.735C271.724 484.769 270.941 483.987 269.976 483.987Z" fill="#455A64"/>
<path d="M239.633 498.38L244.086 489.907H268.598L273.957 498.38H239.633Z" fill="#455A64"/>
<path d="M270.512 455.532C270.512 455.723 264.246 455.864 256.476 455.864C248.705 455.864 242.503 455.723 242.503 455.532C242.503 455.341 248.756 455.2 256.476 455.2C264.195 455.2 270.512 455.379 270.512 455.532Z" fill="#263238"/>
<path d="M269.938 459.105C269.938 459.283 263.736 459.437 256.106 459.437C248.475 459.437 242.274 459.283 242.274 459.105C242.274 458.926 248.463 458.76 256.106 458.76C263.749 458.76 269.938 458.913 269.938 459.105Z" fill="#263238"/>
<path d="M270.691 462.665C270.691 462.843 264.374 462.997 256.578 462.997C248.782 462.997 242.453 462.843 242.453 462.665C242.453 462.486 248.833 462.333 256.578 462.333C264.323 462.333 270.691 462.486 270.691 462.665Z" fill="#263238"/>
<path d="M269.325 466.199C264.864 466.535 260.388 466.646 255.915 466.531C251.446 466.646 246.974 466.536 242.517 466.199C242.517 466.021 248.514 465.868 255.915 465.868C263.315 465.868 269.325 466.021 269.325 466.199Z" fill="#263238"/>
<path d="M270.295 469.836C270.295 470.027 264.157 470.168 256.578 470.168C248.998 470.168 242.848 470.027 242.848 469.836C242.848 469.644 248.986 469.504 256.578 469.504C264.17 469.504 270.295 469.657 270.295 469.836Z" fill="#263238"/>
<path d="M270.652 473.307C270.652 473.498 264.425 473.638 256.744 473.638C249.062 473.638 242.848 473.498 242.848 473.307C242.848 473.115 249.075 472.975 256.744 472.975C264.413 472.975 270.652 473.128 270.652 473.307Z" fill="#263238"/>
<path d="M269.861 476.879C269.861 477.058 263.991 477.211 256.744 477.211C249.496 477.211 243.639 477.058 243.639 476.879C247.999 476.543 252.373 476.432 256.744 476.548C261.119 476.432 265.497 476.543 269.861 476.879Z" fill="#263238"/>
<path d="M270.078 480.414C265.714 480.75 261.336 480.861 256.96 480.746C252.59 480.861 248.216 480.75 243.856 480.414C243.856 480.235 249.726 480.082 256.96 480.082C264.195 480.082 270.078 480.235 270.078 480.414Z" fill="#263238"/>
<path d="M269.236 483.898C264.897 484.226 260.545 484.337 256.195 484.229C251.845 484.337 247.493 484.226 243.154 483.898C247.493 483.569 251.845 483.458 256.195 483.566C260.545 483.458 264.897 483.569 269.236 483.898Z" fill="#263238"/>
<path d="M269.134 487.521C264.94 487.85 260.732 487.961 256.527 487.853C252.322 487.96 248.114 487.85 243.92 487.521C248.114 487.193 252.322 487.082 256.527 487.19C260.732 487.082 264.94 487.193 269.134 487.521Z" fill="#263238"/>
<path d="M386.079 489.907L361.58 490.571V445.018L386.079 444.354V489.907Z" fill="#455A64"/>
<path d="M387.457 455.557H360.521C359.556 455.557 358.773 456.34 358.773 457.306V457.344C358.773 458.309 359.556 459.092 360.521 459.092H387.457C388.423 459.092 389.205 458.309 389.205 457.344V457.306C389.205 456.34 388.423 455.557 387.457 455.557Z" fill="#455A64"/>
<path d="M387.457 462.665H360.521C359.556 462.665 358.773 463.447 358.773 464.413V464.451C358.773 465.417 359.556 466.199 360.521 466.199H387.457C388.423 466.199 389.205 465.417 389.205 464.451V464.413C389.205 463.447 388.423 462.665 387.457 462.665Z" fill="#455A64"/>
<path d="M387.457 469.772H360.521C359.556 469.772 358.773 470.555 358.773 471.52V471.558C358.773 472.524 359.556 473.307 360.521 473.307H387.457C388.423 473.307 389.205 472.524 389.205 471.558V471.52C389.205 470.555 388.423 469.772 387.457 469.772Z" fill="#455A64"/>
<path d="M387.457 476.879H360.521C359.556 476.879 358.773 477.662 358.773 478.628V478.666C358.773 479.631 359.556 480.414 360.521 480.414H387.457C388.423 480.414 389.205 479.631 389.205 478.666V478.628C389.205 477.662 388.423 476.879 387.457 476.879Z" fill="#455A64"/>
<path d="M387.457 483.987H360.521C359.556 483.987 358.773 484.769 358.773 485.735V485.773C358.773 486.739 359.556 487.521 360.521 487.521H387.457C388.423 487.521 389.205 486.739 389.205 485.773V485.735C389.205 484.769 388.423 483.987 387.457 483.987Z" fill="#455A64"/>
<path d="M357.127 498.38L361.58 489.907H386.079L391.451 498.38H357.127Z" fill="#455A64"/>
<path d="M387.993 455.532C387.993 455.723 381.741 455.864 374.021 455.864C366.301 455.864 360.049 455.723 360.049 455.532C360.049 455.341 366.301 455.2 374.021 455.2C381.741 455.2 387.993 455.379 387.993 455.532Z" fill="#263238"/>
<path d="M387.419 459.105C387.419 459.283 381.23 459.437 373.587 459.437C365.944 459.437 359.755 459.283 359.755 459.105C359.755 458.926 365.944 458.76 373.587 458.76C381.23 458.76 387.419 458.913 387.419 459.105Z" fill="#263238"/>
<path d="M388.185 462.665C388.185 462.843 381.805 462.997 374.059 462.997C366.314 462.997 359.934 462.843 359.934 462.665C359.934 462.486 366.314 462.333 374.059 462.333C381.805 462.333 388.185 462.486 388.185 462.665Z" fill="#263238"/>
<path d="M386.807 466.199C382.349 466.536 377.877 466.646 373.409 466.531C368.94 466.646 364.468 466.536 360.011 466.199C360.011 466.021 366.008 465.868 373.409 465.868C380.81 465.868 386.807 466.021 386.807 466.199Z" fill="#263238"/>
<path d="M387.789 469.836C387.789 470.027 381.639 470.168 374.059 470.168C366.48 470.168 360.33 470.027 360.33 469.836C360.33 469.644 366.48 469.504 374.059 469.504C381.639 469.504 387.789 469.657 387.789 469.836Z" fill="#263238"/>
<path d="M388.134 473.307C388.134 473.498 381.92 473.638 374.238 473.638C366.556 473.638 360.33 473.498 360.33 473.307C360.33 473.115 366.556 472.975 374.238 472.975C381.92 472.975 388.134 473.128 388.134 473.307Z" fill="#263238"/>
<path d="M387.342 476.879C387.342 477.058 381.473 477.211 374.238 477.211C367.003 477.211 361.121 477.058 361.121 476.879C365.484 476.543 369.863 476.432 374.238 476.548C378.609 476.432 382.983 476.543 387.342 476.879Z" fill="#263238"/>
<path d="M387.559 480.414C383.2 480.75 378.826 480.861 374.455 480.746C370.079 480.861 365.701 480.75 361.337 480.414C361.337 480.235 367.207 480.082 374.455 480.082C381.702 480.082 387.559 480.235 387.559 480.414Z" fill="#263238"/>
<path d="M386.692 483.898C382.357 484.226 378.009 484.337 373.664 484.229C369.314 484.337 364.962 484.226 360.623 483.898C364.962 483.569 369.314 483.458 373.664 483.566C378.009 483.458 382.357 483.569 386.692 483.898Z" fill="#263238"/>
<path d="M386.628 487.521C382.434 487.85 378.226 487.96 374.021 487.853C369.816 487.961 365.608 487.85 361.414 487.521C365.608 487.193 369.816 487.082 374.021 487.19C378.226 487.082 382.434 487.193 386.628 487.521Z" fill="#263238"/>
<path d="M277.542 168.343L277.938 394.373H249.343V169.351C249.341 165.307 249.881 161.282 250.951 157.382L262.856 113.858C263.328 112.148 265.331 112.186 265.892 115.248L276.254 157.663C277.103 161.159 277.535 164.744 277.542 168.343Z" fill="#E0E0E0"/>
<path d="M276.815 195.726C276.815 195.904 270.894 196.057 263.57 196.057C256.246 196.057 250.312 195.904 250.312 195.726C254.723 195.389 259.148 195.279 263.57 195.394C267.988 195.278 272.409 195.389 276.815 195.726Z" fill="#5B5EAF"/>
<path d="M276.981 224.04C276.981 224.219 270.869 224.372 263.328 224.372C255.787 224.372 249.662 224.219 249.662 224.04C254.209 223.695 258.77 223.58 263.328 223.696C267.882 223.58 272.439 223.695 276.981 224.04Z" fill="#263238"/>
<path d="M256.246 218.107C256.068 218.107 255.915 217.303 255.915 216.295C255.915 215.287 256.068 214.483 256.246 214.483C256.425 214.483 256.578 215.299 256.578 216.295C256.578 217.29 256.476 218.107 256.246 218.107Z" fill="#263238"/>
<path d="M259.041 217.775C259.224 217.775 259.372 217.112 259.372 216.295C259.372 215.477 259.224 214.815 259.041 214.815C258.858 214.815 258.709 215.477 258.709 216.295C258.709 217.112 258.858 217.775 259.041 217.775Z" fill="#263238"/>
<path d="M277.836 296.976C277.836 297.168 271.545 297.321 263.8 297.321C256.055 297.321 249.764 297.168 249.764 296.976C249.764 296.785 256.055 296.644 263.8 296.644C271.545 296.644 277.836 296.798 277.836 296.976Z" fill="#263238"/>
<path d="M256.374 305.462C256.195 305.462 256.042 304.645 256.042 303.637C256.042 302.629 256.195 301.812 256.374 301.812C256.552 301.812 256.706 302.629 256.706 303.637C256.706 304.645 256.565 305.462 256.374 305.462Z" fill="#263238"/>
<path d="M258.543 305.793C258.351 305.793 258.211 304.938 258.211 303.879C258.211 302.82 258.351 301.978 258.543 301.978C258.734 301.978 258.874 302.833 258.874 303.879C258.874 304.926 258.721 305.793 258.543 305.793Z" fill="#263238"/>
<path d="M268.521 367.488C265.317 367.816 262.094 367.927 258.875 367.82C255.655 367.927 252.432 367.817 249.228 367.488C252.432 367.152 255.655 367.041 258.875 367.156C262.094 367.041 265.317 367.152 268.521 367.488Z" fill="#263238"/>
<path d="M277.134 165.395C277.134 165.574 270.984 165.727 263.392 165.727C255.799 165.727 249.636 165.574 249.636 165.395C249.636 165.216 255.799 165.063 263.392 165.063C270.984 165.063 277.134 165.216 277.134 165.395Z" fill="#263238"/>
<path d="M252.278 167.156C252.278 167.079 252.597 167.054 252.775 167.424C252.834 167.532 252.864 167.652 252.864 167.775C252.864 167.897 252.834 168.018 252.775 168.126C252.677 168.255 252.542 168.352 252.387 168.403C252.232 168.454 252.066 168.457 251.909 168.412C251.753 168.366 251.614 168.274 251.512 168.148C251.409 168.021 251.347 167.867 251.334 167.705C251.332 167.583 251.362 167.462 251.42 167.355C251.478 167.248 251.562 167.157 251.665 167.092C252.01 166.875 252.265 167.092 252.227 167.092C252.188 167.092 252.061 167.233 251.984 167.398C251.908 167.564 251.921 167.666 252.099 167.73C252.278 167.794 252.342 167.73 252.367 167.513C252.393 167.296 252.252 167.156 252.278 167.156Z" fill="#263238"/>
<path d="M263.558 167.156C263.558 167.079 263.877 167.054 264.055 167.424C264.113 167.532 264.144 167.652 264.144 167.775C264.144 167.897 264.113 168.018 264.055 168.126C263.957 168.255 263.821 168.352 263.667 168.403C263.512 168.454 263.346 168.457 263.189 168.412C263.033 168.366 262.894 168.274 262.791 168.148C262.688 168.021 262.626 167.867 262.613 167.705C262.612 167.583 262.641 167.462 262.7 167.355C262.758 167.248 262.842 167.157 262.945 167.092C263.29 166.875 263.545 167.092 263.507 167.092C263.468 167.092 263.341 167.233 263.264 167.398C263.188 167.564 263.2 167.666 263.379 167.73C263.558 167.794 263.621 167.73 263.66 167.513C263.698 167.296 263.532 167.156 263.558 167.156Z" fill="#263238"/>
<path d="M274.837 167.156C274.837 167.079 275.156 167.054 275.335 167.424C275.393 167.532 275.423 167.652 275.423 167.775C275.423 167.897 275.393 168.018 275.335 168.126C275.24 168.257 275.107 168.354 274.953 168.405C274.8 168.455 274.634 168.456 274.48 168.406C274.321 168.366 274.178 168.277 274.073 168.151C273.967 168.025 273.904 167.869 273.893 167.705C273.892 167.583 273.921 167.462 273.979 167.355C274.037 167.248 274.122 167.157 274.225 167.092C274.582 166.875 274.825 167.092 274.786 167.092C274.748 167.092 274.62 167.233 274.544 167.398C274.467 167.564 274.544 167.666 274.659 167.73C274.774 167.794 274.901 167.73 274.939 167.513C274.978 167.296 274.812 167.156 274.837 167.156Z" fill="#263238"/>
<path d="M252.278 226.503C252.278 226.413 252.597 226.388 252.775 226.758C252.833 226.866 252.864 226.986 252.864 227.109C252.864 227.231 252.833 227.352 252.775 227.46C252.677 227.589 252.542 227.686 252.387 227.737C252.232 227.788 252.066 227.791 251.909 227.746C251.753 227.7 251.614 227.608 251.511 227.482C251.409 227.355 251.347 227.201 251.333 227.039C251.333 226.917 251.363 226.797 251.421 226.69C251.479 226.583 251.563 226.492 251.665 226.426C252.01 226.209 252.265 226.426 252.227 226.426C252.188 226.426 252.061 226.579 251.984 226.732C251.908 226.885 251.92 227.013 252.099 227.064C252.278 227.115 252.342 227.064 252.367 226.847C252.393 226.63 252.252 226.592 252.278 226.503Z" fill="#263238"/>
<path d="M263.558 226.503C263.558 226.413 263.877 226.388 264.055 226.758C264.113 226.866 264.144 226.986 264.144 227.109C264.144 227.231 264.113 227.352 264.055 227.46C263.957 227.589 263.821 227.686 263.667 227.737C263.512 227.788 263.346 227.791 263.189 227.746C263.033 227.7 262.894 227.608 262.791 227.482C262.688 227.355 262.626 227.201 262.613 227.039C262.613 226.917 262.643 226.797 262.701 226.69C262.759 226.583 262.843 226.492 262.945 226.426C263.29 226.209 263.545 226.426 263.506 226.426C263.468 226.426 263.341 226.579 263.264 226.732C263.187 226.885 263.2 227.013 263.379 227.064C263.558 227.115 263.621 227.064 263.66 226.847C263.698 226.63 263.532 226.592 263.558 226.503Z" fill="#263238"/>
<path d="M274.837 226.503C274.837 226.413 275.156 226.388 275.335 226.758C275.393 226.866 275.423 226.986 275.423 227.109C275.423 227.231 275.393 227.352 275.335 227.46C275.24 227.591 275.107 227.688 274.953 227.739C274.8 227.789 274.634 227.79 274.48 227.74C274.321 227.7 274.178 227.611 274.073 227.485C273.967 227.359 273.904 227.203 273.893 227.039C273.893 226.917 273.923 226.797 273.981 226.69C274.039 226.583 274.123 226.492 274.225 226.426C274.582 226.209 274.825 226.426 274.786 226.426C274.748 226.426 274.62 226.579 274.544 226.732C274.467 226.885 274.544 227.013 274.659 227.064C274.774 227.115 274.901 227.064 274.939 226.847C274.978 226.63 274.812 226.592 274.837 226.503Z" fill="#263238"/>
<path d="M252.278 291.642C252.278 291.553 252.597 291.528 252.775 291.898C252.833 292.005 252.864 292.126 252.864 292.249C252.864 292.371 252.833 292.492 252.775 292.599C252.679 292.732 252.544 292.832 252.388 292.885C252.233 292.937 252.065 292.94 251.908 292.893C251.751 292.847 251.611 292.753 251.509 292.626C251.406 292.498 251.345 292.342 251.333 292.178C251.333 292.057 251.363 291.937 251.421 291.83C251.479 291.723 251.563 291.632 251.665 291.566C252.01 291.349 252.265 291.566 252.227 291.566C252.188 291.566 252.061 291.706 251.984 291.859C251.908 292.012 251.92 292.14 252.099 292.191C252.278 292.242 252.342 292.191 252.367 291.974C252.393 291.757 252.252 291.732 252.278 291.642Z" fill="#263238"/>
<path d="M263.558 291.642C263.558 291.553 263.877 291.528 264.055 291.898C264.113 292.005 264.144 292.126 264.144 292.249C264.144 292.371 264.113 292.492 264.055 292.599C263.96 292.734 263.825 292.835 263.669 292.887C263.513 292.94 263.345 292.942 263.187 292.893C263.03 292.847 262.891 292.753 262.789 292.626C262.686 292.498 262.625 292.342 262.613 292.178C262.613 292.057 262.643 291.937 262.701 291.83C262.759 291.723 262.843 291.632 262.945 291.566C263.29 291.349 263.545 291.566 263.506 291.566C263.468 291.566 263.341 291.706 263.264 291.859C263.187 292.012 263.2 292.14 263.379 292.191C263.558 292.242 263.621 292.191 263.66 291.974C263.698 291.757 263.532 291.732 263.558 291.642Z" fill="#263238"/>
<path d="M274.837 291.642C274.837 291.553 275.156 291.528 275.335 291.898C275.393 292.005 275.423 292.126 275.423 292.249C275.423 292.371 275.393 292.492 275.335 292.599C275.242 292.733 275.109 292.833 274.955 292.886C274.802 292.939 274.635 292.941 274.48 292.893C274.321 292.849 274.179 292.756 274.074 292.629C273.968 292.501 273.905 292.343 273.893 292.178C273.893 292.057 273.923 291.937 273.981 291.83C274.039 291.723 274.123 291.632 274.225 291.566C274.582 291.349 274.825 291.566 274.786 291.566C274.748 291.566 274.62 291.706 274.544 291.859C274.467 292.012 274.544 292.14 274.659 292.191C274.774 292.242 274.901 292.191 274.939 291.974C274.978 291.757 274.812 291.732 274.837 291.642Z" fill="#263238"/>
<path d="M252.278 362.665C252.278 362.575 252.597 362.55 252.775 362.92C252.833 363.028 252.864 363.148 252.864 363.271C252.864 363.393 252.833 363.514 252.775 363.622C252.677 363.751 252.542 363.848 252.387 363.899C252.232 363.95 252.066 363.953 251.909 363.908C251.753 363.862 251.614 363.77 251.511 363.644C251.409 363.517 251.347 363.363 251.333 363.201C251.333 363.079 251.363 362.959 251.421 362.852C251.479 362.745 251.563 362.654 251.665 362.588C252.01 362.371 252.265 362.588 252.227 362.588C252.188 362.588 252.061 362.741 251.984 362.894C251.908 363.047 251.92 363.175 252.099 363.226C252.278 363.277 252.342 363.226 252.367 363.009C252.393 362.792 252.252 362.754 252.278 362.665Z" fill="#263238"/>
<path d="M263.558 362.665C263.558 362.575 263.877 362.55 264.055 362.92C264.113 363.028 264.144 363.148 264.144 363.271C264.144 363.393 264.113 363.514 264.055 363.622C263.957 363.751 263.821 363.848 263.667 363.899C263.512 363.95 263.346 363.953 263.189 363.908C263.033 363.862 262.894 363.77 262.791 363.644C262.688 363.517 262.626 363.363 262.613 363.201C262.613 363.079 262.643 362.959 262.701 362.852C262.759 362.745 262.843 362.654 262.945 362.588C263.29 362.371 263.545 362.588 263.506 362.588C263.468 362.588 263.341 362.741 263.264 362.894C263.187 363.047 263.2 363.175 263.379 363.226C263.558 363.277 263.621 363.226 263.66 363.009C263.698 362.792 263.532 362.754 263.558 362.665Z" fill="#263238"/>
<path d="M354.728 168.343L354.319 394.373H382.915V169.351C382.91 165.308 382.37 161.283 381.307 157.382L369.402 113.858C368.93 112.148 366.926 112.186 366.365 115.248L356.004 157.663C355.153 161.159 354.724 164.744 354.728 168.343Z" fill="#E0E0E0"/>
<path d="M355.48 195.726C359.887 195.389 364.308 195.279 368.725 195.394C373.147 195.279 377.572 195.389 381.983 195.726C381.983 195.904 376.05 196.057 368.725 196.057C361.401 196.057 355.48 195.904 355.48 195.726Z" fill="#5B5EAF"/>
<path d="M355.315 224.04C359.862 223.695 364.423 223.58 368.981 223.696C373.535 223.58 378.092 223.695 382.634 224.04C382.634 224.219 376.522 224.372 368.981 224.372C361.44 224.372 355.315 224.219 355.315 224.04Z" fill="#263238"/>
<path d="M376.05 218.107C375.871 218.107 375.718 217.303 375.718 216.295C375.718 215.287 375.871 214.483 376.05 214.483C376.229 214.483 376.382 215.299 376.382 216.295C376.382 217.29 376.241 218.107 376.05 218.107Z" fill="#263238"/>
<path d="M373.256 217.775C373.439 217.775 373.587 217.112 373.587 216.295C373.587 215.477 373.439 214.815 373.256 214.815C373.072 214.815 372.924 215.477 372.924 216.295C372.924 217.112 373.072 217.775 373.256 217.775Z" fill="#263238"/>
<path d="M354.46 296.976C354.46 296.798 360.763 296.644 368.496 296.644C376.229 296.644 382.532 296.798 382.532 296.976C382.532 297.155 376.241 297.321 368.496 297.321C360.751 297.321 354.46 297.168 354.46 296.976Z" fill="#263238"/>
<path d="M375.922 305.462C375.743 305.462 375.59 304.645 375.59 303.637C375.59 302.629 375.743 301.812 375.922 301.812C376.101 301.812 376.254 302.629 376.254 303.637C376.254 304.645 376.101 305.462 375.922 305.462Z" fill="#263238"/>
<path d="M373.766 305.793C373.574 305.793 373.434 304.938 373.434 303.879C373.434 302.82 373.574 301.978 373.766 301.978C373.957 301.978 374.098 302.833 374.098 303.879C374.098 304.926 373.945 305.793 373.766 305.793Z" fill="#263238"/>
<path d="M363.775 367.488C366.979 367.152 370.202 367.041 373.421 367.156C376.645 367.041 379.873 367.152 383.081 367.488C379.872 367.816 376.645 367.927 373.421 367.82C370.202 367.927 366.979 367.816 363.775 367.488Z" fill="#263238"/>
<path d="M355.162 165.395C355.162 165.216 361.325 165.063 368.917 165.063C376.509 165.063 382.659 165.216 382.659 165.395C382.659 165.574 376.509 165.727 368.917 165.727C361.325 165.727 355.162 165.574 355.162 165.395Z" fill="#263238"/>
<path d="M380.018 167.156C380.018 167.245 379.954 167.373 380.018 167.552C380.082 167.73 380.12 167.807 380.286 167.769C380.452 167.73 380.49 167.628 380.414 167.437C380.337 167.245 380.184 167.22 380.159 167.13C380.133 167.041 380.376 166.875 380.72 167.13C380.823 167.196 380.908 167.286 380.966 167.394C381.024 167.501 381.053 167.621 381.052 167.743C381.043 167.906 380.983 168.062 380.88 168.188C380.776 168.314 380.636 168.404 380.478 168.445C380.322 168.495 380.154 168.495 379.998 168.445C379.843 168.394 379.707 168.296 379.61 168.164C379.552 168.056 379.521 167.936 379.521 167.813C379.521 167.691 379.552 167.57 379.61 167.462C379.699 167.016 380.018 167.041 380.018 167.156Z" fill="#263238"/>
<path d="M368.764 167.156C368.764 167.245 368.7 167.373 368.764 167.552C368.828 167.73 368.853 167.807 369.032 167.769C369.21 167.73 369.236 167.628 369.147 167.437C369.057 167.245 368.93 167.22 368.904 167.13C368.879 167.041 369.121 166.875 369.466 167.13C369.569 167.196 369.653 167.286 369.711 167.394C369.769 167.501 369.799 167.621 369.797 167.743C369.789 167.906 369.729 168.062 369.625 168.188C369.522 168.314 369.381 168.404 369.223 168.445C369.067 168.495 368.9 168.495 368.744 168.445C368.588 168.394 368.452 168.296 368.356 168.164C368.297 168.056 368.267 167.936 368.267 167.813C368.267 167.691 368.297 167.57 368.356 167.462C368.419 167.016 368.764 167.041 368.764 167.156Z" fill="#263238"/>
<path d="M357.459 167.156C357.459 167.245 357.395 167.373 357.459 167.552C357.523 167.73 357.548 167.807 357.727 167.768C357.905 167.73 357.931 167.628 357.841 167.437C357.752 167.245 357.625 167.22 357.599 167.13C357.574 167.041 357.816 166.875 358.16 167.13C358.263 167.196 358.348 167.286 358.406 167.394C358.464 167.501 358.494 167.621 358.492 167.743C358.479 167.905 358.417 168.06 358.314 168.186C358.211 168.312 358.073 168.404 357.916 168.45C357.76 168.496 357.593 168.493 357.439 168.442C357.284 168.391 357.149 168.294 357.05 168.164C356.992 168.056 356.962 167.936 356.962 167.813C356.962 167.691 356.992 167.57 357.05 167.462C357.14 167.016 357.459 167.041 357.459 167.156Z" fill="#263238"/>
<path d="M380.018 226.503C380.018 226.592 379.954 226.707 380.018 226.886C380.082 227.064 380.12 227.154 380.286 227.102C380.452 227.051 380.49 226.962 380.414 226.771C380.337 226.579 380.184 226.554 380.159 226.464C380.133 226.375 380.376 226.209 380.72 226.464C380.822 226.531 380.906 226.621 380.964 226.728C381.022 226.835 381.052 226.955 381.052 227.077C381.043 227.24 380.983 227.396 380.88 227.522C380.776 227.648 380.636 227.738 380.478 227.779C380.322 227.829 380.154 227.829 379.998 227.779C379.843 227.728 379.707 227.63 379.61 227.498C379.552 227.39 379.521 227.27 379.521 227.147C379.521 227.025 379.552 226.904 379.61 226.796C379.699 226.388 380.018 226.413 380.018 226.503Z" fill="#263238"/>
<path d="M368.764 226.503C368.764 226.592 368.7 226.707 368.764 226.886C368.828 227.064 368.853 227.154 369.032 227.102C369.21 227.051 369.236 226.962 369.147 226.771C369.057 226.579 368.93 226.554 368.904 226.464C368.879 226.375 369.121 226.209 369.466 226.464C369.568 226.531 369.652 226.621 369.71 226.728C369.768 226.835 369.798 226.955 369.797 227.077C369.789 227.24 369.729 227.396 369.625 227.522C369.522 227.648 369.381 227.738 369.223 227.779C369.067 227.829 368.9 227.829 368.744 227.779C368.588 227.728 368.452 227.63 368.356 227.498C368.297 227.39 368.267 227.27 368.267 227.147C368.267 227.025 368.297 226.904 368.356 226.796C368.419 226.388 368.764 226.413 368.764 226.503Z" fill="#263238"/>
<path d="M357.459 226.503C357.459 226.592 357.395 226.707 357.459 226.886C357.523 227.064 357.548 227.154 357.727 227.102C357.905 227.051 357.931 226.962 357.842 226.771C357.752 226.579 357.625 226.554 357.599 226.464C357.574 226.375 357.816 226.209 358.161 226.464C358.263 226.531 358.347 226.621 358.404 226.728C358.462 226.835 358.493 226.955 358.492 227.077C358.479 227.239 358.417 227.394 358.314 227.52C358.211 227.646 358.073 227.738 357.916 227.784C357.76 227.83 357.593 227.827 357.439 227.776C357.284 227.725 357.149 227.628 357.05 227.498C356.992 227.39 356.962 227.27 356.962 227.147C356.962 227.025 356.992 226.904 357.05 226.796C357.14 226.388 357.459 226.413 357.459 226.503Z" fill="#263238"/>
<path d="M380.018 291.643C380.018 291.732 379.954 291.847 380.018 292.025C380.082 292.204 380.12 292.293 380.286 292.242C380.452 292.191 380.49 292.115 380.414 291.91C380.337 291.706 380.184 291.706 380.159 291.617C380.133 291.528 380.376 291.349 380.72 291.617C380.822 291.683 380.906 291.774 380.964 291.881C381.022 291.988 381.052 292.108 381.052 292.229C381.039 292.392 380.977 292.546 380.874 292.673C380.771 292.799 380.632 292.891 380.476 292.937C380.32 292.982 380.153 292.979 379.998 292.928C379.844 292.877 379.708 292.78 379.61 292.651C379.552 292.543 379.521 292.422 379.521 292.3C379.521 292.177 379.552 292.057 379.61 291.949C379.699 291.528 380.018 291.553 380.018 291.643Z" fill="#263238"/>
<path d="M368.764 291.643C368.764 291.732 368.7 291.847 368.764 292.025C368.828 292.204 368.853 292.293 369.032 292.242C369.21 292.191 369.236 292.115 369.147 291.91C369.057 291.706 368.93 291.706 368.904 291.617C368.879 291.528 369.121 291.349 369.466 291.617C369.568 291.683 369.652 291.774 369.71 291.881C369.768 291.988 369.798 292.108 369.797 292.229C369.784 292.392 369.722 292.546 369.619 292.673C369.517 292.799 369.378 292.891 369.222 292.937C369.065 292.982 368.899 292.979 368.744 292.928C368.589 292.877 368.454 292.78 368.356 292.651C368.297 292.543 368.267 292.422 368.267 292.3C368.267 292.177 368.297 292.057 368.356 291.949C368.419 291.528 368.764 291.553 368.764 291.643Z" fill="#263238"/>
<path d="M357.459 291.643C357.459 291.732 357.395 291.847 357.459 292.025C357.523 292.204 357.548 292.293 357.727 292.242C357.905 292.191 357.931 292.115 357.842 291.91C357.752 291.706 357.625 291.706 357.599 291.617C357.574 291.528 357.816 291.349 358.161 291.617C358.263 291.683 358.347 291.774 358.404 291.881C358.462 291.988 358.493 292.108 358.492 292.229C358.481 292.393 358.42 292.549 358.317 292.677C358.214 292.804 358.075 292.898 357.918 292.944C357.761 292.991 357.593 292.988 357.437 292.936C357.282 292.883 357.147 292.783 357.05 292.651C356.992 292.543 356.962 292.422 356.962 292.3C356.962 292.177 356.992 292.057 357.05 291.949C357.14 291.528 357.459 291.553 357.459 291.643Z" fill="#263238"/>
<path d="M380.018 362.665C380.018 362.754 379.954 362.869 380.018 363.048C380.082 363.226 380.12 363.316 380.286 363.264C380.452 363.213 380.49 363.124 380.414 362.933C380.337 362.741 380.184 362.716 380.159 362.626C380.133 362.537 380.376 362.371 380.72 362.626C380.822 362.693 380.906 362.783 380.964 362.89C381.022 362.997 381.052 363.117 381.052 363.239C381.043 363.402 380.983 363.558 380.88 363.684C380.776 363.81 380.636 363.9 380.478 363.941C380.322 363.991 380.154 363.991 379.998 363.941C379.843 363.89 379.707 363.792 379.61 363.66C379.552 363.552 379.521 363.432 379.521 363.309C379.521 363.187 379.552 363.066 379.61 362.958C379.699 362.55 380.018 362.575 380.018 362.665Z" fill="#263238"/>
<path d="M368.764 362.665C368.764 362.754 368.7 362.869 368.764 363.048C368.828 363.226 368.853 363.316 369.032 363.264C369.21 363.213 369.236 363.124 369.147 362.933C369.057 362.741 368.93 362.716 368.904 362.626C368.879 362.537 369.121 362.371 369.466 362.626C369.568 362.693 369.652 362.783 369.71 362.89C369.768 362.997 369.798 363.117 369.797 363.239C369.789 363.402 369.729 363.558 369.625 363.684C369.522 363.81 369.381 363.9 369.223 363.941C369.067 363.991 368.9 363.991 368.744 363.941C368.588 363.89 368.452 363.792 368.356 363.66C368.297 363.552 368.267 363.432 368.267 363.309C368.267 363.187 368.297 363.066 368.356 362.958C368.419 362.55 368.764 362.575 368.764 362.665Z" fill="#263238"/>
<path d="M407.873 433.164L407.542 442.695L339.314 452.674L339.607 435.282L407.873 433.164Z" fill="#263238"/>
<path d="M315.593 27.4084C315.593 27.4084 281.46 67.3217 280.541 104.453C279.648 140.551 280.541 240.373 280.541 240.373V362.014H350.721V113.743C350.721 113.743 350.07 99.0558 343.703 76.5217C337.782 55.8632 315.593 27.4084 315.593 27.4084Z" fill="#5B5EAF"/>
<path d="M350.632 135.971C350.632 136.149 334.861 136.302 315.402 136.302C295.943 136.302 280.171 136.149 280.171 135.971C280.171 135.792 295.943 135.639 315.402 135.639C334.861 135.639 350.632 135.792 350.632 135.971Z" fill="#263238"/>
<path d="M284.548 204.798C284.548 204.798 284.548 204.798 284.548 204.938V205.04H284.471V204.977H284.548V205.206H284.446C284.28 202.654 284.165 188.21 284.165 170.869C284.165 161.274 284.229 152.597 284.254 146.191C284.254 143.103 284.344 140.577 284.369 138.714C284.369 137.897 284.369 137.221 284.433 136.685C284.397 136.448 284.397 136.207 284.433 135.971C284.482 136.206 284.503 136.445 284.497 136.685C284.497 137.221 284.497 137.897 284.561 138.714C284.561 140.577 284.561 143.103 284.663 146.191C284.663 152.571 284.726 161.274 284.765 170.869C284.765 188.21 284.637 202.591 284.484 205.206H284.382V204.977H284.548V205.04H284.471V204.938C284.459 204.849 284.471 204.798 284.548 204.798Z" fill="#263238"/>
<path d="M289.511 205.206C289.333 205.206 289.18 189.703 289.18 170.588C289.18 151.474 289.333 135.971 289.511 135.971C289.69 135.971 289.843 151.474 289.843 170.588C289.843 189.703 289.652 205.206 289.511 205.206Z" fill="#263238"/>
<path d="M294.679 205.206C294.501 205.206 294.322 189.703 294.284 170.588C294.245 151.474 294.36 135.971 294.552 135.971C294.743 135.971 294.909 151.474 294.947 170.588C294.986 189.703 294.871 205.206 294.679 205.206Z" fill="#263238"/>
<path d="M299.579 205.206C299.387 205.206 299.247 189.703 299.247 170.588C299.247 151.474 299.387 135.971 299.579 135.971C299.77 135.971 299.911 151.474 299.911 170.588C299.911 189.703 299.757 205.206 299.579 205.206Z" fill="#263238"/>
<path d="M304.607 206.814C304.428 206.814 304.275 190.953 304.275 171.392C304.275 151.831 304.428 135.971 304.607 135.971C304.785 135.971 304.964 151.844 304.964 171.392C304.964 190.941 304.798 206.814 304.607 206.814Z" fill="#263238"/>
<path d="M309.634 206.814C309.455 206.814 309.302 190.953 309.302 171.392C309.302 151.831 309.455 135.971 309.634 135.971C309.813 135.971 309.979 151.831 309.979 171.392C309.979 190.953 309.825 206.814 309.634 206.814Z" fill="#263238"/>
<path d="M314.674 206.814C314.483 206.814 314.342 190.953 314.342 171.392C314.342 151.831 314.483 135.971 314.674 135.971C314.865 135.971 315.006 151.831 315.006 171.392C315.006 190.953 314.853 206.814 314.674 206.814Z" fill="#263238"/>
<path d="M319.701 206.814C319.523 206.814 319.37 190.953 319.37 171.392C319.37 151.831 319.523 135.971 319.701 135.971C319.88 135.971 320.033 151.831 320.033 171.392C320.033 190.953 319.88 206.814 319.701 206.814Z" fill="#263238"/>
<path d="M324.729 206.814C324.551 206.814 324.397 190.953 324.397 171.392C324.397 151.831 324.551 135.971 324.729 135.971C324.908 135.971 325.061 151.831 325.061 171.392C325.061 190.953 324.921 206.814 324.729 206.814Z" fill="#263238"/>
<path d="M330.012 205.206C329.833 205.206 329.629 189.703 329.565 170.588C329.501 151.474 329.565 135.971 329.769 135.971C329.974 135.971 330.152 151.474 330.229 170.588C330.305 189.703 330.203 205.206 330.012 205.206Z" fill="#263238"/>
<path d="M334.797 205.206C334.748 204.976 334.727 204.74 334.733 204.505C334.733 203.969 334.733 203.305 334.669 202.488C334.669 200.638 334.669 198.125 334.567 195.062C334.567 188.682 334.503 180.107 334.465 170.588C334.426 161.07 334.541 152.457 334.567 146.115C334.567 143.052 334.643 140.539 334.669 138.688C334.669 137.872 334.669 137.208 334.733 136.672C334.727 136.437 334.748 136.201 334.797 135.971C334.853 136.2 334.874 136.437 334.86 136.672C334.86 137.208 334.86 137.872 334.924 138.688C334.924 140.539 334.924 143.052 335.026 146.115C335.026 152.495 335.09 161.07 335.128 170.588C335.167 180.107 335.052 188.72 335.026 195.062C335.026 198.125 334.95 200.638 334.924 202.488C334.924 203.305 334.924 203.969 334.86 204.505C334.874 204.74 334.853 204.977 334.797 205.206Z" fill="#263238"/>
<path d="M339.824 205.206C339.645 205.206 339.492 189.703 339.492 170.588C339.492 151.474 339.645 135.971 339.824 135.971C340.003 135.971 340.156 151.474 340.156 170.588C340.156 189.703 340.015 205.206 339.824 205.206Z" fill="#263238"/>
<path d="M344.864 205.206C344.673 205.206 344.533 189.703 344.533 170.588C344.533 151.474 344.673 135.971 344.864 135.971C345.056 135.971 345.196 151.474 345.196 170.588C345.196 189.703 345.043 205.206 344.864 205.206Z" fill="#263238"/>
<path d="M349.892 205.206C349.713 205.206 349.56 189.703 349.56 170.588C349.56 151.474 349.713 135.971 349.892 135.971C350.07 135.971 350.224 151.474 350.224 170.588C350.224 189.703 350.07 205.206 349.892 205.206Z" fill="#263238"/>
<path d="M350.632 205.206C350.632 205.385 334.911 205.538 315.529 205.538C296.147 205.538 280.439 205.385 280.439 205.206C280.439 205.028 296.147 204.875 315.529 204.875C334.911 204.875 350.632 205.028 350.632 205.206Z" fill="#263238"/>
<path d="M289.869 436.698L222.624 434.618C222.624 434.618 225.176 412.492 227.319 410.374C230.458 407.248 283.655 352.367 283.655 352.367C283.655 352.367 292.995 234.465 293.773 231.071C294.552 227.677 309.417 184.42 310.195 183.387C310.974 182.353 311.752 179.993 315.669 179.737C319.587 179.482 321.922 183.897 321.922 183.897C321.922 183.897 337.042 231.862 337.821 235.766L350.172 355.009C350.377 356.438 404.351 412.429 405.576 415.121C406.801 417.813 407.835 433.176 407.835 433.176L340.692 438.102L289.869 436.698Z" fill="#E0E0E0"/>
<path d="M337.783 234.286C335.575 226.094 322.152 183.527 322.152 183.527C322.152 183.527 319.817 179.099 315.899 179.354C311.982 179.61 311.216 181.97 310.425 183.004C309.634 184.037 294.756 227.307 294.016 230.701C293.939 231.007 293.799 232.257 293.595 234.286H337.783Z" fill="#F5F5F5"/>
<path d="M291.208 455.813L290.647 422.841L294.539 410.476L294.322 310.259L293.595 234.286H337.782L336.966 410.578L341.432 422.254V471.367H318.323L317.953 420.786C317.95 420.173 317.704 419.585 317.269 419.153C316.834 418.72 316.245 418.477 315.631 418.477C315.014 418.48 314.423 418.728 313.988 419.165C313.553 419.603 313.309 420.195 313.309 420.812L313.424 471.367H291.413L291.208 455.813Z" fill="#F5F5F5"/>
<path d="M222.624 434.618L222.955 444.137L291.183 454.116L290.89 436.736L222.624 434.618Z" fill="#263238"/>
<path d="M223.466 428.736C223.466 428.545 238.395 428.404 256.795 428.404C275.195 428.404 290.124 428.545 290.124 428.736C290.124 428.927 275.208 429.068 256.795 429.068C238.382 429.068 223.466 428.851 223.466 428.736Z" fill="#263238"/>
<path d="M228.723 434.81C228.4 433.819 228.287 432.771 228.391 431.735C228.286 430.702 228.399 429.659 228.723 428.672C229.053 429.657 229.167 430.702 229.054 431.735C229.166 432.772 229.053 433.82 228.723 434.81Z" fill="#263238"/>
<path d="M234.172 434.682C233.729 432.768 233.729 430.778 234.172 428.864C234.614 430.778 234.614 432.768 234.172 434.682Z" fill="#263238"/>
<path d="M240.373 435.116C239.93 433.012 239.93 430.84 240.373 428.736C240.815 430.84 240.815 433.012 240.373 435.116Z" fill="#263238"/>
<path d="M246.383 435.358C245.923 433.153 245.923 430.877 246.383 428.672C246.825 430.879 246.825 433.152 246.383 435.358Z" fill="#263238"/>
<path d="M252.01 435.537C251.566 433.27 251.566 430.939 252.01 428.672C252.453 430.939 252.453 433.27 252.01 435.537Z" fill="#263238"/>
<path d="M257.905 435.537C257.461 433.27 257.461 430.939 257.905 428.672C258.349 430.939 258.349 433.27 257.905 435.537Z" fill="#263238"/>
<path d="M263.8 435.537C263.356 433.27 263.356 430.939 263.8 428.672C264.244 430.939 264.244 433.27 263.8 435.537Z" fill="#263238"/>
<path d="M269.695 436.073C269.253 433.626 269.253 431.119 269.695 428.672C270.137 431.119 270.137 433.626 269.695 436.073Z" fill="#263238"/>
<path d="M275.616 436.264C275.174 433.753 275.174 431.184 275.616 428.672C276.058 431.184 276.058 433.753 275.616 436.264Z" fill="#263238"/>
<path d="M281.486 436.902C281.043 434.177 281.043 431.398 281.486 428.672C281.928 431.398 281.928 434.177 281.486 436.902Z" fill="#263238"/>
<path d="M287.38 435.537C287.56 436.119 287.638 436.728 287.61 437.336V437.77V438.204H287.1V437.158C287.1 436.379 287.1 435.601 287.1 434.784C286.985 432.737 287.096 430.683 287.431 428.659C287.759 430.683 287.87 432.737 287.763 434.784C287.763 435.601 287.763 436.379 287.763 437.158V438.204H287.1V437.336C287.085 436.724 287.18 436.115 287.38 435.537Z" fill="#263238"/>
<path d="M270.55 422.726C275.412 422.726 279.354 418.784 279.354 413.922C279.354 409.059 275.412 405.117 270.55 405.117C265.687 405.117 261.746 409.059 261.746 413.922C261.746 418.784 265.687 422.726 270.55 422.726Z" fill="#5B5EAF"/>
<path d="M226.477 425.316C226.477 424.627 228.723 413.922 228.723 413.922L285.224 355.226L286.053 322.254L283.655 352.316L227.97 409.277C226.653 410.638 225.784 412.371 225.482 414.241L223.3 428.864L226.477 425.316Z" fill="#263238"/>
<path d="M314.942 257.127C315.134 257.127 315.274 293.186 315.274 337.642C315.274 382.098 315.134 418.171 314.942 418.171C314.751 418.171 314.61 382.124 314.61 337.642C314.61 293.161 314.763 257.127 314.942 257.127Z" fill="#263238"/>
<path d="M314.291 244.048H311.178V249.535H314.291V244.048Z" fill="#455A64"/>
<path d="M321.284 244.048H318.17V249.535H321.284V244.048Z" fill="#455A64"/>
<path d="M303.05 229.961L307.082 234.21H324.346L328.391 230.152C328.391 230.152 324.168 225.89 315.631 225.89C311.117 225.911 306.721 227.334 303.05 229.961Z" fill="#263238"/>
<path d="M337.68 255.506C337.68 255.698 327.855 255.838 315.746 255.838C303.637 255.838 293.799 255.698 293.799 255.506C293.799 255.315 303.624 255.174 315.746 255.174C327.868 255.174 337.68 255.328 337.68 255.506Z" fill="#263238"/>
<path d="M330.867 211.05C330.867 211.229 324.231 211.382 316.039 211.382C307.848 211.382 301.225 211.229 301.225 211.05C301.225 210.872 307.86 210.719 316.039 210.719C324.219 210.719 330.867 210.872 330.867 211.05Z" fill="#263238"/>
<path d="M297.55 259.232C297.55 259.334 297.384 259.411 297.321 259.628C297.257 259.845 297.321 260.023 297.576 260.049C297.831 260.074 297.908 259.896 297.869 259.653C297.831 259.411 297.678 259.334 297.691 259.245C297.703 259.156 298.01 259.079 298.29 259.436C298.367 259.547 298.417 259.674 298.434 259.807C298.452 259.94 298.438 260.075 298.392 260.202C298.316 260.361 298.194 260.493 298.042 260.583C297.89 260.672 297.716 260.715 297.54 260.705C297.364 260.696 297.194 260.635 297.053 260.529C296.912 260.424 296.805 260.279 296.746 260.113C296.713 259.981 296.713 259.843 296.747 259.712C296.78 259.581 296.846 259.459 296.938 259.36C297.308 259.028 297.576 259.156 297.55 259.232Z" fill="#263238"/>
<path d="M301.965 259.232C301.965 259.334 301.799 259.411 301.735 259.628C301.672 259.845 301.735 260.023 301.991 260.049C302.246 260.074 302.322 259.896 302.284 259.653C302.246 259.411 302.093 259.334 302.105 259.245C302.118 259.156 302.424 259.079 302.705 259.436C302.782 259.547 302.831 259.674 302.849 259.807C302.867 259.94 302.853 260.075 302.807 260.202C302.734 260.364 302.613 260.501 302.46 260.592C302.307 260.683 302.13 260.725 301.952 260.712C301.774 260.709 301.601 260.649 301.459 260.541C301.317 260.434 301.213 260.284 301.161 260.113C301.126 259.981 301.125 259.843 301.158 259.711C301.192 259.579 301.259 259.458 301.353 259.36C301.659 259.028 301.991 259.156 301.965 259.232Z" fill="#263238"/>
<path d="M306.75 259.232C306.75 259.334 306.584 259.411 306.521 259.628C306.457 259.845 306.521 260.023 306.776 260.049C307.031 260.074 307.108 259.896 307.069 259.653C307.031 259.411 306.878 259.334 306.891 259.245C306.903 259.156 307.21 259.079 307.49 259.436C307.567 259.547 307.617 259.674 307.634 259.807C307.652 259.94 307.638 260.075 307.592 260.202C307.52 260.364 307.398 260.501 307.245 260.592C307.093 260.683 306.915 260.725 306.737 260.712C306.559 260.709 306.386 260.649 306.244 260.541C306.102 260.434 305.998 260.284 305.946 260.113C305.911 259.981 305.91 259.843 305.943 259.711C305.977 259.579 306.044 259.458 306.138 259.36C306.444 259.028 306.776 259.156 306.75 259.232Z" fill="#263238"/>
<path d="M311.535 259.232C311.535 259.334 311.37 259.411 311.306 259.628C311.242 259.845 311.306 260.023 311.561 260.049C311.816 260.074 311.893 259.896 311.854 259.653C311.816 259.411 311.663 259.334 311.676 259.245C311.689 259.156 311.995 259.079 312.275 259.436C312.352 259.547 312.402 259.674 312.419 259.807C312.437 259.94 312.423 260.075 312.378 260.202C312.305 260.364 312.184 260.501 312.031 260.592C311.878 260.683 311.7 260.725 311.523 260.712C311.344 260.709 311.172 260.649 311.029 260.541C310.887 260.434 310.783 260.284 310.732 260.113C310.696 259.981 310.695 259.843 310.728 259.711C310.762 259.579 310.829 259.458 310.923 259.36C311.229 259.028 311.561 259.156 311.535 259.232Z" fill="#263238"/>
<path d="M336.979 373.102C336.979 373.294 327.396 373.434 315.58 373.434C303.764 373.434 294.182 373.294 294.182 373.102C294.182 372.911 303.752 372.771 315.58 372.771C327.409 372.771 336.979 372.924 336.979 373.102Z" fill="#263238"/>
<path d="M337.4 297.168C337.4 297.346 327.728 297.499 315.797 297.499C303.866 297.499 294.194 297.346 294.194 297.168C294.194 296.989 303.866 296.836 315.797 296.836C327.728 296.836 337.4 296.976 337.4 297.168Z" fill="#263238"/>
<path d="M337.4 338.14C337.4 338.319 327.843 338.472 316.052 338.472C304.262 338.472 294.756 338.255 294.756 338.14C294.756 338.025 304.313 337.808 316.091 337.808C327.868 337.808 337.4 337.898 337.4 338.14Z" fill="#263238"/>
<path d="M312.748 423.147C309.048 423.475 305.333 423.586 301.621 423.479C297.904 423.586 294.185 423.475 290.481 423.147C294.184 422.811 297.904 422.7 301.621 422.815C305.333 422.7 309.049 422.811 312.748 423.147Z" fill="#263238"/>
<path d="M312.901 432.207C309.322 432.551 305.725 432.666 302.131 432.551C298.542 432.667 294.949 432.551 291.375 432.207C294.95 431.878 298.542 431.767 302.131 431.875C305.724 431.767 309.321 431.878 312.901 432.207Z" fill="#263238"/>
<path d="M313.347 439.965C309.67 440.301 305.975 440.412 302.284 440.297C298.593 440.412 294.899 440.301 291.221 439.965C294.899 439.636 298.593 439.525 302.284 439.633C305.975 439.525 309.669 439.636 313.347 439.965Z" fill="#263238"/>
<path d="M313.041 448.31C309.44 448.638 305.822 448.749 302.208 448.642C298.593 448.749 294.976 448.638 291.375 448.31C294.975 447.974 298.593 447.863 302.208 447.978C305.822 447.863 309.44 447.974 313.041 448.31Z" fill="#263238"/>
<path d="M313.041 455.927C309.44 456.256 305.822 456.367 302.208 456.259C298.593 456.367 294.976 456.256 291.375 455.927C294.976 455.599 298.593 455.488 302.208 455.596C305.822 455.488 309.44 455.599 313.041 455.927Z" fill="#263238"/>
<path d="M313.041 463.545C309.44 463.881 305.822 463.992 302.208 463.877C298.593 463.992 294.975 463.881 291.375 463.545C294.976 463.217 298.593 463.106 302.208 463.213C305.822 463.106 309.44 463.217 313.041 463.545Z" fill="#263238"/>
<path d="M340.475 423.147C336.771 423.476 333.052 423.586 329.335 423.479C325.623 423.587 321.908 423.476 318.208 423.147C321.907 422.811 325.623 422.7 329.335 422.815C333.052 422.7 336.772 422.811 340.475 423.147Z" fill="#263238"/>
<path d="M340.615 432.207C337.041 432.551 333.448 432.667 329.859 432.551C326.269 432.667 322.677 432.551 319.102 432.207C322.678 431.878 326.27 431.767 329.859 431.875C333.448 431.767 337.04 431.878 340.615 432.207Z" fill="#263238"/>
<path d="M341.062 439.965C337.389 440.301 333.698 440.412 330.012 440.297C326.321 440.412 322.626 440.301 318.949 439.965C322.627 439.636 326.321 439.525 330.012 439.633C333.698 439.526 337.388 439.636 341.062 439.965Z" fill="#263238"/>
<path d="M340.769 448.31C337.167 448.638 333.55 448.749 329.935 448.642C326.321 448.749 322.703 448.638 319.102 448.31C322.703 447.974 326.321 447.863 329.935 447.978C333.55 447.863 337.168 447.974 340.769 448.31Z" fill="#263238"/>
<path d="M340.769 455.927C337.167 456.256 333.55 456.367 329.935 456.259C326.321 456.367 322.703 456.256 319.102 455.927C322.703 455.599 326.321 455.488 329.935 455.596C333.55 455.488 337.167 455.599 340.769 455.927Z" fill="#263238"/>
<path d="M340.769 463.545C337.168 463.881 333.55 463.992 329.935 463.877C326.321 463.992 322.703 463.881 319.102 463.545C322.703 463.217 326.321 463.106 329.935 463.213C333.55 463.106 337.167 463.217 340.769 463.545Z" fill="#263238"/>
<path d="M317.494 228.315C317.596 228.468 316.397 229.374 314.828 230.331C313.92 231.002 312.894 231.496 311.803 231.785C311.701 231.619 312.901 230.726 314.47 229.769C315.374 229.092 316.401 228.598 317.494 228.315Z" fill="white"/>
<path d="M319.574 228.506C319.727 228.685 318.642 229.54 317.239 230.395C316.434 231.016 315.501 231.452 314.508 231.671C314.419 231.505 315.491 230.688 316.894 229.833C317.705 229.24 318.611 228.791 319.574 228.506Z" fill="white"/>
<path d="M293.722 231.594C293.914 231.594 294.194 271.533 294.373 320.786C294.552 370.04 294.526 410.004 294.373 410.004C294.22 410.004 293.901 370.078 293.735 320.799C293.569 271.52 293.544 231.594 293.722 231.594Z" fill="#263238"/>
<path d="M336.979 409.596C336.787 409.596 336.825 372.031 337.042 325.699C337.259 279.367 337.591 241.802 337.782 241.802C337.974 241.802 337.936 279.355 337.706 325.699C337.476 372.043 337.157 409.596 336.979 409.596Z" fill="#263238"/>
<path d="M407.044 428.8C407.044 428.978 392.128 429.132 373.715 429.132C355.302 429.132 340.386 428.978 340.386 428.8C340.386 428.621 355.302 428.468 373.715 428.468C392.128 428.468 407.044 428.608 407.044 428.8Z" fill="#263238"/>
<path d="M401.774 434.937C401.451 433.946 401.338 432.899 401.442 431.862C401.337 430.829 401.451 429.786 401.774 428.8C402.097 429.786 402.21 430.829 402.106 431.862C402.21 432.899 402.097 433.946 401.774 434.937Z" fill="#263238"/>
<path d="M396.325 434.81C396.003 433.876 395.889 432.883 395.994 431.9C395.891 430.914 396.004 429.917 396.325 428.978C396.654 429.915 396.768 430.914 396.657 431.9C396.768 432.883 396.655 433.878 396.325 434.81Z" fill="#263238"/>
<path d="M390.137 435.18C389.695 433.076 389.695 430.903 390.137 428.8C390.579 430.903 390.579 433.076 390.137 435.18Z" fill="#263238"/>
<path d="M384.076 435.486C383.634 433.279 383.634 431.007 384.076 428.8C384.518 431.007 384.518 433.279 384.076 435.486Z" fill="#263238"/>
<path d="M378.487 435.665C378.043 433.398 378.043 431.067 378.487 428.8C378.931 431.067 378.931 433.398 378.487 435.665Z" fill="#263238"/>
<path d="M372.592 435.665C372.148 433.398 372.148 431.067 372.592 428.8C373.035 431.067 373.035 433.398 372.592 435.665Z" fill="#263238"/>
<path d="M366.697 435.665C366.253 433.398 366.253 431.067 366.697 428.8C367.14 431.067 367.14 433.398 366.697 435.665Z" fill="#263238"/>
<path d="M360.802 437.03C360.359 434.304 360.359 431.525 360.802 428.8C361.244 431.525 361.244 434.304 360.802 437.03Z" fill="#263238"/>
<path d="M354.906 437.515C354.464 434.627 354.464 431.688 354.906 428.8C355.349 431.688 355.349 434.627 354.906 437.515Z" fill="#263238"/>
<path d="M347.863 438.102C347.421 435.017 347.421 431.885 347.863 428.8C348.305 431.885 348.305 435.017 347.863 438.102Z" fill="#263238"/>
<path d="M404.147 423.632L403.139 415.734L347.697 357.038L347.072 325.099L350.262 355.175L403.713 412.148C405.04 413.502 405.91 415.238 406.202 417.112L407.376 426.656L404.147 423.632Z" fill="#263238"/>
<path d="M372.592 413.922H347.072V420.799H372.592V413.922Z" fill="#5B5EAF"/>
<path d="M315.593 27.4084C315.771 27.4084 315.963 51.5248 316.001 81.2684C316.039 111.012 315.937 135.128 315.759 135.128C315.58 135.128 315.389 111.012 315.338 81.2684C315.286 51.5248 315.414 27.4084 315.593 27.4084Z" fill="#263238"/>
<path d="M318.068 128.659C318.068 128.583 318.387 128.391 318.834 128.659C318.962 128.758 319.064 128.886 319.133 129.033C319.202 129.179 319.235 129.34 319.229 129.501C319.204 129.709 319.119 129.904 318.985 130.064C318.852 130.225 318.674 130.343 318.475 130.405C318.275 130.467 318.062 130.47 317.861 130.414C317.66 130.358 317.479 130.245 317.341 130.088C317.243 129.959 317.179 129.808 317.152 129.648C317.125 129.488 317.138 129.324 317.188 129.17C317.354 128.646 317.762 128.595 317.775 128.685C317.788 128.774 317.634 128.94 317.647 129.259C317.66 129.578 317.864 129.91 318.272 129.769C318.352 129.749 318.424 129.709 318.483 129.652C318.542 129.595 318.585 129.524 318.609 129.445C318.632 129.367 318.634 129.284 318.615 129.204C318.597 129.124 318.558 129.051 318.502 128.991C318.323 128.787 318.081 128.748 318.068 128.659Z" fill="#263238"/>
<path d="M318.068 110.604C318.068 110.527 318.387 110.336 318.834 110.604C318.959 110.705 319.059 110.834 319.128 110.979C319.196 111.125 319.231 111.285 319.229 111.446C319.206 111.654 319.123 111.851 318.99 112.013C318.857 112.175 318.68 112.295 318.48 112.359C318.28 112.422 318.066 112.426 317.864 112.371C317.662 112.315 317.48 112.202 317.341 112.045C317.243 111.916 317.179 111.765 317.152 111.605C317.125 111.445 317.138 111.281 317.188 111.127C317.354 110.604 317.762 110.553 317.775 110.642C317.788 110.731 317.634 110.897 317.647 111.216C317.66 111.535 317.864 111.854 318.272 111.726C318.352 111.706 318.424 111.666 318.483 111.609C318.542 111.552 318.585 111.481 318.609 111.403C318.632 111.324 318.634 111.241 318.615 111.161C318.597 111.082 318.558 111.008 318.502 110.948C318.323 110.731 318.081 110.693 318.068 110.604Z" fill="#263238"/>
<path d="M318.069 92.5355C318.069 92.4589 318.388 92.2675 318.834 92.5355C318.962 92.6344 319.065 92.7624 319.133 92.9089C319.202 93.0553 319.235 93.2159 319.23 93.3776C319.21 93.5868 319.127 93.785 318.993 93.9466C318.859 94.1082 318.679 94.2256 318.477 94.2836C318.299 94.3545 318.103 94.3716 317.915 94.3328C317.727 94.294 317.555 94.201 317.419 94.0653C317.283 93.9296 317.19 93.7571 317.152 93.5691C317.113 93.3812 317.13 93.1859 317.201 93.0076C317.367 92.4972 317.775 92.4461 317.788 92.5227C317.801 92.5993 317.647 92.7907 317.66 93.0969C317.673 93.4031 317.877 93.7477 318.285 93.6201C318.694 93.4925 318.707 93.1097 318.515 92.8289C318.324 92.5482 318.081 92.6375 318.069 92.5355Z" fill="#263238"/>
<path d="M318.068 74.48C318.068 74.4035 318.387 74.2121 318.834 74.5438C318.962 74.6428 319.064 74.7708 319.133 74.9172C319.202 75.0637 319.235 75.2243 319.229 75.386C319.209 75.5951 319.127 75.7934 318.993 75.955C318.858 76.1166 318.678 76.234 318.477 76.292C318.277 76.361 318.062 76.3674 317.859 76.3104C317.656 76.2534 317.475 76.1356 317.341 75.973C317.243 75.8434 317.179 75.6923 317.152 75.5324C317.125 75.3724 317.138 75.2084 317.188 75.0542C317.354 74.5311 317.762 74.4928 317.775 74.5694C317.788 74.6459 317.634 74.8246 317.647 75.1436C317.66 75.4626 317.864 75.7943 318.272 75.654C318.352 75.6338 318.424 75.5933 318.483 75.5365C318.542 75.4797 318.585 75.4086 318.609 75.3301C318.632 75.2516 318.634 75.1685 318.615 75.0888C318.597 75.0091 318.558 74.9356 318.502 74.8756C318.323 74.6076 318.081 74.5694 318.068 74.48Z" fill="#263238"/>
<path d="M318.068 56.4247C318.068 56.3482 318.387 56.1568 318.834 56.4247C318.961 56.5277 319.062 56.6583 319.131 56.8064C319.199 56.9546 319.233 57.1164 319.229 57.2797C319.204 57.4869 319.119 57.6825 318.985 57.8428C318.852 58.003 318.674 58.1213 318.475 58.1833C318.275 58.2452 318.062 58.2483 317.861 58.1922C317.66 58.136 317.479 58.023 317.341 57.8666C317.243 57.7371 317.179 57.5859 317.152 57.426C317.125 57.2661 317.138 57.1021 317.188 56.9479C317.354 56.4247 317.762 56.3737 317.775 56.463C317.788 56.5523 317.634 56.7182 317.647 57.0372C317.66 57.3562 317.864 57.6752 318.272 57.5476C318.352 57.5274 318.424 57.4869 318.483 57.4301C318.542 57.3734 318.585 57.3022 318.609 57.2238C318.632 57.1453 318.634 57.0621 318.615 56.9824C318.597 56.9027 318.558 56.8293 318.502 56.7693C318.323 56.5523 318.081 56.5141 318.068 56.4247Z" fill="#263238"/>
<path d="M318.068 38.3565C318.068 38.3565 318.387 38.1013 318.834 38.4203C318.96 38.5207 319.062 38.6489 319.13 38.795C319.199 38.9411 319.233 39.1011 319.229 39.2625C319.208 39.4728 319.126 39.6722 318.992 39.8357C318.858 39.9991 318.679 40.1194 318.477 40.1812C318.277 40.2484 318.062 40.2539 317.86 40.197C317.657 40.1401 317.476 40.0234 317.341 39.8622C317.243 39.7327 317.179 39.5815 317.152 39.4216C317.125 39.2617 317.138 39.0977 317.188 38.9435C317.354 38.4203 317.762 38.3693 317.775 38.4586C317.788 38.5479 317.634 38.7138 317.647 39.0328C317.66 39.3518 317.864 39.6708 318.272 39.5432C318.681 39.4156 318.693 39.0328 318.502 38.7521C318.311 38.4714 318.081 38.4586 318.068 38.3565Z" fill="#263238"/>
<path d="M298.648 58.1855C298.354 58.8496 298.008 59.4895 297.614 60.0995C296.899 61.299 295.93 63.0726 294.794 65.2929C293.658 67.5131 292.395 70.2055 291.132 73.2551C289.869 76.3048 288.695 79.7372 287.636 83.3865C286.577 87.0359 285.824 90.596 285.25 93.837C284.675 97.078 284.331 100.038 284.139 102.527C283.948 105.015 283.82 107.044 283.795 108.434C283.798 109.16 283.751 109.885 283.655 110.604C283.55 109.886 283.508 109.16 283.527 108.434C283.527 107.031 283.527 105.002 283.667 102.501C283.847 99.5643 284.175 96.6386 284.65 93.7349C285.239 90.1856 286.023 86.6713 286.998 83.2079C287.998 79.7415 289.191 76.3335 290.57 72.9999C291.712 70.2875 292.99 67.6344 294.398 65.0504C295.598 62.8429 296.644 61.1076 297.423 59.9464C297.78 59.3254 298.189 58.7362 298.648 58.1855Z" fill="white"/>
<path d="M304.581 47.6713C304.734 47.7606 304.351 48.7942 303.7 49.9809C303.05 51.1676 302.424 52.0608 302.233 51.9714C302.042 51.8821 302.463 50.8486 303.113 49.6619C303.764 48.4752 304.415 47.582 304.581 47.6713Z" fill="white"/>
<path d="M286.207 202.476C286.028 202.476 285.875 188.299 285.875 170.805C285.875 153.311 286.028 139.148 286.207 139.148C286.385 139.148 286.539 153.324 286.539 170.805C286.539 188.287 286.385 202.476 286.207 202.476Z" fill="white"/>
<path d="M290.928 182.532C290.592 179.354 290.481 176.156 290.596 172.962C290.479 169.747 290.589 166.527 290.928 163.328C291.256 166.511 291.367 169.713 291.26 172.911C291.369 176.122 291.259 179.336 290.928 182.532Z" fill="white"/>
<path d="M296.376 175.897C296.037 174.755 295.92 173.56 296.032 172.375C295.92 171.19 296.037 169.994 296.376 168.853C296.819 171.18 296.819 173.57 296.376 175.897Z" fill="white"/>
<path d="M283.476 287.687C283.284 287.687 283.131 270.971 283.131 250.364C283.131 229.756 283.272 213.092 283.476 213.092C283.68 213.092 283.808 229.808 283.808 250.428C283.808 271.048 283.654 287.687 283.476 287.687Z" fill="white"/>
<path d="M415.657 58.1857L418.413 63.2131L423.441 65.9693L418.413 68.7127L415.657 73.7529L412.914 68.7127L407.874 65.9693L412.914 63.2131L415.657 58.1857Z" fill="#263238"/>
<path d="M428.213 81.2686L429.463 83.5781L431.773 84.8286L429.463 86.0918L428.213 88.3886L426.95 86.0918L424.653 84.8286L426.95 83.5781L428.213 81.2686Z" fill="#263238"/>
<path d="M167.871 233.508L170.614 238.548L175.654 241.292L170.614 244.048L167.871 249.088L165.114 244.048L160.074 241.292L165.114 238.548L167.871 233.508Z" fill="#263238"/>
<path d="M434.988 303.88L437.744 308.907L442.785 311.663L437.744 314.419L434.988 319.447L432.245 314.419L427.205 311.663L432.245 308.907L434.988 303.88Z" fill="#263238"/>
<path d="M149.585 249.981L150.849 252.291L153.145 253.541L150.849 254.804L149.585 257.101L148.335 254.804L146.025 253.541L148.335 252.291L149.585 249.981Z" fill="#263238"/>
<path d="M186.653 204.517L187.917 206.814L190.213 208.077L187.917 209.328L186.653 211.637L185.39 209.328L183.093 208.077L185.39 206.814L186.653 204.517Z" fill="#263238"/>
<path d="M482.66 291.847H477.403V617.469H482.66V291.847Z" fill="#263238"/>
<path d="M538.498 291.604H533.241V617.086H538.498V291.604Z" fill="#263238"/>
<path d="M536.456 291.847H477.403V295.917H536.456V291.847Z" fill="#263238"/>
<path d="M538.498 363.545H477.403V367.616H538.498V363.545Z" fill="#263238"/>
<path d="M537.923 524.704H477.403V528.774H537.923V524.704Z" fill="#263238"/>
<path d="M535.332 449.804L478.866 527.181L482.154 529.581L538.62 452.204L535.332 449.804Z" fill="#263238"/>
<path d="M534.755 366.989L477.818 450.08L481.176 452.381L538.113 369.289L534.755 366.989Z" fill="#263238"/>
<path d="M534.741 528.285L477.805 611.377L481.162 613.678L538.099 530.586L534.741 528.285Z" fill="#263238"/>
<path d="M535.379 294.321L479.086 361.719L482.21 364.328L538.503 296.931L535.379 294.321Z" fill="#263238"/>
<path d="M538.498 448.271H477.403V452.342H538.498V448.271Z" fill="#263238"/>
<path d="M503.535 617.15C503.357 617.15 503.204 544.801 503.204 455.583C503.204 366.365 503.357 293.99 503.535 293.99C503.714 293.99 503.867 366.327 503.867 455.583C503.867 544.839 503.727 617.15 503.535 617.15Z" fill="#263238"/>
<path d="M505.883 617.086C505.704 617.086 505.551 545.273 505.551 456.719C505.551 368.164 505.704 296.338 505.883 296.338C506.062 296.338 506.215 368.126 506.215 456.719C506.215 545.311 506.074 617.086 505.883 617.086Z" fill="#263238"/>
<path d="M517.099 617.239C516.908 617.239 516.768 545.401 516.768 456.795C516.768 368.19 516.908 296.338 517.099 296.338C517.291 296.338 517.431 368.164 517.431 456.795C517.431 545.426 517.278 617.239 517.099 617.239Z" fill="#263238"/>
<path d="M525.495 617.086C525.317 617.086 525.164 545.273 525.164 456.719C525.164 368.164 525.317 296.338 525.495 296.338C525.674 296.338 525.827 368.126 525.827 456.719C525.827 545.311 525.712 617.086 525.495 617.086Z" fill="#263238"/>
<path d="M525.495 321.399C522.722 321.841 519.897 321.841 517.125 321.399C519.897 320.957 522.722 320.957 525.495 321.399Z" fill="#263238"/>
<path d="M525.495 314.368C522.722 314.81 519.897 314.81 517.125 314.368C519.897 313.926 522.722 313.926 525.495 314.368Z" fill="#263238"/>
<path d="M525.495 307.337C522.722 307.78 519.897 307.78 517.125 307.337C519.897 306.895 522.722 306.895 525.495 307.337Z" fill="#263238"/>
<path d="M525.495 300.307C522.722 300.749 519.897 300.749 517.125 300.307C519.897 299.864 522.722 299.864 525.495 300.307Z" fill="#263238"/>
<path d="M525.495 329.323C522.722 329.765 519.897 329.765 517.125 329.323C519.897 328.881 522.722 328.881 525.495 329.323Z" fill="#263238"/>
<path d="M525.495 337.247C522.722 337.689 519.897 337.689 517.125 337.247C519.897 336.804 522.722 336.804 525.495 337.247Z" fill="#263238"/>
<path d="M525.495 345.171C522.722 345.613 519.897 345.613 517.125 345.171C519.897 344.728 522.722 344.728 525.495 345.171Z" fill="#263238"/>
<path d="M525.495 353.095C522.722 353.537 519.897 353.537 517.125 353.095C519.896 352.635 522.724 352.635 525.495 353.095Z" fill="#263238"/>
<path d="M525.495 361.006C522.724 361.465 519.896 361.465 517.125 361.006C519.897 360.564 522.722 360.564 525.495 361.006Z" fill="#263238"/>
<path d="M525.495 368.93C522.722 369.372 519.897 369.372 517.125 368.93C519.897 368.488 522.722 368.488 525.495 368.93Z" fill="#263238"/>
<path d="M525.495 376.854C522.722 377.296 519.897 377.296 517.125 376.854C519.897 376.411 522.722 376.411 525.495 376.854Z" fill="#263238"/>
<path d="M525.495 384.778C522.722 385.22 519.897 385.22 517.125 384.778C519.897 384.335 522.722 384.335 525.495 384.778Z" fill="#263238"/>
<path d="M525.495 392.702C522.722 393.144 519.897 393.144 517.125 392.702C519.897 392.259 522.722 392.259 525.495 392.702Z" fill="#263238"/>
<path d="M525.495 400.664C522.722 401.106 519.897 401.106 517.125 400.664C519.897 400.222 522.722 400.222 525.495 400.664Z" fill="#263238"/>
<path d="M525.495 408.55C522.722 408.992 519.897 408.992 517.125 408.55C519.897 408.107 522.722 408.107 525.495 408.55Z" fill="#263238"/>
<path d="M525.495 416.474C522.722 416.916 519.897 416.916 517.125 416.474C519.897 416.031 522.722 416.031 525.495 416.474Z" fill="#263238"/>
<path d="M525.495 424.398C522.722 424.84 519.897 424.84 517.125 424.398C519.897 423.955 522.722 423.955 525.495 424.398Z" fill="#263238"/>
<path d="M525.495 432.322C522.722 432.764 519.897 432.764 517.125 432.322C519.897 431.879 522.722 431.879 525.495 432.322Z" fill="#263238"/>
<path d="M525.495 440.22C522.722 440.662 519.897 440.662 517.125 440.22C519.897 439.778 522.722 439.778 525.495 440.22Z" fill="#263238"/>
<path d="M525.495 448.169C522.722 448.612 519.897 448.612 517.125 448.169C519.897 447.727 522.722 447.727 525.495 448.169Z" fill="#263238"/>
<path d="M525.495 456.093C522.722 456.536 519.897 456.536 517.125 456.093C519.897 455.651 522.722 455.651 525.495 456.093Z" fill="#263238"/>
<path d="M525.495 464.017C522.722 464.46 519.897 464.46 517.125 464.017C519.897 463.575 522.722 463.575 525.495 464.017Z" fill="#263238"/>
<path d="M525.495 471.941C522.722 472.384 519.897 472.384 517.125 471.941C519.897 471.499 522.722 471.499 525.495 471.941Z" fill="#263238"/>
<path d="M525.495 479.865C522.722 480.308 519.897 480.308 517.125 479.865C519.897 479.423 522.722 479.423 525.495 479.865Z" fill="#263238"/>
<path d="M525.495 487.789C522.722 488.232 519.897 488.232 517.125 487.789C519.897 487.347 522.722 487.347 525.495 487.789Z" fill="#263238"/>
<path d="M525.495 495.713C522.722 496.155 519.897 496.155 517.125 495.713C519.897 495.271 522.722 495.271 525.495 495.713Z" fill="#263238"/>
<path d="M525.495 503.637C522.722 504.08 519.897 504.08 517.125 503.637C519.897 503.195 522.722 503.195 525.495 503.637Z" fill="#263238"/>
<path d="M525.495 511.561C522.722 512.003 519.897 512.003 517.125 511.561C519.897 511.119 522.722 511.119 525.495 511.561Z" fill="#263238"/>
<path d="M525.495 519.485C522.722 519.927 519.897 519.927 517.125 519.485C519.897 519.043 522.722 519.043 525.495 519.485Z" fill="#263238"/>
<path d="M525.495 527.409C522.722 527.851 519.897 527.851 517.125 527.409C519.897 526.967 522.722 526.967 525.495 527.409Z" fill="#263238"/>
<path d="M525.495 535.333C522.722 535.775 519.897 535.775 517.125 535.333C519.897 534.891 522.722 534.891 525.495 535.333Z" fill="#263238"/>
<path d="M525.495 543.257C522.722 543.699 519.897 543.699 517.125 543.257C519.897 542.815 522.722 542.815 525.495 543.257Z" fill="#263238"/>
<path d="M525.495 551.232C522.722 551.674 519.897 551.674 517.125 551.232C519.896 550.773 522.724 550.773 525.495 551.232Z" fill="#263238"/>
<path d="M525.495 559.092C522.724 559.551 519.896 559.551 517.125 559.092C519.897 558.65 522.722 558.65 525.495 559.092Z" fill="#263238"/>
<path d="M525.495 567.016C522.722 567.458 519.897 567.458 517.125 567.016C519.897 566.574 522.722 566.574 525.495 567.016Z" fill="#263238"/>
<path d="M525.495 574.94C522.722 575.382 519.897 575.382 517.125 574.94C519.897 574.498 522.722 574.498 525.495 574.94Z" fill="#263238"/>
<path d="M525.495 582.864C522.722 583.306 519.897 583.306 517.125 582.864C519.897 582.422 522.722 582.422 525.495 582.864Z" fill="#263238"/>
<path d="M525.495 590.788C522.722 591.23 519.897 591.23 517.125 590.788C519.897 590.346 522.722 590.346 525.495 590.788Z" fill="#263238"/>
<path d="M525.495 598.712C522.722 599.154 519.897 599.154 517.125 598.712C519.897 598.27 522.722 598.27 525.495 598.712Z" fill="#263238"/>
<path d="M525.495 606.636C522.722 607.078 519.897 607.078 517.125 606.636C519.897 606.194 522.722 606.194 525.495 606.636Z" fill="#263238"/>
<path d="M525.495 614.56C522.722 615.002 519.897 615.002 517.125 614.56C519.897 614.117 522.722 614.117 525.495 614.56Z" fill="#263238"/>
<path d="M480.031 456.272C479.9 456.289 479.767 456.289 479.636 456.272H478.487L474.034 456.336L457.586 456.438L402.718 456.54L403.05 456.208V467.616L402.718 467.284L457.586 467.386L474.034 467.501H478.487H479.636H480.031C479.9 467.518 479.767 467.518 479.636 467.501H478.487L474.034 467.565L457.586 467.667L402.718 467.769H402.387V455.698H402.718L457.586 455.8L474.034 455.902H478.487H479.636C479.789 456.001 479.923 456.126 480.031 456.272Z" fill="#263238"/>
<path d="M477.518 467.016L477.314 466.863L476.739 466.34L474.545 464.285L466.365 456.476L466.684 456.323C466.85 459.513 467.042 463.137 467.259 467.144V467.743L466.812 467.322L455.634 456.54L456.106 456.336C456.106 459.807 456.004 463.443 455.953 467.22V467.922L455.443 467.437L444.214 456.566L444.763 456.349C444.699 459.73 444.622 463.328 444.559 466.99V467.743L444.01 467.22L438.689 462.116L433.024 456.629L433.585 456.387V467.871L433.036 467.36L421.667 456.655L422.178 456.438C422.178 460.419 422.178 464.222 422.178 467.833V468.522L421.693 468.037L410.336 456.553L410.732 456.387C410.732 460.61 410.732 464.285 410.732 467.45V468.011L410.413 467.552C407.963 464.03 406.049 461.248 404.709 459.322L403.242 457.152L402.872 456.591L402.757 456.387C402.757 456.387 402.757 456.387 402.91 456.553L403.318 457.101L404.875 459.22L410.694 467.348L410.375 467.45C410.375 464.285 410.375 460.61 410.375 456.387V455.825L410.77 456.221L422.254 467.577L421.769 467.782C421.769 464.17 421.769 460.368 421.769 456.387V455.532L422.28 456.017L433.674 466.671L433.126 466.914C433.126 463.435 433.126 459.875 433.126 456.234V455.532L433.687 456.068L439.365 461.567L444.673 466.671L444.112 466.901C444.189 463.252 444.265 459.653 444.329 456.272V455.532L444.865 456.055L456.081 466.939L455.558 467.156C455.621 463.328 455.698 459.743 455.762 456.285V455.621L456.234 456.081L467.348 466.927L466.952 467.105C466.774 463.111 466.621 459.449 466.48 456.298V455.813L466.825 456.144L474.876 464.081L477.007 466.212L477.543 466.774C477.467 466.888 477.53 467.016 477.518 467.016Z" fill="#263238"/>
<path d="M481.269 367.616H480.874H479.713L475.259 367.679L458.824 367.781L403.956 367.884L404.288 367.552V378.972L403.956 378.64L458.824 378.742L475.272 378.844L479.776 378.972H480.938C481.069 378.953 481.202 378.953 481.333 378.972H480.938H479.776L475.336 379.036L458.888 379.138L404.02 379.24H403.688V367.169H404.02L458.888 367.271L475.323 367.373L479.776 367.437H480.938C481.055 367.484 481.166 367.544 481.269 367.616Z" fill="#263238"/>
<path d="M478.755 378.296C478.755 378.296 478.679 378.296 478.551 378.13L477.977 377.619L475.782 375.565L467.603 367.756L467.922 367.603C468.088 370.793 468.279 374.417 468.496 378.423V379.023L468.062 378.602L456.872 367.82L457.357 367.616C457.357 371.086 457.255 374.723 457.204 378.5V379.202L456.693 378.717C453.146 375.272 449.369 371.635 445.452 367.845L446.013 367.616C445.936 371.01 445.873 374.608 445.796 378.257V379.023L445.247 378.5L439.939 373.396L434.274 367.909L434.835 367.667V379.151L434.299 378.627L422.93 367.935L423.441 367.718C423.441 371.699 423.441 375.497 423.441 379.112V379.789L422.968 379.317L411.612 367.832L412.008 367.667C412.008 371.877 412.008 375.552 412.008 378.73V379.291L411.689 378.832L405.998 370.601C405.372 369.683 404.875 368.955 404.53 368.432L404.16 367.871C404.071 367.743 404.033 367.667 404.045 367.667C404.058 367.667 404.045 367.667 404.198 367.832C404.352 367.998 404.441 368.152 404.607 368.368L406.151 370.499L411.982 378.627L411.663 378.73C411.663 375.552 411.663 371.877 411.599 367.667V367.105L411.995 367.501L423.479 378.857L422.994 379.061C422.994 375.446 422.994 371.648 422.994 367.667V366.965L423.517 367.45L434.899 378.104L434.363 378.347C434.363 374.859 434.363 371.299 434.363 367.667V366.888L434.925 367.424L440.59 372.924L445.898 378.028L445.337 378.257C445.413 374.608 445.49 371.01 445.566 367.616V366.875L446.102 367.399L457.306 378.283L456.795 378.5C456.795 374.672 456.923 371.086 456.987 367.628V366.965L457.459 367.424L468.585 378.27L468.177 378.449C468.011 374.455 467.845 370.793 467.705 367.641V367.156L468.037 367.488L476.101 375.425L478.219 377.556L478.755 378.104C478.759 378.168 478.759 378.232 478.755 378.296Z" fill="#263238"/>
<path d="M613.284 617.099C613.284 617.278 481.524 617.431 319.013 617.431C156.502 617.431 24.7163 617.278 24.7163 617.099C24.7163 616.92 156.451 616.767 319.013 616.767C481.575 616.767 613.284 616.908 613.284 617.099Z" fill="#263238"/>
</svg>
